<svg xmlns="http://www.w3.org/2000/svg" xmlns:xlink="http://www.w3.org/1999/xlink" width="108.914" height="108.914" viewBox="0 0 108.914 108.914">
  <defs>
    <filter id="Trazado_874925" x="0" y="0" width="108.914" height="108.914" filterUnits="userSpaceOnUse">
      <feOffset dy="3" input="SourceAlpha"/>
      <feGaussianBlur stdDeviation="3" result="blur"/>
      <feFlood flood-opacity="0.161"/>
      <feComposite operator="in" in2="blur"/>
      <feComposite in="SourceGraphic"/>
    </filter>
  </defs>
  <g id="Grupo_1107935" data-name="Grupo 1107935" transform="translate(8.837 6.022)">
    <g id="Grupo_1098742" data-name="Grupo 1098742" transform="translate(0.162 -0.022)">
      <g transform="matrix(1, 0, 0, 1, -9, -6)" filter="url(#Trazado_874925)">
        <g id="Trazado_874925-2" data-name="Trazado 874925" transform="translate(9 6)" fill="#9ec9ff" opacity="0.859">
          <path d="M 45.45676803588867 89.41407012939453 C 39.52198028564453 89.41407012939453 33.76551818847656 88.25206756591797 28.34726715087891 85.96034240722656 C 23.11310577392578 83.74648284912109 18.41203117370605 80.57682800292969 14.37464332580566 76.5394287109375 C 10.33724308013916 72.50202941894531 7.167593002319336 67.80095672607422 4.953730583190918 62.56679534912109 C 2.662005424499512 57.14855575561523 1.500005483627319 51.39208221435547 1.500005483627319 45.45729446411133 C 1.500005483627319 39.52198028564453 2.662005424499512 33.76550674438477 4.953730583190918 28.34726905822754 C 7.167593002319336 23.11310577392578 10.33724308013916 18.41203117370605 14.37464332580566 14.37464332580566 C 18.41203117370605 10.33724403381348 23.11310577392578 7.167593955993652 28.34726715087891 4.953731060028076 C 33.76550674438477 2.662006139755249 39.52198028564453 1.500006198883057 45.45676803588867 1.500006198883057 C 51.39155578613281 1.500006198883057 57.14802932739258 2.662006139755249 62.56626892089844 4.953731060028076 C 67.80043029785156 7.167593955993652 72.50150299072266 10.33724403381348 76.53890228271484 14.37464332580566 C 80.57630920410156 18.41203117370605 83.74595642089844 23.11310577392578 85.95981597900391 28.34726905822754 C 88.25154113769531 33.76551818847656 89.41354370117188 39.52198028564453 89.41354370117188 45.45676803588867 C 89.41354370117188 51.39208221435547 88.25154113769531 57.14855575561523 85.95981597900391 62.56679534912109 C 83.74595642089844 67.80095672607422 80.57630920410156 72.50202941894531 76.53890228271484 76.5394287109375 C 72.50150299072266 80.57682800292969 67.80043029785156 83.74648284912109 62.56626892089844 85.96034240722656 C 57.14802932739258 88.25206756591797 51.39155578613281 89.41407012939453 45.45676803588867 89.41407012939453 Z" stroke="none"/>
          <path d="M 45.45676803588867 3 C 39.72381210327148 3 34.1639404296875 4.12213134765625 28.93159484863281 6.335227966308594 C 23.87622833251953 8.473472595214844 19.33542633056641 11.53517150878906 15.43529510498047 15.435302734375 C 11.53517150878906 19.33543395996094 8.473464965820312 23.87622833251953 6.335227966308594 28.93160247802734 C 4.122123718261719 34.16394424438477 3 39.72381591796875 3 45.4572868347168 C 3 51.19024658203125 4.122123718261719 56.75011825561523 6.335227966308594 61.98246002197266 C 8.473464965820312 67.03782653808594 11.53517150878906 71.57862854003906 15.43529510498047 75.478759765625 C 19.33542633056641 79.37889099121094 23.87622833251953 82.44058990478516 28.93159484863281 84.57883453369141 C 34.1639404296875 86.79193115234375 39.72381210327148 87.9140625 45.45676803588867 87.9140625 C 51.18972396850586 87.9140625 56.74959564208984 86.79193115234375 61.98194122314453 84.57883453369141 C 67.03730773925781 82.44058990478516 71.57810974121094 79.37889099121094 75.47824096679688 75.478759765625 C 79.37837219238281 71.57862854003906 82.44007110595703 67.03782653808594 84.57830810546875 61.98246002197266 C 86.79141235351562 56.75011825561523 87.91353607177734 51.19024658203125 87.91353607177734 45.4567756652832 C 87.91353607177734 39.72381591796875 86.79141235351562 34.16394424438477 84.57830810546875 28.93160247802734 C 82.44007110595703 23.87622833251953 79.37837219238281 19.33543395996094 75.47824096679688 15.435302734375 C 71.57810974121094 11.53517150878906 67.03730773925781 8.473472595214844 61.98194122314453 6.335227966308594 C 56.74959564208984 4.12213134765625 51.18972396850586 3 45.45676803588867 3 M 45.45676803588867 0 C 70.56185150146484 0 90.91353607177734 20.35169219970703 90.91353607177734 45.4567756652832 L 90.91353607177734 45.4572868347168 C 90.91353607177734 70.5623779296875 70.56185150146484 90.9140625 45.45676803588867 90.9140625 C 20.3516845703125 90.9140625 0 70.5623779296875 0 45.4572868347168 L 0 45.4567756652832 C 0 20.35169219970703 20.3516845703125 0 45.45676803588867 0 Z" stroke="none" fill="#fff"/>
        </g>
      </g>
      <g id="Trazado_874923" data-name="Trazado 874923" transform="translate(0)" fill="none">
        <path d="M45.457,0A45.457,45.457,0,0,1,90.914,45.457h0A45.457,45.457,0,0,1,0,45.457H0A45.457,45.457,0,0,1,45.457,0Z" stroke="none"/>
        <path d="M 45.45676803588867 3 C 39.72381210327148 3 34.1639404296875 4.12213134765625 28.93159484863281 6.335227966308594 C 23.87622833251953 8.473472595214844 19.33542633056641 11.53517150878906 15.43529510498047 15.435302734375 C 11.53517150878906 19.33543395996094 8.473464965820312 23.87622833251953 6.335227966308594 28.93160247802734 C 4.122123718261719 34.16394424438477 3 39.72381591796875 3 45.4572868347168 C 3 51.19024658203125 4.122123718261719 56.75011825561523 6.335227966308594 61.98246002197266 C 8.473464965820312 67.03782653808594 11.53517150878906 71.57862854003906 15.43529510498047 75.478759765625 C 19.33542633056641 79.37889099121094 23.87622833251953 82.44058990478516 28.93159484863281 84.57883453369141 C 34.1639404296875 86.79193115234375 39.72381210327148 87.9140625 45.45676803588867 87.9140625 C 51.18972396850586 87.9140625 56.74959564208984 86.79193115234375 61.98194122314453 84.57883453369141 C 67.03730773925781 82.44058990478516 71.57810974121094 79.37889099121094 75.47824096679688 75.478759765625 C 79.37837219238281 71.57862854003906 82.44007110595703 67.03782653808594 84.57830810546875 61.98246002197266 C 86.79141235351562 56.75011825561523 87.91353607177734 51.19024658203125 87.91353607177734 45.4567756652832 C 87.91353607177734 39.72381591796875 86.79141235351562 34.16394424438477 84.57830810546875 28.93160247802734 C 82.44007110595703 23.87622833251953 79.37837219238281 19.33543395996094 75.47824096679688 15.435302734375 C 71.57810974121094 11.53517150878906 67.03730773925781 8.473472595214844 61.98194122314453 6.335227966308594 C 56.74959564208984 4.12213134765625 51.18972396850586 3 45.45676803588867 3 M 45.45676803588867 0 C 70.56185150146484 0 90.91353607177734 20.35169219970703 90.91353607177734 45.4567756652832 L 90.91353607177734 45.4572868347168 C 90.91353607177734 70.5623779296875 70.56185150146484 90.9140625 45.45676803588867 90.9140625 C 20.3516845703125 90.9140625 0 70.5623779296875 0 45.4572868347168 L 0 45.4567756652832 C 0 20.35169219970703 20.3516845703125 0 45.45676803588867 0 Z" stroke="none" fill="#fff"/>
      </g>
    </g>
    <g id="_06-Wash_hands" data-name="06-Wash hands" transform="translate(17.162 16.978)">
      <path id="Trazado_898108" data-name="Trazado 898108" d="M60.471,50.553v10.66L40.36,51.593l.569-.151L45.37,47Z" transform="translate(-4.508 -5.25)" fill="#f2b59d"/>
      <path id="Trazado_898109" data-name="Trazado 898109" d="M3.665,40.869a3.622,3.622,0,0,1-1.626-.924A3.575,3.575,0,0,1,1,37.431a2.665,2.665,0,0,1,2.665-2.665H7.218l.027-.036,4.024,3.082a2.487,2.487,0,0,0,3.233-.2,2.411,2.411,0,0,0,.711-1.706v-.417a1.777,1.777,0,0,0-.888-1.617l-3.544-2.8.027-.036,6.351,4.939A2.643,2.643,0,0,0,21.431,33.9v-.471a2.626,2.626,0,0,0-1.022-2.088l1.022.764a3.573,3.573,0,0,0,1.794.888,2.638,2.638,0,0,0,2.647-2.647v-.471a2.634,2.634,0,0,0-1.057-2.114l-2.5-1.874h.888v-.888a1.782,1.782,0,0,0-1.777-1.777H13.854a2.193,2.193,0,0,1-.977-4.157l2.443-.853L18.766,17l2.665.293,5.33.6,3.411,2.843L42.75,31.213H56.075V47.2l-15.1-3.553L36.532,48.09l-.569.151L20,52.443a2.714,2.714,0,0,1-.7.089H17.256a2.791,2.791,0,0,1-1.972-.817l-1.848-1.848H12.29a3.567,3.567,0,0,1-3.3-2.23l-.879-2.212H7.245a2.652,2.652,0,0,1-2.469-1.679l-1.11-2.763Z" transform="translate(-0.112 -1.899)" fill="#f2c4b2"/>
      <path id="Trazado_898110" data-name="Trazado 898110" d="M31.995,15.441l.888,4.441-.142.178L29.33,17.218l-5.33-.6V14a3,3,0,0,1,5.339-1.874Z" transform="translate(-2.681 -1.229)" fill="#f2b59d"/>
      <path id="Trazado_898111" data-name="Trazado 898111" d="M25.341,25.777v.888h-.888L21.539,24.48A2.4,2.4,0,0,0,20.1,24h3.464a1.782,1.782,0,0,1,1.777,1.777Z" transform="translate(-2.245 -2.681)" fill="#ed9776"/>
      <path id="Trazado_898112" data-name="Trazado 898112" d="M25.932,28.539l-2.5-1.874L20.523,24.48A2.4,2.4,0,0,0,19.084,24H17.831a2.384,2.384,0,0,0-2.39,2.39,2.565,2.565,0,0,0,.711,1.7l-.071-.053a2.4,2.4,0,0,0-1.439-.48H13.39a2.387,2.387,0,0,0-1.466,4.273l6.351,4.939a2.643,2.643,0,0,0,4.273-2.088v-.471a2.626,2.626,0,0,0-1.022-2.088l1.022.764a3.573,3.573,0,0,0,1.794.888,2.638,2.638,0,0,0,2.647-2.647v-.471a2.634,2.634,0,0,0-1.057-2.114Z" transform="translate(-1.229 -2.681)" fill="#f2b59d"/>
      <path id="Trazado_898113" data-name="Trazado 898113" d="M16.1,1V8.106H8.106V6.33H1V1Z" transform="translate(-0.112 -0.112)" fill="#d4d4d4"/>
      <g id="Grupo_1108336" data-name="Grupo 1108336" transform="translate(4.441 27.537)">
        <path id="Trazado_898114" data-name="Trazado 898114" d="M15.66,37.058v.417a2.411,2.411,0,0,1-.711,1.706,2.487,2.487,0,0,1-3.233.2L7.692,36.294,5.844,34.873a2.158,2.158,0,0,1-.791-1.217A2.225,2.225,0,0,1,5,33.167,2.183,2.183,0,0,1,7.2,31H8.367a2.209,2.209,0,0,1,1.324.435l1.537,1.208,3.544,2.8a1.777,1.777,0,0,1,.888,1.617Z" transform="translate(-5 -31)" fill="#f2b59d"/>
        <path id="Trazado_898115" data-name="Trazado 898115" d="M27.933,32.042l-.72-.542v.46a2.638,2.638,0,0,1-2.647,2.649,3.573,3.573,0,0,1-1.794-.888l-1.022-.764a2.626,2.626,0,0,1,1.022,2.088v.009l.72.539-.72-.533v.457A2.645,2.645,0,0,1,18.5,37.6l-5.49-4.269A.252.252,0,0,1,13,33.4l2.661,2.1a1.777,1.777,0,0,1,.888,1.617v.259l3.722,2.894a2.643,2.643,0,0,0,4.273-2.088v-.471a2.626,2.626,0,0,0-1.022-2.088l1.022.764a3.573,3.573,0,0,0,1.794.888,2.638,2.638,0,0,0,2.647-2.647v-.471a2.634,2.634,0,0,0-1.057-2.114Z" transform="translate(-5.894 -31.056)" fill="#f2b59d"/>
        <path id="Trazado_898116" data-name="Trazado 898116" d="M16.778,38.772l-.888-.7v.07a2.411,2.411,0,0,1-.711,1.706,2.487,2.487,0,0,1-3.233.2L7.922,36.96,7.9,37H7.063A2.16,2.16,0,0,0,7.851,38.2L9.7,39.625l4.024,3.082a2.487,2.487,0,0,0,3.233-.2,2.411,2.411,0,0,0,.711-1.706v-.418a1.777,1.777,0,0,0-.888-1.617Z" transform="translate(-5.23 -31.666)" fill="#f2b59d"/>
      </g>
      <path id="Trazado_898117" data-name="Trazado 898117" d="M12.553,60.331c0,1.475-.8,2-1.777,2S9,61.806,9,60.331,10.777,57,10.777,57,12.553,58.857,12.553,60.331Z" transform="translate(-1.005 -6.367)" fill="#96e0ff"/>
      <path id="Trazado_898118" data-name="Trazado 898118" d="M9.888,59.443a4.53,4.53,0,0,1,.977-2.343l-.089-.1S9,58.857,9,60.331s.8,2,1.777,2a1.587,1.587,0,0,0,1.61-1.007,2.118,2.118,0,0,1-.721.119C10.688,61.441,9.888,60.917,9.888,59.443Z" transform="translate(-1.005 -6.367)" fill="#81d2f5"/>
      <path id="Trazado_898119" data-name="Trazado 898119" d="M7.245,36.628l-.027.036H3.665A2.665,2.665,0,0,0,1,39.329V37.552A3.553,3.553,0,0,1,4.553,34l.053-.009A2.158,2.158,0,0,0,5.4,35.207Z" transform="translate(-0.112 -3.797)" fill="#ed9776"/>
      <path id="Trazado_898120" data-name="Trazado 898120" d="M7.328,55.441a2.4,2.4,0,0,1-2.665,2.665A2.4,2.4,0,0,1,2,55.441C2,53.478,4.663,51,4.663,51S7.328,53.478,7.328,55.441Z" transform="translate(-0.221 -5.697)" fill="#96e0ff"/>
      <path id="Trazado_898121" data-name="Trazado 898121" d="M2.886,53.911a2.766,2.766,0,0,1,.1-.711A4.781,4.781,0,0,0,2,55.687a2.4,2.4,0,0,0,2.665,2.665A2.355,2.355,0,0,0,7.3,56.075a2.911,2.911,0,0,1-1.746.5,2.4,2.4,0,0,1-2.665-2.665Z" transform="translate(-0.221 -5.942)" fill="#81d2f5"/>
      <path id="Trazado_898122" data-name="Trazado 898122" d="M24.1,53.944a.888.888,0,0,0,.672-.862V52l-7.693,1.661a1.644,1.644,0,0,1-.622.115H15l1.481,1.481,1.184.3Z" transform="translate(-1.676 -5.808)" fill="#f2b59d"/>
      <path id="Trazado_898123" data-name="Trazado 898123" d="M20.866,49.043a1.777,1.777,0,0,0,1.459-1.749V47l-9.771,1.777H9l.711,1.777h2.843Z" transform="translate(-1.005 -5.25)" fill="#f2b59d"/>
      <path id="Trazado_898124" data-name="Trazado 898124" d="M17.348,44.069A2.1,2.1,0,0,0,19.1,42L7.553,43.777H4.888A3.249,3.249,0,0,1,4,43.661v.115l.711,1.777H8.441Z" transform="translate(-0.447 -4.691)" fill="#f2b59d"/>
      <path id="Trazado_898125" data-name="Trazado 898125" d="M48.536,50.335l11.935,3.511V50.553L45.37,47l-4.441,4.441-.569.151,5.9,2.821V52.039a1.777,1.777,0,0,1,2.278-1.7Z" transform="translate(-4.508 -5.25)" fill="#ed9776"/>
      <path id="Trazado_898126" data-name="Trazado 898126" d="M25.251,31.9l-6.728-4.708a1.753,1.753,0,0,1,1-3.189H18.39A2.384,2.384,0,0,0,16,26.39a2.565,2.565,0,0,0,.711,1.7l.009.009,5.33,4c.009.009.027.018.036.027l1.022.764a3.573,3.573,0,0,0,1.794.888,2.614,2.614,0,0,0,2.564-2.016A1.777,1.777,0,0,1,25.251,31.9Z" transform="translate(-1.787 -2.681)" fill="#f2a283"/>
      <path id="Trazado_898127" data-name="Trazado 898127" d="M13.362,38.056,6.634,33.348a1.713,1.713,0,0,1-.669-1.923A2.154,2.154,0,0,0,5,33.215a2.225,2.225,0,0,0,.053.489,2.158,2.158,0,0,0,.791,1.217l1.848,1.421,4.024,3.082a2.487,2.487,0,0,0,3.233-.2,2.416,2.416,0,0,0,.676-1.368,1.777,1.777,0,0,1-2.262.2Z" transform="translate(-0.559 -3.51)" fill="#f2a283"/>
      <path id="Trazado_898128" data-name="Trazado 898128" d="M20.251,35.963l-7.616-5.6a1.747,1.747,0,0,1-.712-1.778,2.364,2.364,0,0,0-.514.533,2.39,2.39,0,0,0,.515,3.225l6.351,4.939a2.629,2.629,0,0,0,4.189-1.457,1.777,1.777,0,0,1-2.214.135Z" transform="translate(-1.229 -3.193)" fill="#f2a283"/>
      <path id="Trazado_898129" data-name="Trazado 898129" d="M61.1,33H57.548v6.962a2.665,2.665,0,0,1-3.508,2.528l-2.025-.675A4.619,4.619,0,0,0,46,45.436l15.1,3.553Z" transform="translate(-5.138 -3.686)" fill="#f2b59d"/>
      <path id="Trazado_898130" data-name="Trazado 898130" d="M22.771,21.859H14.777a1.777,1.777,0,0,1-1.648-1.121,2.146,2.146,0,0,0-.129.7,2.2,2.2,0,0,0,2.194,2.194h7.577a1.782,1.782,0,0,1,1.777,1.777V23.636A1.777,1.777,0,0,0,22.771,21.859Z" transform="translate(-1.452 -2.316)" fill="#f2b59d"/>
      <path id="Trazado_898131" data-name="Trazado 898131" d="M18.5,24H17v.542A2.367,2.367,0,0,1,18.5,24Z" transform="translate(-1.899 -2.681)" fill="#81d2f5"/>
      <path id="Trazado_898132" data-name="Trazado 898132" d="M11.785,30.186l.027-.036a2.386,2.386,0,0,1,1.466-4.273H14.53a2.4,2.4,0,0,1,1.439.48l.071.053a2.565,2.565,0,0,1-.711-1.7,2.373,2.373,0,0,1,.888-1.848v-.542H14.859a2.193,2.193,0,0,1-.977-4.157l2.336-.817V9H10V28.822a2.194,2.194,0,0,1,.249.155Z" transform="translate(-1.117 -1.005)" fill="#96e0ff"/>
      <path id="Trazado_898133" data-name="Trazado 898133" d="M2.777,1V2.777A1.777,1.777,0,0,0,4.553,4.553H8.106V6.33H1V1Z" transform="translate(-0.112 -0.112)" fill="#bfbfbf"/>
      <path id="Trazado_898134" data-name="Trazado 898134" d="M9,8h7.995v.888H9Z" transform="translate(-1.005 -0.894)" fill="#bfbfbf"/>
      <path id="Trazado_898135" data-name="Trazado 898135" d="M13.553,10.777h2.665V9H10V28.822a2.193,2.193,0,0,1,.249.155l1.537,1.208.027-.036a2.349,2.349,0,0,1-.036-3.731V12.553a1.777,1.777,0,0,1,1.777-1.777Z" transform="translate(-1.117 -1.005)" fill="#81d2f5"/>
      <rect id="Rectángulo_403159" data-name="Rectángulo 403159" width="2" height="5" rx="1" transform="translate(12 11)" fill="#b3f5ff"/>
      <rect id="Rectángulo_403160" data-name="Rectángulo 403160" width="2" height="3" rx="1" transform="translate(12 21)" fill="#b3f5ff"/>
      <rect id="Rectángulo_403161" data-name="Rectángulo 403161" width="1" height="3" rx="0.5" transform="translate(11 15)" fill="#b3f5ff"/>
      <path id="Trazado_898136" data-name="Trazado 898136" d="M6.136,55.768c.317.073.493-.381.481-.671a1.054,1.054,0,0,0-.569-.983,1.262,1.262,0,0,0-.8-.089.591.591,0,0,0-.306.137.345.345,0,0,0-.1.341.477.477,0,0,0,.123.171l.905.916a.566.566,0,0,0,.261.178Z" transform="translate(-0.54 -6.031)" fill="#fff"/>
      <path id="Trazado_898137" data-name="Trazado 898137" d="M11.985,61.389c.158.036.246-.191.241-.336a.528.528,0,0,0-.282-.491.636.636,0,0,0-.4-.044.3.3,0,0,0-.153.068.171.171,0,0,0-.048.171.231.231,0,0,0,.062.089l.452.457a.284.284,0,0,0,.126.086Z" transform="translate(-1.266 -6.758)" fill="#fff"/>
      <path id="Trazado_898138" data-name="Trazado 898138" d="M55.963,28.426h-13L31.035,18.487l.038-.007-.888-4.441a.883.883,0,0,0-.178-.381L27.36,10.342a3.888,3.888,0,0,0-6.929,2.429v.553h1.777v-.553a2.111,2.111,0,0,1,3.759-1.319L28.485,14.6l.424,2.117-1.688-1.409a.888.888,0,0,0-.472-.2l-7.995-.888a.888.888,0,0,0-.391.044l-2.374.829V8.883a.888.888,0,0,0,.888-.888V.888A.888.888,0,0,0,15.989,0H.888V1.777H15.1v5.33H8.883V6.218a.888.888,0,0,0-.888-.888H.888V7.106H7.106v.888a.888.888,0,0,0,.888.888v10.66H9.771V8.883h4.441v6.828l-1.745.609a.888.888,0,0,0-.1.044,3.082,3.082,0,0,0,1.342,5.843,3.224,3.224,0,0,0-.382,1.5c0,.1.024.186.032.279h-1.2a3.268,3.268,0,0,0-3.235,2.879,3.1,3.1,0,0,0-1.116-.218H6.644A3.072,3.072,0,0,0,3.584,29.4,4.446,4.446,0,0,0,0,33.755v1.777a4.441,4.441,0,0,0,2.826,4.126l1.009,2.523a3.536,3.536,0,0,0,3.3,2.234h.259l.659,1.649a4.42,4.42,0,0,0,4.124,2.793h.78l1.59,1.591a3.7,3.7,0,0,0,2.6,1.074h2.043a3.677,3.677,0,0,0,.934-.121l16.53-4.353a.879.879,0,0,0,.4-.231l4.087-4.09,13.935,3.28v8.546L42.13,48.362l-.767,1.6,14.213,6.8a.888.888,0,0,0,1.276-.8V29.314a.888.888,0,0,0-.888-.888Zm-37.2-5.919,5.412,4.059a1.769,1.769,0,0,1,.7,1.406v.473A1.76,1.76,0,0,1,23.114,30.2c-.058,0-.393-.034-1.264-.711l-1.038-.774c-.007-.005-.012-.012-.02-.018l-5.229-3.925a1.478,1.478,0,0,1-.463-1.066,1.5,1.5,0,0,1,1.5-1.5h1.255a1.51,1.51,0,0,1,.9.3Zm2.561-.3a.879.879,0,0,1,.834.622Zm-9.161,3.553h1.255a1.51,1.51,0,0,1,.9.3l.169.126c.042.036.074.081.117.115l5.152,3.839a1.766,1.766,0,0,1,.68,1.385V32A1.756,1.756,0,0,1,17.6,33.385l-6.358-4.944a1.5,1.5,0,0,1,.92-2.68ZM6.644,28.426H7.807a1.332,1.332,0,0,1,.787.255l5.091,4.009c.462.341.528.5.528.9v.418a1.537,1.537,0,0,1-1.554,1.521,1.582,1.582,0,0,1-.959-.323l-5.876-4.5a1.268,1.268,0,0,1-.495-1,1.3,1.3,0,0,1,1.314-1.281ZM1.777,35.532a1.777,1.777,0,0,1,1.777-1.777h.888V31.979H3.553a3.523,3.523,0,0,0-1.291.251,2.665,2.665,0,0,1,1.666-1.088,3.027,3.027,0,0,0,.815.977l5.876,4.5a3.375,3.375,0,0,0,2.043.689,3.414,3.414,0,0,0,.439-.044L7.039,38.2h-2.6a2.665,2.665,0,0,1-2.665-2.665Zm39.289,5.353a.888.888,0,0,0-.831.237l-4.272,4.27-16.3,4.29a1.874,1.874,0,0,1-.477.062H17.144a1.907,1.907,0,0,1-1.338-.554l-.414-.414a2.577,2.577,0,0,0,.259-.066l7.635-1.65-.375-1.738-7.7,1.668a.753.753,0,0,0-.125.037.883.883,0,0,1-.311.056h-2.6A2.651,2.651,0,0,1,9.7,45.409l-.4-.994h2.241a.868.868,0,0,0,.159-.014l9.771-1.777-.318-1.748-9.692,1.762H7.134a1.766,1.766,0,0,1-1.649-1.117l-.62-1.548H7.106a.856.856,0,0,0,.135-.011l11.548-1.777-.266-1.755-5.109.789a3.3,3.3,0,0,0,2.541-2.86l.55.428A3.535,3.535,0,0,0,22.207,32v-.218a2.46,2.46,0,0,0,.907.2,3.538,3.538,0,0,0,3.535-3.534v-.473a3.553,3.553,0,0,0-1.414-2.827l-.362-.273h2.665V23.1H23.984a2.665,2.665,0,0,0-2.665-2.665H13.744a1.308,1.308,0,0,1-.629-2.454l5.642-1.97,7.529.836L42.069,30a.888.888,0,0,0,.569.206H55.075V44.181Z"/>
      <path id="Trazado_898139" data-name="Trazado 898139" d="M0,0H1.777V1.969H0Z" transform="translate(37.79 48.251) rotate(-64.46)"/>
      <path id="Trazado_898140" data-name="Trazado 898140" d="M5.156,50.238a.888.888,0,0,0-1.21,0C3.644,50.519,1,53.047,1,55.33a3.264,3.264,0,0,0,3.553,3.553A3.264,3.264,0,0,0,8.1,55.33c0-2.283-2.646-4.811-2.948-5.092Zm-.6,6.868c-1.229,0-1.777-.548-1.777-1.777,0-.911.931-2.236,1.777-3.17.76.844,1.777,2.193,1.777,3.17C6.328,56.558,5.78,57.106,4.551,57.106Z" transform="translate(-0.11 -5.585)"/>
      <path id="Trazado_898141" data-name="Trazado 898141" d="M10.02,56.276C9.813,56.493,8,58.444,8,60.221a2.576,2.576,0,0,0,2.665,2.887,2.576,2.576,0,0,0,2.665-2.887c0-1.777-1.816-3.731-2.023-3.945a.917.917,0,0,0-1.284,0Zm.642,5.055c-.449,0-.888-.089-.888-1.11a4,4,0,0,1,.888-1.94,4,4,0,0,1,.888,1.94C11.551,61.242,11.112,61.331,10.662,61.331Z" transform="translate(-0.891 -6.257)"/>
      <path id="Trazado_898142" data-name="Trazado 898142" d="M9,24h1.777v3.553H9Z" transform="translate(-1.005 -2.681)"/>
    </g>
  </g>
</svg>
