<svg xmlns="http://www.w3.org/2000/svg" xmlns:xlink="http://www.w3.org/1999/xlink" width="108.914" height="108.914" viewBox="0 0 108.914 108.914">
  <defs>
    <filter id="Trazado_874925" x="0" y="0" width="108.914" height="108.914" filterUnits="userSpaceOnUse">
      <feOffset dy="3" input="SourceAlpha"/>
      <feGaussianBlur stdDeviation="3" result="blur"/>
      <feFlood flood-opacity="0.161"/>
      <feComposite operator="in" in2="blur"/>
      <feComposite in="SourceGraphic"/>
    </filter>
  </defs>
  <g id="Grupo_1107936" data-name="Grupo 1107936" transform="translate(8.71 6.022)">
    <g id="Grupo_1107763" data-name="Grupo 1107763" transform="translate(0.289 -0.022)">
      <g transform="matrix(1, 0, 0, 1, -9, -6)" filter="url(#Trazado_874925)">
        <g id="Trazado_874925-2" data-name="Trazado 874925" transform="translate(9 6)" fill="#9ec9ff" opacity="0.859">
          <path d="M 45.45676803588867 89.41407012939453 C 39.52198028564453 89.41407012939453 33.76551818847656 88.25206756591797 28.34726715087891 85.96034240722656 C 23.11310577392578 83.74648284912109 18.41203117370605 80.57682800292969 14.37464332580566 76.5394287109375 C 10.33724308013916 72.50202941894531 7.167593002319336 67.80095672607422 4.953730583190918 62.56679534912109 C 2.662005424499512 57.14855575561523 1.500005483627319 51.39208221435547 1.500005483627319 45.45729446411133 C 1.500005483627319 39.52198028564453 2.662005424499512 33.76550674438477 4.953730583190918 28.34726905822754 C 7.167593002319336 23.11310577392578 10.33724308013916 18.41203117370605 14.37464332580566 14.37464332580566 C 18.41203117370605 10.33724403381348 23.11310577392578 7.167593955993652 28.34726715087891 4.953731060028076 C 33.76550674438477 2.662006139755249 39.52198028564453 1.500006198883057 45.45676803588867 1.500006198883057 C 51.39155578613281 1.500006198883057 57.14802932739258 2.662006139755249 62.56626892089844 4.953731060028076 C 67.80043029785156 7.167593955993652 72.50150299072266 10.33724403381348 76.53890228271484 14.37464332580566 C 80.57630920410156 18.41203117370605 83.74595642089844 23.11310577392578 85.95981597900391 28.34726905822754 C 88.25154113769531 33.76551818847656 89.41354370117188 39.52198028564453 89.41354370117188 45.45676803588867 C 89.41354370117188 51.39208221435547 88.25154113769531 57.14855575561523 85.95981597900391 62.56679534912109 C 83.74595642089844 67.80095672607422 80.57630920410156 72.50202941894531 76.53890228271484 76.5394287109375 C 72.50150299072266 80.57682800292969 67.80043029785156 83.74648284912109 62.56626892089844 85.96034240722656 C 57.14802932739258 88.25206756591797 51.39155578613281 89.41407012939453 45.45676803588867 89.41407012939453 Z" stroke="none"/>
          <path d="M 45.45676803588867 3 C 39.72381210327148 3 34.1639404296875 4.12213134765625 28.93159484863281 6.335227966308594 C 23.87622833251953 8.473472595214844 19.33542633056641 11.53517150878906 15.43529510498047 15.435302734375 C 11.53517150878906 19.33543395996094 8.473464965820312 23.87622833251953 6.335227966308594 28.93160247802734 C 4.122123718261719 34.16394424438477 3 39.72381591796875 3 45.4572868347168 C 3 51.19024658203125 4.122123718261719 56.75011825561523 6.335227966308594 61.98246002197266 C 8.473464965820312 67.03782653808594 11.53517150878906 71.57862854003906 15.43529510498047 75.478759765625 C 19.33542633056641 79.37889099121094 23.87622833251953 82.44058990478516 28.93159484863281 84.57883453369141 C 34.1639404296875 86.79193115234375 39.72381210327148 87.9140625 45.45676803588867 87.9140625 C 51.18972396850586 87.9140625 56.74959564208984 86.79193115234375 61.98194122314453 84.57883453369141 C 67.03730773925781 82.44058990478516 71.57810974121094 79.37889099121094 75.47824096679688 75.478759765625 C 79.37837219238281 71.57862854003906 82.44007110595703 67.03782653808594 84.57830810546875 61.98246002197266 C 86.79141235351562 56.75011825561523 87.91353607177734 51.19024658203125 87.91353607177734 45.4567756652832 C 87.91353607177734 39.72381591796875 86.79141235351562 34.16394424438477 84.57830810546875 28.93160247802734 C 82.44007110595703 23.87622833251953 79.37837219238281 19.33543395996094 75.47824096679688 15.435302734375 C 71.57810974121094 11.53517150878906 67.03730773925781 8.473472595214844 61.98194122314453 6.335227966308594 C 56.74959564208984 4.12213134765625 51.18972396850586 3 45.45676803588867 3 M 45.45676803588867 0 C 70.56185150146484 0 90.91353607177734 20.35169219970703 90.91353607177734 45.4567756652832 L 90.91353607177734 45.4572868347168 C 90.91353607177734 70.5623779296875 70.56185150146484 90.9140625 45.45676803588867 90.9140625 C 20.3516845703125 90.9140625 0 70.5623779296875 0 45.4572868347168 L 0 45.4567756652832 C 0 20.35169219970703 20.3516845703125 0 45.45676803588867 0 Z" stroke="none" fill="#fff"/>
        </g>
      </g>
      <g id="Trazado_874923" data-name="Trazado 874923" transform="translate(0)" fill="none">
        <path d="M45.457,0A45.457,45.457,0,0,1,90.914,45.457h0A45.457,45.457,0,0,1,0,45.457H0A45.457,45.457,0,0,1,45.457,0Z" stroke="none"/>
        <path d="M 45.45676803588867 3 C 39.72381210327148 3 34.1639404296875 4.12213134765625 28.93159484863281 6.335227966308594 C 23.87622833251953 8.473472595214844 19.33542633056641 11.53517150878906 15.43529510498047 15.435302734375 C 11.53517150878906 19.33543395996094 8.473464965820312 23.87622833251953 6.335227966308594 28.93160247802734 C 4.122123718261719 34.16394424438477 3 39.72381591796875 3 45.4572868347168 C 3 51.19024658203125 4.122123718261719 56.75011825561523 6.335227966308594 61.98246002197266 C 8.473464965820312 67.03782653808594 11.53517150878906 71.57862854003906 15.43529510498047 75.478759765625 C 19.33542633056641 79.37889099121094 23.87622833251953 82.44058990478516 28.93159484863281 84.57883453369141 C 34.1639404296875 86.79193115234375 39.72381210327148 87.9140625 45.45676803588867 87.9140625 C 51.18972396850586 87.9140625 56.74959564208984 86.79193115234375 61.98194122314453 84.57883453369141 C 67.03730773925781 82.44058990478516 71.57810974121094 79.37889099121094 75.47824096679688 75.478759765625 C 79.37837219238281 71.57862854003906 82.44007110595703 67.03782653808594 84.57830810546875 61.98246002197266 C 86.79141235351562 56.75011825561523 87.91353607177734 51.19024658203125 87.91353607177734 45.4567756652832 C 87.91353607177734 39.72381591796875 86.79141235351562 34.16394424438477 84.57830810546875 28.93160247802734 C 82.44007110595703 23.87622833251953 79.37837219238281 19.33543395996094 75.47824096679688 15.435302734375 C 71.57810974121094 11.53517150878906 67.03730773925781 8.473472595214844 61.98194122314453 6.335227966308594 C 56.74959564208984 4.12213134765625 51.18972396850586 3 45.45676803588867 3 M 45.45676803588867 0 C 70.56185150146484 0 90.91353607177734 20.35169219970703 90.91353607177734 45.4567756652832 L 90.91353607177734 45.4572868347168 C 90.91353607177734 70.5623779296875 70.56185150146484 90.9140625 45.45676803588867 90.9140625 C 20.3516845703125 90.9140625 0 70.5623779296875 0 45.4572868347168 L 0 45.4567756652832 C 0 20.35169219970703 20.3516845703125 0 45.45676803588867 0 Z" stroke="none" fill="#fff"/>
      </g>
    </g>
    <g id="tierra-para-macetas" transform="translate(24.189 17.977)">
      <path id="Trazado_898154" data-name="Trazado 898154" d="M40.129,58.605a3.719,3.719,0,0,0,3.557-2.629,68.753,68.753,0,0,0,1.127-35.728l-1.922-8.11,1.591-2.983A1.36,1.36,0,0,0,43.444,7.1a7.527,7.527,0,0,0-3.977,1.723c-2.916,2.144-6.32,2.011-9.811,2.011H24.95c-3.491,0-6.938.2-9.832-2.011a8.029,8.029,0,0,0-4.927-1.7A1.369,1.369,0,0,0,9.152,9.178l1.591,2.983L8.821,20.27A68.526,68.526,0,0,0,9.947,56a3.719,3.719,0,0,0,3.558,2.63H40.129Zm0,0" transform="translate(-5.36 -5.532)" fill="#fe8e46"/>
      <path id="Trazado_898155" data-name="Trazado 898155" d="M19.438,55.9a68.762,68.762,0,0,1-1.127-35.728l1.922-8.11-.839-1.591A9.287,9.287,0,0,1,15.218,8.7,8.027,8.027,0,0,0,10.29,7,1.369,1.369,0,0,0,9.252,9.055l1.591,2.983L8.921,20.147a68.535,68.535,0,0,0,1.127,35.728A3.719,3.719,0,0,0,13.6,58.5H23A3.7,3.7,0,0,1,19.438,55.9Zm0,0" transform="translate(-5.439 -5.453)" fill="#e56823"/>
      <path id="Trazado_898156" data-name="Trazado 898156" d="M34.769,54.619H8.166a5.256,5.256,0,0,1-5.037-3.734,70.23,70.23,0,0,1-1.15-36.546l1.79-7.534L2.444,4.331A3.05,3.05,0,0,1,2.51,1.348,2.709,2.709,0,0,1,4.83,0a9.674,9.674,0,0,1,5.877,2.033c2.254,1.724,4.95,1.724,8.087,1.7h6.143c3.181,0,5.943.022,8.263-1.7A8.527,8.527,0,0,1,38.083,0,2.709,2.709,0,0,1,40.4,1.348a3,3,0,0,1,.066,2.983L39.144,6.806l1.789,7.534a69.771,69.771,0,0,1-1.149,36.546A5.191,5.191,0,0,1,34.769,54.619ZM5.293,3.116,6.775,5.878A1.541,1.541,0,0,1,6.907,6.96L4.985,15.069A66.842,66.842,0,0,0,6.067,49.979,2.136,2.136,0,0,0,8.144,51.5h26.6a2.182,2.182,0,0,0,2.077-1.525,66.849,66.849,0,0,0,1.082-34.911L35.984,6.96a1.527,1.527,0,0,1,.132-1.082L37.575,3.16a7.23,7.23,0,0,0-2.563,1.37c-3.159,2.32-6.694,2.32-10.119,2.3H18.772c-3.38.022-6.894.022-9.987-2.342A6.407,6.407,0,0,0,5.293,3.116Zm0,0" transform="translate(0)" fill="#463218"/>
      <path id="Trazado_898157" data-name="Trazado 898157" d="M49.669,111.038a6.882,6.882,0,0,1,9.943,6.562,6.883,6.883,0,0,1-9.943-6.562Zm0,0" transform="translate(-38.608 -85.937)" fill="#7dac51"/>
      <path id="Trazado_898158" data-name="Trazado 898158" d="M107.394,101.446A8.75,8.75,0,0,0,94.756,109.8a8.749,8.749,0,0,0,12.638-8.352Zm0,0" transform="translate(-73.73 -78.313)" fill="#7dac51"/>
      <g id="Grupo_1108337" data-name="Grupo 1108337" transform="translate(9.5 20.665)">
        <path id="Trazado_898159" data-name="Trazado 898159" d="M93.2,106.8a10.246,10.246,0,0,1-4.6-1.083,1.609,1.609,0,0,1-.861-1.3A10.286,10.286,0,0,1,102.613,94.6a1.611,1.611,0,0,1,.862,1.3A10.28,10.28,0,0,1,93.2,106.8Zm-2.364-3.491a7.185,7.185,0,0,0,9.523-6.3,7.184,7.184,0,0,0-9.523,6.3Zm0,0" transform="translate(-77.763 -93.526)" fill="#463218"/>
        <path id="Trazado_898160" data-name="Trazado 898160" d="M51.075,114.4a8.338,8.338,0,0,1-4.64-1.392,8.471,8.471,0,0,1-3.779-7.535,1.55,1.55,0,0,1,.861-1.3,8.443,8.443,0,0,1,12.2,8.042,1.552,1.552,0,0,1-.862,1.3A8.534,8.534,0,0,1,51.075,114.4Zm-5.3-7.8a5.284,5.284,0,0,0,2.364,3.823,5.368,5.368,0,0,0,4.441.663,5.283,5.283,0,0,0-2.364-3.823A5.434,5.434,0,0,0,45.772,106.6Zm0,0" transform="translate(-42.642 -101.125)" fill="#463218"/>
        <path id="Trazado_898161" data-name="Trazado 898161" d="M89.254,147.863a1.537,1.537,0,0,1-1.547-1.547v-7.071a1.547,1.547,0,0,1,3.093,0v7.071A1.551,1.551,0,0,1,89.254,147.863Zm0,0" transform="translate(-77.75 -127.939)" fill="#463218"/>
        <path id="Trazado_898162" data-name="Trazado 898162" d="M79.966,172.793H72.652a1.547,1.547,0,0,1,0-3.093h7.314a1.547,1.547,0,0,1,0,3.093Zm0,0" transform="translate(-64.816 -152.869)" fill="#463218"/>
      </g>
      <path id="Trazado_898163" data-name="Trazado 898163" d="M145.413,71.565c-.243-1.259-.552-2.563-.905-3.889l2.143-.574c.354,1.37.685,2.717.928,4.021Zm0,0" transform="translate(-112.501 -52.275)" fill="#fff"/>
      <path id="Trazado_898164" data-name="Trazado 898164" d="M136.745,42.375a35.854,35.854,0,0,0-1.237-3.558L137.563,38c.022.066.6,1.48,1.281,3.734Zm0,0" transform="translate(-105.489 -29.604)" fill="#fff"/>
    </g>
  </g>
</svg>
