<svg xmlns="http://www.w3.org/2000/svg" width="85" height="85" viewBox="0 0 85 85">
  <g id="Grupo_1108045" data-name="Grupo 1108045" transform="translate(-178.045 -375)">
    <circle id="Elipse_11654" data-name="Elipse 11654" cx="42.5" cy="42.5" r="42.5" transform="translate(178.045 375)" fill="#ffcd80"/>
    <g id="almuerzo" transform="translate(186.823 335.013)">
      <g id="Grupo_1108022" data-name="Grupo 1108022" transform="translate(38.201 57.122)">
        <g id="Grupo_1108013" data-name="Grupo 1108013" transform="translate(7.786 0)">
          <path id="Trazado_896401" data-name="Trazado 896401" d="M348.342,69.717v.132h8.672a1.258,1.258,0,0,1,1.127.708L360.1,74.62l.955-1.015a1.268,1.268,0,0,1,.921-.4,1.206,1.206,0,0,1,.786.289,1.9,1.9,0,0,1,.222.229V70.2a6.567,6.567,0,0,0-6.567-6.567H350.85a3.308,3.308,0,0,0-3.108,4.441Z" transform="translate(-347.539 -63.631)" fill="#ffe177"/>
        </g>
        <g id="Grupo_1108014" data-name="Grupo 1108014" transform="translate(13.321 0)">
          <path id="Trazado_896402" data-name="Trazado 896402" d="M392.714,63.63h-3.341A6.567,6.567,0,0,1,395.94,70.2v3.471l.459.951.955-1.015a1.268,1.268,0,0,1,.921-.4,1.206,1.206,0,0,1,.786.289,1.905,1.905,0,0,1,.222.229V70.2A6.567,6.567,0,0,0,392.714,63.63Z" transform="translate(-389.373 -63.63)" fill="#ffd15b"/>
        </g>
        <path id="Trazado_896403" data-name="Trazado 896403" d="M354.563,229.331a4.892,4.892,0,0,1-5.071-.074v.123a2.5,2.5,0,1,1-5,0v-.267h-1.64a5.048,5.048,0,0,0-5.05,5.048v15.083h20.337V234.165A5.056,5.056,0,0,0,354.563,229.331Z" transform="translate(-331.309 -207.216)" fill="#bd80e1"/>
        <path id="Trazado_896404" data-name="Trazado 896404" d="M454.76,230.758a4.872,4.872,0,0,1-1.476.569,5.051,5.051,0,0,1,2.344,4.265v15.079h2.713V235.593A5.056,5.056,0,0,0,454.76,230.758Z" transform="translate(-431.506 -208.644)" fill="#af66da"/>
        <g id="Grupo_1108015" data-name="Grupo 1108015" transform="translate(0 30.152)">
          <path id="Trazado_896405" data-name="Trazado 896405" d="M295.538,292.639l.169-.418a2.109,2.109,0,0,0-3.239.077,2.116,2.116,0,1,0-3.306,2.641h5.444l.152-.376A3.985,3.985,0,0,1,295.538,292.639Z" transform="translate(-288.697 -291.501)" fill="#05e39c"/>
        </g>
        <g id="Grupo_1108016" data-name="Grupo 1108016" transform="translate(18.051 13.53)">
          <path id="Trazado_896406" data-name="Trazado 896406" d="M430.1,165.88a1.883,1.883,0,0,1-1.257.482h-1.526v.552a4.918,4.918,0,0,1-2.141,4.057l-.058.039v3.3a4.9,4.9,0,1,0,4.982-8.429Z" transform="translate(-425.118 -165.88)" fill="#ffe177"/>
        </g>
        <g id="Grupo_1108017" data-name="Grupo 1108017" transform="translate(19.12 13.53)">
          <path id="Trazado_896407" data-name="Trazado 896407" d="M437.109,165.88a1.883,1.883,0,0,1-1.257.482h-1.318a4.9,4.9,0,0,1-1.338,8.484,4.9,4.9,0,0,0,3.913-8.966Z" transform="translate(-433.196 -165.88)" fill="#ffd15b"/>
        </g>
        <g id="Grupo_1108018" data-name="Grupo 1108018" transform="translate(13.188 18.565)">
          <path id="Trazado_896408" data-name="Trazado 896408" d="M390.513,204.85h-1.7c-.151,0-.3-.008-.448-.021v2.706a2.5,2.5,0,0,0,5,0v-3.6A4.887,4.887,0,0,1,390.513,204.85Z" transform="translate(-388.367 -203.936)" fill="#f89580"/>
        </g>
        <g id="Grupo_1108019" data-name="Grupo 1108019" transform="translate(8.589 6.086)">
          <path id="Trazado_896409" data-name="Trazado 896409" d="M363.526,110.408,365.4,114.3l.823-.875a1.374,1.374,0,0,1,1.889-.12,2.021,2.021,0,0,1,.707,1.538v.818a2.025,2.025,0,0,1-2.025,2.025H365.4v.42a5.048,5.048,0,0,1-5.048,5.048h-1.7a5.048,5.048,0,0,1-5.048-5.048v-8.478h8.672A1.384,1.384,0,0,1,363.526,110.408Z" transform="translate(-353.608 -109.625)" fill="#ffcebf"/>
        </g>
        <g id="Grupo_1108021" data-name="Grupo 1108021" transform="translate(13.379 6.427)">
          <g id="Grupo_1108020" data-name="Grupo 1108020">
            <path id="Trazado_896410" data-name="Trazado 896410" d="M399.52,115.538a1.374,1.374,0,0,0-1.889.12l-.823.875-1.875-3.889a1.38,1.38,0,0,0-.339-.442v8.137a5.048,5.048,0,0,1-4.789,5.041q.128.006.258.006h1.7a5.048,5.048,0,0,0,5.048-5.048v-.42H398.2a2.025,2.025,0,0,0,2.025-2.025v-.818A2.021,2.021,0,0,0,399.52,115.538Z" transform="translate(-389.804 -112.202)" fill="#ffb09e"/>
          </g>
        </g>
      </g>
      <path id="Trazado_896411" data-name="Trazado 896411" d="M70.471,63.63h-9.22a4.43,4.43,0,0,0-4.43,4.43v5.349l.017-.016a1.374,1.374,0,0,1,1.889.12l.823.875L61.425,70.5a1.384,1.384,0,0,1,1.246-.783h8.672l1.16-3.182A2.163,2.163,0,0,0,70.471,63.63Z" transform="translate(-49.302 -6.508)" fill="#554e56"/>
      <path id="Trazado_896412" data-name="Trazado 896412" d="M137.99,63.63h-3.353a2.163,2.163,0,0,1,2.032,2.9l-1.16,3.182h3.353l1.16-3.182A2.163,2.163,0,0,0,137.99,63.63Z" transform="translate(-116.822 -6.508)" fill="#433f43"/>
      <path id="Trazado_896413" data-name="Trazado 896413" d="M48.192,169v7.959H35.228v.262a2.5,2.5,0,1,1-5,0v-.262H24.825a4.327,4.327,0,0,0-4.325,4.326v15.8H43.221V182.1h7.6a1.985,1.985,0,0,0,1.985-1.985V169Z" transform="translate(-17.787 -97.935)" fill="#ffe177"/>
      <g id="Grupo_1108024" data-name="Grupo 1108024" transform="translate(30.852 71.065)">
        <g id="Grupo_1108023" data-name="Grupo 1108023" transform="translate(0 0)">
          <path id="Trazado_896414" data-name="Trazado 896414" d="M235.144,169v11.115a1.985,1.985,0,0,1-1.985,1.985h2.183a1.985,1.985,0,0,0,1.985-1.985V169Z" transform="translate(-233.159 -169)" fill="#ffd15b"/>
        </g>
      </g>
      <g id="Grupo_1108025" data-name="Grupo 1108025" transform="translate(15.088 85.97)">
        <path id="Trazado_896415" data-name="Trazado 896415" d="M119.032,285.067a1.981,1.981,0,0,1,.79-1.582l.029-.185a4.779,4.779,0,0,0-.326-.362c-1.473-1.473-3.609-1.724-4.772-.561a3.2,3.2,0,0,0-.056,4.012h4.666l.029-.184A1.958,1.958,0,0,1,119.032,285.067Z" transform="translate(-114.024 -281.646)" fill="#f6a96c"/>
      </g>
      <g id="Grupo_1108026" data-name="Grupo 1108026" transform="translate(48.079 86.5)">
        <path id="Trazado_896416" data-name="Trazado 896416" d="M369.766,289.859a3.034,3.034,0,0,0-.352-3.483c-1.163-1.163-3.3-.911-4.772.561a4.185,4.185,0,0,0-1.291,2.921Z" transform="translate(-363.351 -285.646)" fill="#ea9b58"/>
      </g>
      <g id="Grupo_1108027" data-name="Grupo 1108027" transform="translate(44.109 86.5)">
        <path id="Trazado_896417" data-name="Trazado 896417" d="M339.766,289.859a3.034,3.034,0,0,0-.352-3.483c-1.163-1.163-3.3-.911-4.772.561a4.185,4.185,0,0,0-1.291,2.921Z" transform="translate(-333.351 -285.646)" fill="#f6a96c"/>
      </g>
      <g id="Grupo_1108028" data-name="Grupo 1108028" transform="translate(19.964 87.274)">
        <path id="Trazado_896418" data-name="Trazado 896418" d="M161.26,294.939a2.116,2.116,0,1,0-3.306-2.641,2.114,2.114,0,0,0-3.308,0,2.116,2.116,0,1,0-3.306,2.641Z" transform="translate(-150.875 -291.5)" fill="#05e39c"/>
      </g>
      <g id="Grupo_1108029" data-name="Grupo 1108029" transform="translate(12.445 76.225)">
        <path id="Trazado_896419" data-name="Trazado 896419" d="M95.677,208.372a3.666,3.666,0,0,1-1.622-.377v3.061a2.5,2.5,0,1,0,5,0v-2.684Z" transform="translate(-94.055 -207.995)" fill="#f89580"/>
      </g>
      <g id="Grupo_1108030" data-name="Grupo 1108030" transform="translate(6.828 63.208)">
        <path id="Trazado_896420" data-name="Trazado 896420" d="M56.9,110.408,55.02,114.3l-.823-.875a1.374,1.374,0,0,0-1.889-.12,2.021,2.021,0,0,0-.707,1.538v.818a2.025,2.025,0,0,0,2.025,2.025H55.02v1.647a3.82,3.82,0,0,0,3.82,3.82h4.153a3.82,3.82,0,0,0,3.82-3.82v-9.705H58.141A1.384,1.384,0,0,0,56.9,110.408Z" transform="translate(-51.601 -109.625)" fill="#ffcebf"/>
      </g>
      <g id="Grupo_1108031" data-name="Grupo 1108031" transform="translate(14.837 63.209)">
        <path id="Trazado_896421" data-name="Trazado 896421" d="M115.948,109.626v9.7a3.82,3.82,0,0,1-3.82,3.82h3.383a3.82,3.82,0,0,0,3.82-3.82v-9.7Z" transform="translate(-112.128 -109.626)" fill="#ffb09e"/>
      </g>
      <path id="Trazado_896422" data-name="Trazado 896422" d="M298.625,320.528h5.1a8.956,8.956,0,0,0,.945-3.624.4.4,0,0,0-.4-.414H287.062a.4.4,0,0,0-.4.414,9.017,9.017,0,0,0,6.209,8.155h3.589v-2.368A2.163,2.163,0,0,1,298.625,320.528Z" transform="translate(-248.732 -225.909)" fill="#eaf6ff"/>
      <g id="Grupo_1108032" data-name="Grupo 1108032" transform="translate(51.6 90.581)">
        <path id="Trazado_896423" data-name="Trazado 896423" d="M390.9,316.9a8.956,8.956,0,0,1-.945,3.624h3.4a8.956,8.956,0,0,0,.945-3.624.4.4,0,0,0-.4-.414h-3.4A.4.4,0,0,1,390.9,316.9Z" transform="translate(-389.96 -316.49)" fill="#d8ecfe"/>
      </g>
      <g id="Grupo_1108033" data-name="Grupo 1108033" transform="translate(47.729 94.619)">
        <path id="Trazado_896424" data-name="Trazado 896424" d="M365.457,347.008h-2.584a2.163,2.163,0,0,0-2.163,2.163v2.368h4.747Z" transform="translate(-360.71 -347.008)" fill="#ffcebf"/>
      </g>
      <path id="Trazado_896425" data-name="Trazado 896425" d="M123.008,316.49H105.795a.4.4,0,0,0-.4.414,8.958,8.958,0,0,0,.945,3.624h3.18a2.163,2.163,0,0,1,2.163,2.163v2.368H117.2a9.017,9.017,0,0,0,6.209-8.155A.4.4,0,0,0,123.008,316.49Z" transform="translate(-91.451 -225.909)" fill="#eaf6ff"/>
      <g id="Grupo_1108034" data-name="Grupo 1108034" transform="translate(22.386 90.581)">
        <path id="Trazado_896426" data-name="Trazado 896426" d="M178.35,316.49h-3.36a.4.4,0,0,1,.4.414,9.017,9.017,0,0,1-6.209,8.155h3.36a9.017,9.017,0,0,0,6.209-8.155A.4.4,0,0,0,178.35,316.49Z" transform="translate(-169.178 -316.49)" fill="#d8ecfe"/>
      </g>
      <g id="Grupo_1108036" data-name="Grupo 1108036" transform="translate(15.488 94.619)">
        <g id="Grupo_1108035" data-name="Grupo 1108035">
          <path id="Trazado_896427" data-name="Trazado 896427" d="M119.631,347.008h-2.584v4.531h4.747v-2.368a2.163,2.163,0,0,0-2.163-2.163Z" transform="translate(-117.047 -347.008)" fill="#ffcebf"/>
        </g>
      </g>
      <g id="Grupo_1108038" data-name="Grupo 1108038" transform="translate(30.405 66.831)">
        <g id="Grupo_1108037" data-name="Grupo 1108037" transform="translate(0 0)">
          <path id="Trazado_896428" data-name="Trazado 896428" d="M229.782,138.985v2.382H234.4v-2.382A1.985,1.985,0,0,0,232.412,137h-.645A1.985,1.985,0,0,0,229.782,138.985Z" transform="translate(-229.782 -137)" fill="#ffcebf"/>
        </g>
      </g>
      <g id="Grupo_1108039" data-name="Grupo 1108039" transform="translate(31.621 66.831)">
        <path id="Trazado_896429" data-name="Trazado 896429" d="M240.385,137h-.645a1.978,1.978,0,0,0-.769.155,1.985,1.985,0,0,1,1.216,1.83v2.382h2.183v-2.382A1.985,1.985,0,0,0,240.385,137Z" transform="translate(-238.971 -137)" fill="#ffb09e"/>
      </g>
      <g id="Grupo_1108040" data-name="Grupo 1108040" transform="translate(4.165 103.212)">
        <path id="Trazado_896430" data-name="Trazado 896430" d="M31.478,411.947V416.1a.662.662,0,0,0,.662.662H90.234a.662.662,0,0,0,.662-.662v-4.158Z" transform="translate(-31.478 -411.947)" fill="#ffe5c2"/>
      </g>
      <g id="Grupo_1108041" data-name="Grupo 1108041" transform="translate(57.692 103.212)">
        <path id="Trazado_896431" data-name="Trazado 896431" d="M436.662,411.947V416.1a.662.662,0,0,1-.662.662h5.23a.662.662,0,0,0,.662-.662v-4.158Z" transform="translate(-436 -411.947)" fill="#fed2a4"/>
      </g>
      <g id="Grupo_1108042" data-name="Grupo 1108042" transform="translate(0.992 99.018)">
        <path id="Trazado_896432" data-name="Trazado 896432" d="M72.6,384.576H8.162a.662.662,0,0,1-.662-.662v-3a.662.662,0,0,1,.662-.662H72.6a.662.662,0,0,1,.662.662v3A.662.662,0,0,1,72.6,384.576Z" transform="translate(-7.5 -380.25)" fill="#f6a96c"/>
      </g>
      <g id="Grupo_1108043" data-name="Grupo 1108043" transform="translate(0.992 99.018)">
        <path id="Trazado_896433" data-name="Trazado 896433" d="M72.6,380.25H67.9v1.423a.662.662,0,0,1-.662.662H7.5v1.581a.662.662,0,0,0,.662.662H72.6a.662.662,0,0,0,.662-.662v-3A.662.662,0,0,0,72.6,380.25Z" transform="translate(-7.5 -380.25)" fill="#ea9b58"/>
      </g>
      <g id="Grupo_1108044" data-name="Grupo 1108044" transform="translate(0 56.13)">
        <path id="Trazado_896434" data-name="Trazado 896434" d="M402.774,135.319a.992.992,0,0,0,.992-.992v-1.194a.992.992,0,0,0-1.985,0v1.194A.992.992,0,0,0,402.774,135.319Z" transform="translate(-348.618 -122.082)"/>
        <path id="Trazado_896435" data-name="Trazado 896435" d="M371.05,134.327v-1.194a.992.992,0,1,0-1.985,0v1.194a.992.992,0,1,0,1.985,0Z" transform="translate(-320.23 -122.082)"/>
        <path id="Trazado_896436" data-name="Trazado 896436" d="M374.243,167.219a2.986,2.986,0,0,0,2.036-.841,2.365,2.365,0,0,0,.767-1.7.992.992,0,0,0-.992-.99h0a.992.992,0,0,0-.99,1,.476.476,0,0,1-.164.264.982.982,0,0,1-.675.281h-.068a.989.989,0,0,1-.675-.281.475.475,0,0,1-.164-.265.992.992,0,0,0-.99-.995h0a.992.992,0,0,0-.992.99,2.366,2.366,0,0,0,.768,1.7,2.969,2.969,0,0,0,2.09.84Z" transform="translate(-322.197 -149.46)"/>
        <path id="Trazado_896437" data-name="Trazado 896437" d="M104.384,135.319a.992.992,0,0,0,.992-.992v-1.194a.992.992,0,0,0-1.985,0v1.194A.992.992,0,0,0,104.384,135.319Z" transform="translate(-89.711 -122.082)"/>
        <path id="Trazado_896438" data-name="Trazado 896438" d="M137.1,135.319a.992.992,0,0,0,.992-.992v-1.194a.992.992,0,0,0-1.985,0v1.194A.992.992,0,0,0,137.1,135.319Z" transform="translate(-118.098 -122.082)"/>
        <path id="Trazado_896439" data-name="Trazado 896439" d="M106.65,163.692a.992.992,0,0,0-.992.99,2.365,2.365,0,0,0,.767,1.7,2.987,2.987,0,0,0,2.036.841h.054a2.972,2.972,0,0,0,2.09-.841,2.366,2.366,0,0,0,.767-1.7.992.992,0,0,0-.992-.99h0a.992.992,0,0,0-.99,1,.476.476,0,0,1-.164.264.982.982,0,0,1-.675.281h-.067a.989.989,0,0,1-.675-.281.476.476,0,0,1-.164-.264.992.992,0,0,0-.99-1Z" transform="translate(-91.677 -149.459)"/>
        <path id="Trazado_896440" data-name="Trazado 896440" d="M66.094,98.025h-.066V84.071a6.044,6.044,0,0,0-2.734-5.055,5.88,5.88,0,0,0-.561-8.55,3,3,0,0,0,.261-1.226v-.818a3.013,3.013,0,0,0-.572-1.766V63.689a7.568,7.568,0,0,0-7.559-7.559H49.3a4.3,4.3,0,0,0-4.04,5.774l.54,1.48v8.3a6.05,6.05,0,0,0,4.6,5.865v.475h-.65a6.04,6.04,0,0,0-6.04,6.04v2.218l-.081,0a3.093,3.093,0,0,0-1.654.476,3.1,3.1,0,0,0-4.687,3.306,1.393,1.393,0,0,0-.345.977,9.975,9.975,0,0,0,.507,2.72.992.992,0,1,0,1.882-.631,7.982,7.982,0,0,1-.353-1.556H54.9a7.984,7.984,0,0,1-.539,2.053H49.893a3.159,3.159,0,0,0-3.156,3.156v1.243H43.954a7.986,7.986,0,0,1-2.347-1.452.992.992,0,0,0-1.351,1.452H29.635a9.977,9.977,0,0,0,3.311-6.985A1.386,1.386,0,0,0,31.8,89.611c.005-.073.009-.146.009-.22a3.11,3.11,0,0,0-4.764-2.634,3.075,3.075,0,0,0-.617-.3v-1.3h6.609a2.981,2.981,0,0,0,2.977-2.977V68.816a2.985,2.985,0,0,0-.042-.494L41.291,63a.992.992,0,0,0-1.4-1.4l-4.94,4.94a2.984,2.984,0,0,0-.812-.486l5.156-5.156a.992.992,0,1,0-1.4-1.4l-6.533,6.533a2.982,2.982,0,0,0-1.943,2.792v9.216H26.993a.992.992,0,0,0,0,1.985H30.4a.992.992,0,0,0,.992-.992V72.19h2.63v9.99a.993.993,0,0,1-.992.992h-7.6a.992.992,0,0,0-.992.992v2.266a3.082,3.082,0,0,0-.706.327,3.113,3.113,0,0,0-2.586-.333C19.3,84.693,16.625,84.491,15.117,86a3.791,3.791,0,0,0-.9,3.6,1.388,1.388,0,0,0-1.262,1.445,9.982,9.982,0,0,0,.464,2.586H8.681V86.11a.992.992,0,0,0-1.985,0v7.847A1.656,1.656,0,0,0,8.35,95.611h6.278v2.414H3.7V83.351a3.338,3.338,0,0,1,3.333-3.334h4.493a3.49,3.49,0,0,0,6.825,0h4.006a.992.992,0,0,0,0-1.985H18.433v-.311a4.818,4.818,0,0,0,4.6-4.807v-9.53l1.1-3.017a3.156,3.156,0,0,0-2.965-4.237h-9.22a5.429,5.429,0,0,0-5.422,5.423V66.5a3.014,3.014,0,0,0-.691,1.921v.818a3.021,3.021,0,0,0,3.018,3.018h.4v.655a4.812,4.812,0,0,0,2.2,4.037v1.081H7.037A5.326,5.326,0,0,0,1.72,83.351V98.025H1.654A1.656,1.656,0,0,0,0,99.679v3a1.656,1.656,0,0,0,1.654,1.654H3.173v3.033a1.656,1.656,0,0,0,1.654,1.654H48.3a.992.992,0,0,0,0-1.985H5.158v-2.7H62.59v2.7H52.928a.992.992,0,1,0,0,1.985h9.993a1.656,1.656,0,0,0,1.654-1.654v-3.033h1.519a1.656,1.656,0,0,0,1.654-1.654v-3a1.656,1.656,0,0,0-1.654-1.654ZM31.4,70.2V68.816a.993.993,0,0,1,.992-.992h.645a.993.993,0,0,1,.992.992V70.2ZM16.448,79.286a1.505,1.505,0,1,1-3.011,0v-1.6a4.816,4.816,0,0,0,.629.042h2.381ZM8.511,61.553a3.442,3.442,0,0,1,3.438-3.438h9.22a1.171,1.171,0,0,1,1.1,1.572l-.922,2.529H13.368a2.389,2.389,0,0,0-2.14,1.344h0l-1.253,2.6a2.377,2.377,0,0,0-1.464-.586V61.553Zm2.728,11.361V71.266a.992.992,0,0,0-.992-.992H8.853A1.034,1.034,0,0,1,7.82,69.241v-.818a1.032,1.032,0,0,1,.361-.784.347.347,0,0,1,.227-.082.4.4,0,0,1,.293.128l.823.875a.992.992,0,0,0,1.617-.249l1.875-3.889h0a.393.393,0,0,1,.352-.221h7.679v8.713a2.831,2.831,0,0,1-2.828,2.828H14.067A2.831,2.831,0,0,1,11.239,72.914Zm51.65,2.092a3.908,3.908,0,0,1-5.513,3.567V76.343a6.036,6.036,0,0,0,2.172-4.084h.428a3,3,0,0,0,1.4-.343A3.9,3.9,0,0,1,62.889,75.005ZM47.484,62.216l-.362-.992A2.316,2.316,0,0,1,49.3,58.115h5.566a5.581,5.581,0,0,1,5.574,5.574v1.883a2.376,2.376,0,0,0-1.583.588L57.6,63.56a2.39,2.39,0,0,0-2.14-1.344Zm.3,9.47V64.2h7.679a.393.393,0,0,1,.352.221l1.875,3.889a.992.992,0,0,0,1.617.249l.823-.875a.382.382,0,0,1,.52-.046,1.033,1.033,0,0,1,.361.784v.818a1.034,1.034,0,0,1-1.033,1.033H58.583a.992.992,0,0,0-.992.992v.42a4.06,4.06,0,0,1-4.055,4.055h-1.7A4.06,4.06,0,0,1,47.782,71.686Zm7.61,5.747v1.853a1.505,1.505,0,1,1-3.011,0v-1.56h1.154A6.019,6.019,0,0,0,55.392,77.433ZM43.256,89.589H39.212a1.123,1.123,0,0,1,1.985-.9.993.993,0,0,0,.775.373h0a.993.993,0,0,0,.775-.373,1.12,1.12,0,0,1,.879-.425,1.138,1.138,0,0,1,.162.012,5.144,5.144,0,0,0-.532,1.31Zm6.6,0h-4.51a3.621,3.621,0,0,1,.754-1.095c1.065-1.065,2.608-1.322,3.368-.561a1.8,1.8,0,0,1,.388,1.656Zm3.97,0H51.862a3.945,3.945,0,0,0-.273-2,1.87,1.87,0,0,1,1.851.34,1.8,1.8,0,0,1,.388,1.656Zm-.491,6.023h6.278a1.656,1.656,0,0,0,1.654-1.654V86.11a.992.992,0,1,0-1.985,0v7.516H56.467a9.987,9.987,0,0,0,.464-2.586,1.388,1.388,0,0,0-1.1-1.421,3.688,3.688,0,0,0-.986-3.09,4.039,4.039,0,0,0-4.65-.523,4.4,4.4,0,0,0-4.5.3V84.067a4.055,4.055,0,0,1,4.055-4.055h.726a3.489,3.489,0,0,0,6.646.588,5.883,5.883,0,0,0,4.414-.281,4.067,4.067,0,0,1,2.51,3.753V98.025H53.337Zm-4.615,1.171a1.172,1.172,0,0,1,1.171-1.171h1.459v2.414h-2.63ZM22.081,88.267a1.12,1.12,0,0,1,.879.425.992.992,0,0,0,1.551,0,1.122,1.122,0,0,1,1.757,0,.992.992,0,0,0,1.551,0,1.122,1.122,0,0,1,1.985.9H20.975a1.119,1.119,0,0,1,1.106-1.322ZM16.52,87.4a2.353,2.353,0,0,1,2.993.236,3.091,3.091,0,0,0-.542,1.752c0,.066,0,.132.007.2H16.288A1.994,1.994,0,0,1,16.52,87.4Zm14.391,4.17a8.008,8.008,0,0,1-4.976,6.452H21.227V96.782a3.159,3.159,0,0,0-3.156-3.156H15.53a7.982,7.982,0,0,1-.539-2.053H30.911ZM19.243,96.782v1.243h-2.63V95.611h1.459A1.172,1.172,0,0,1,19.243,96.782Zm46.521,5.57H1.985V100.01H65.763Z" transform="translate(0 -56.13)"/>
      </g>
    </g>
  </g>
</svg>
