<svg xmlns="http://www.w3.org/2000/svg" width="68" height="68" viewBox="0 0 68 68">
  <g id="Grupo_1108052" data-name="Grupo 1108052" transform="translate(0.265)">
    <circle id="Elipse_11655" data-name="Elipse 11655" cx="34" cy="34" r="34" transform="translate(-0.265)" fill="#ffcd80"/>
    <g id="cocinero" transform="translate(11.999 8)">
      <path id="Trazado_896482" data-name="Trazado 896482" d="M208.979,416.258a7.73,7.73,0,0,0-7.687,7.755v1.146h15.374v-1.146A7.73,7.73,0,0,0,208.979,416.258Z" transform="translate(-184.027 -374.27)" fill="#d2dff7"/>
      <path id="Trazado_896483" data-name="Trazado 896483" d="M208.979,416.258a7.73,7.73,0,0,0-7.687,7.755v1.146h3.79v-3.687a3.042,3.042,0,0,1,.475-1.629,7.7,7.7,0,0,1,4.949-3.43A7.626,7.626,0,0,0,208.979,416.258Z" transform="translate(-184.027 -374.27)" fill="#adc0ed"/>
      <circle id="Elipse_11660" data-name="Elipse 11660" cx="7.565" cy="7.565" r="7.565" transform="translate(0 29.614) rotate(-45)" fill="#cb5935"/>
      <circle id="Elipse_11661" data-name="Elipse 11661" cx="3.641" cy="3.641" r="3.641" transform="translate(7.474 25.076)" fill="#ffbf9d"/>
      <circle id="Elipse_11662" data-name="Elipse 11662" cx="3.641" cy="3.641" r="3.641" transform="translate(35.148 25.076)" fill="#ffbf9d"/>
      <path id="Trazado_896484" data-name="Trazado 896484" d="M151.615,168.265a14.713,14.713,0,1,0-4.1.584A14.645,14.645,0,0,0,151.615,168.265Z" transform="translate(-122.508 -125.492)" fill="#ffd4bd"/>
      <path id="Trazado_896485" data-name="Trazado 896485" d="M137.725,154.21a14.642,14.642,0,0,1,12.213-14.438,14.639,14.639,0,1,0,0,28.875,14.642,14.642,0,0,1-12.213-14.438Z" transform="translate(-122.508 -125.492)" fill="#ffbf9d"/>
      <path id="Trazado_896486" data-name="Trazado 896486" d="M153.559,150.568a11.42,11.42,0,0,0,8.591,3.642,14.639,14.639,0,1,0-29.278,0v0A28.388,28.388,0,0,0,153.559,150.568Z" transform="translate(-122.508 -125.492)" fill="#dd6642"/>
      <path id="Trazado_896487" data-name="Trazado 896487" d="M149.935,139.773a14.642,14.642,0,0,0-17.063,14.438v0a28.373,28.373,0,0,0,4.865.577c-.007-.192-.012-.385-.012-.579A14.642,14.642,0,0,1,149.935,139.773Z" transform="translate(-122.508 -125.492)" fill="#cb5935"/>
      <path id="Trazado_896488" data-name="Trazado 896488" d="M162.181,7.5H139.853a3.026,3.026,0,0,0-3.026,3.026V31.822a35.527,35.527,0,0,1,28.38,0V10.528A3.026,3.026,0,0,0,162.181,7.5Z" transform="translate(-126.064 -6.745)" fill="#d2dff7"/>
      <g id="Grupo_1108051" data-name="Grupo 1108051" transform="translate(10.762 0.757)">
        <path id="Trazado_896489" data-name="Trazado 896489" d="M144.938,7.5h-5.092a3.026,3.026,0,0,0-3.026,3.026V31.82a35.52,35.52,0,0,1,5.465-1.869V13.905A9.059,9.059,0,0,1,144.938,7.5Z" transform="translate(-136.82 -7.5)" fill="#adc0ed"/>
        <path id="Trazado_896490" data-name="Trazado 896490" d="M177.512,56A1.513,1.513,0,0,0,176,57.514V68.941a1.513,1.513,0,1,0,3.026,0V57.514A1.513,1.513,0,0,0,177.512,56Z" transform="translate(-172.047 -51.109)" fill="#adc0ed"/>
        <path id="Trazado_896491" data-name="Trazado 896491" d="M264.013,56a1.513,1.513,0,0,0-1.513,1.513V68.941a1.513,1.513,0,1,0,3.026,0V57.514A1.513,1.513,0,0,0,264.013,56Z" transform="translate(-249.823 -51.109)" fill="#adc0ed"/>
        <path id="Trazado_896492" data-name="Trazado 896492" d="M350.515,56A1.513,1.513,0,0,0,349,57.514V68.941a1.513,1.513,0,1,0,3.026,0V57.514A1.513,1.513,0,0,0,350.515,56Z" transform="translate(-327.599 -51.109)" fill="#adc0ed"/>
      </g>
      <path id="Trazado_896493" data-name="Trazado 896493" d="M187.537,322.428a2.329,2.329,0,1,1-2.264-1.814A2.078,2.078,0,0,1,187.537,322.428Z" transform="translate(-167.578 -288.273)" fill="#ff8e9e"/>
      <path id="Trazado_896494" data-name="Trazado 896494" d="M327,322.847a2.329,2.329,0,1,0,2.275-1.8,2.078,2.078,0,0,0-2.275,1.8Z" transform="translate(-297.054 -288.663)" fill="#ff8e9e"/>
      <path id="Trazado_896495" data-name="Trazado 896495" d="M206.757,301a.757.757,0,0,0-.757.757v1.009a.757.757,0,1,0,1.513,0v-1.009A.757.757,0,0,0,206.757,301Z" transform="translate(-188.26 -270.638)"/>
      <path id="Trazado_896496" data-name="Trazado 896496" d="M334.757,301a.757.757,0,0,0-.757.757v1.009a.757.757,0,0,0,1.513,0v-1.009A.757.757,0,0,0,334.757,301Z" transform="translate(-303.349 -270.638)"/>
      <path id="Trazado_896497" data-name="Trazado 896497" d="M258.809,329.072a.756.756,0,0,0-1.009.356,1.039,1.039,0,0,1-1.863,0,.756.756,0,0,0-1.365.653,2.552,2.552,0,0,0,4.593,0A.756.756,0,0,0,258.809,329.072Z" transform="translate(-231.866 -295.812)"/>
      <path id="Trazado_896498" data-name="Trazado 896498" d="M94.532,28.718a4.378,4.378,0,0,0-3.288-4.256V3.783A3.787,3.787,0,0,0,87.461,0H65.133a3.787,3.787,0,0,0-3.783,3.783V21.325a8.317,8.317,0,0,0-4.925,14.422.757.757,0,0,0,1.023-1.115,6.805,6.805,0,0,1,3.9-11.79v1.619a4.4,4.4,0,0,0,.15,8.548,15.253,15.253,0,0,0,1.424,3.357,6.773,6.773,0,0,1-3.16-.335.757.757,0,1,0-.509,1.425,8.3,8.3,0,0,0,4.561.289,15.422,15.422,0,0,0,7.129,5.418,8.527,8.527,0,0,0-3.093,6.579v1.146a.757.757,0,0,0,.757.757H83.984a.756.756,0,0,0,.757-.757V49.743a8.553,8.553,0,0,0-.347-2.417.757.757,0,0,0-1.452.427,7.045,7.045,0,0,1,.285,1.99v.39H73.156V47.2a2.282,2.282,0,0,1,.357-1.224,6.581,6.581,0,0,1,1.892-1.884c.3.017.593.026.891.027a15.39,15.39,0,0,0,3.516-.4,6.963,6.963,0,0,1,1.873,1.632.757.757,0,1,0,1.18-.947,8.525,8.525,0,0,0-1.219-1.238,15.435,15.435,0,0,0,9.447-10.154,4.378,4.378,0,0,0,3.438-4.292Zm-4.366-.763a10.841,10.841,0,0,1-7.238-3.371.757.757,0,0,0-.973-.152A27.516,27.516,0,0,1,62.421,28.1a13.93,13.93,0,0,1,.332-2.473,34.876,34.876,0,0,1,27.086,0A13.927,13.927,0,0,1,90.166,27.955ZM62.864,3.783a2.272,2.272,0,0,1,2.27-2.27H87.461a2.272,2.272,0,0,1,2.27,2.27V23.941a36.412,36.412,0,0,0-26.867,0Zm9.373,41.384a3.793,3.793,0,0,0-.593,2.035v2.931H69.367v-.39a7.009,7.009,0,0,1,3.415-6.027q.274.064.549.118a7.2,7.2,0,0,0-1.094,1.333ZM76.3,42.608h0A13.936,13.936,0,0,1,62.7,31.567a.757.757,0,0,0-1.4-.208,2.889,2.889,0,0,1-.189-5.193,15.427,15.427,0,0,0-.213,2.551.759.759,0,0,0,.608.742,29.283,29.283,0,0,0,5.963.615,29.012,29.012,0,0,0,14.764-4.042,12.233,12.233,0,0,0,7.937,3.442A13.885,13.885,0,0,1,76.3,42.608ZM91.49,31.267a15.534,15.534,0,0,0,.21-2.549s0,0,0-.006a15.483,15.483,0,0,0-.213-2.546,2.89,2.89,0,0,1,0,5.1Z" transform="translate(-51.345)"/>
      <path id="Trazado_896499" data-name="Trazado 896499" d="M184.256,48.5a.757.757,0,1,0,0,1.513.757.757,0,0,1,.757.757V62.2a.751.751,0,0,1-.124.414.757.757,0,0,0,1.264.832,2.261,2.261,0,0,0,.374-1.247V50.771A2.272,2.272,0,0,0,184.256,48.5Z" transform="translate(-168.029 -43.609)"/>
      <path id="Trazado_896500" data-name="Trazado 896500" d="M271.514,50.771V62.2a.751.751,0,0,1-.124.414.757.757,0,1,0,1.264.832,2.261,2.261,0,0,0,.374-1.247V50.771a2.272,2.272,0,0,0-2.27-2.27.757.757,0,1,0,0,1.513A.757.757,0,0,1,271.514,50.771Z" transform="translate(-245.805 -43.609)"/>
      <path id="Trazado_896501" data-name="Trazado 896501" d="M357.259,50.014a.757.757,0,0,1,.757.757V62.2a.753.753,0,0,1-.124.414.757.757,0,1,0,1.264.832,2.261,2.261,0,0,0,.374-1.247V50.771a2.272,2.272,0,0,0-2.27-2.27.757.757,0,0,0,0,1.513Z" transform="translate(-323.582 -43.609)"/>
      <circle id="Elipse_11663" data-name="Elipse 11663" cx="0.757" cy="0.757" r="0.757" transform="translate(24.196 46.899)"/>
    </g>
  </g>
</svg>
