<svg xmlns="http://www.w3.org/2000/svg" width="85" height="85" viewBox="0 0 85 85">
  <g id="Grupo_1108289" data-name="Grupo 1108289" transform="translate(-305.051 -5685)">
    <circle id="Elipse_11658" data-name="Elipse 11658" cx="42.5" cy="42.5" r="42.5" transform="translate(305.051 5685)" fill="#ff7630"/>
    <g id="restaurante" transform="translate(320.051 5700)">
      <rect id="Rectángulo_403146" data-name="Rectángulo 403146" width="43" height="25" transform="translate(6 29.26)" fill="#ececec"/>
      <rect id="Rectángulo_403147" data-name="Rectángulo 403147" width="43" height="3" transform="translate(6 51.26)" fill="#b6c1ce"/>
      <path id="Trazado_897093" data-name="Trazado 897093" d="M74.782,88H37.348L32,104.043v2.674a2.674,2.674,0,1,0,5.348,0,2.674,2.674,0,1,0,5.348,0,2.674,2.674,0,0,0,5.348,0,2.674,2.674,0,1,0,5.348,0,2.674,2.674,0,0,0,5.348,0,2.674,2.674,0,1,0,5.348,0,2.674,2.674,0,1,0,5.348,0,2.674,2.674,0,1,0,5.348,0,2.674,2.674,0,0,0,5.348,0v-2.674Z" transform="translate(-28.435 -78.196)" fill="#fb5968"/>
      <path id="Trazado_897094" data-name="Trazado 897094" d="M34.674,237.348a2.674,2.674,0,0,0,2.674-2.674,2.674,2.674,0,0,0,5.348,0,2.674,2.674,0,0,0,5.348,0,2.674,2.674,0,0,0,5.348,0,2.674,2.674,0,0,0,5.348,0,2.674,2.674,0,0,0,5.348,0,2.674,2.674,0,0,0,5.348,0,2.674,2.674,0,0,0,5.348,0,2.674,2.674,0,0,0,5.348,0V232H32v2.674A2.674,2.674,0,0,0,34.674,237.348Z" transform="translate(-28.435 -206.152)" fill="#cd2c5a"/>
      <circle id="Elipse_11665" data-name="Elipse 11665" cx="10.5" cy="10.5" r="10.5" transform="translate(17 1.26)" fill="#ffeaa7"/>
      <g id="Grupo_1108286" data-name="Grupo 1108286" transform="translate(0.891 44.565)">
        <path id="Trazado_897095" data-name="Trazado 897095" d="M21.369,402.674c-.054,0-.105.012-.159.016a2.624,2.624,0,0,0-3.142-1.717,2.64,2.64,0,0,0-4.095,0,2.624,2.624,0,0,0-3.142,1.717c-.053,0-.1-.016-.159-.016A2.674,2.674,0,0,0,8,405.348V409.8H24.043v-4.456A2.674,2.674,0,0,0,21.369,402.674Z" transform="translate(-8 -400)" fill="#92e0c0"/>
        <path id="Trazado_897096" data-name="Trazado 897096" d="M357.369,402.674c-.054,0-.105.012-.159.016a4.667,4.667,0,0,0-7.236-1.717,2.624,2.624,0,0,0-3.142,1.717c-.053,0-.1-.016-.159-.016A2.674,2.674,0,0,0,344,405.348V409.8h16.043v-4.456A2.674,2.674,0,0,0,357.369,402.674Z" transform="translate(-306.565 -400)" fill="#92e0c0"/>
      </g>
      <g id="Grupo_1108287" data-name="Grupo 1108287" transform="translate(0.891 50.804)">
        <rect id="Rectángulo_403148" data-name="Rectángulo 403148" width="16" height="3" transform="translate(37.109 0.456)" fill="#d3a06c"/>
        <rect id="Rectángulo_403149" data-name="Rectángulo 403149" width="16" height="3" transform="translate(0.109 0.456)" fill="#d3a06c"/>
      </g>
      <rect id="Rectángulo_403150" data-name="Rectángulo 403150" width="15" height="19" transform="translate(20 35.26)" fill="#eabd8c"/>
      <rect id="Rectángulo_403151" data-name="Rectángulo 403151" width="15" height="3" transform="translate(20 51.26)" fill="#d3a06c"/>
      <g id="Grupo_1108288" data-name="Grupo 1108288" transform="translate(10.696 35.652)">
        <rect id="Rectángulo_403152" data-name="Rectángulo 403152" width="5" height="6" transform="translate(0.304 -0.391)" fill="#39c3fc"/>
        <rect id="Rectángulo_403153" data-name="Rectángulo 403153" width="6" height="6" transform="translate(28.304 -0.391)" fill="#39c3fc"/>
      </g>
      <path id="Trazado_897097" data-name="Trazado 897097" d="M52.111,46.372a3.534,3.534,0,0,0-2.2-1.693V31.96a3.561,3.561,0,0,0,2.674-3.439V25.7l-5.6-16.79h-8.1a11.573,11.573,0,0,0-22.527,0H8.27L2.674,25.7v2.818A3.561,3.561,0,0,0,5.348,31.96V44.679a3.531,3.531,0,0,0-2.2,1.693A3.571,3.571,0,0,0,0,49.913V55.26H55.26V49.913A3.571,3.571,0,0,0,52.111,46.372Zm-1.416,1.177.219.629.666-.032a.541.541,0,0,0,.116-.015,1.784,1.784,0,0,1,1.783,1.783H39.217a1.778,1.778,0,0,1,1.749-1.783l.815.047L42,47.548a1.78,1.78,0,0,1,1.674-1.2,1.828,1.828,0,0,1,.417.056l.54.13.355-.427a1.8,1.8,0,0,1,2.724,0l.355.427.54-.13a1.829,1.829,0,0,1,.417-.056A1.778,1.778,0,0,1,50.694,47.548ZM49.021,30.3a1.784,1.784,0,0,1-1.783-1.783V26.739H50.8v1.783A1.784,1.784,0,0,1,49.021,30.3ZM23.174,12.478A1.784,1.784,0,0,1,21.391,10.7c0-1.332,1.116-3.565,1.783-3.565s1.783,2.233,1.783,3.565A1.784,1.784,0,0,1,23.174,12.478Zm1.067,10.188-.127,2.291H20.6l.429-3.857A11.559,11.559,0,0,0,24.241,22.666ZM34.228,21.1l.429,3.857H31.147l-.127-2.291A11.559,11.559,0,0,0,34.228,21.1Zm7.527,3.857L39.378,10.7h2.69l3.169,14.261Zm-1.807,0h-3.5l-.581-5.234a11.619,11.619,0,0,0,2.551-3.94Zm-10.692-1.91.106,1.91H25.9L26,23.046a10.432,10.432,0,0,0,3.251,0Zm-10.445,1.91h-3.5l1.529-9.173a11.614,11.614,0,0,0,2.551,3.94Zm-5.305,0H10.024L13.193,10.7h2.69ZM9.8,26.739h3.565v1.783a1.783,1.783,0,1,1-3.565,0Zm5.348,0h3.565v1.783a1.783,1.783,0,0,1-3.565,0Zm5.348,0h3.565v1.783a1.783,1.783,0,1,1-3.565,0Zm5.348,0h3.565v1.783a1.783,1.783,0,1,1-3.565,0Zm5.348,0h3.565v1.783a1.783,1.783,0,0,1-3.565,0Zm5.348,0h3.565v1.783a1.783,1.783,0,0,1-3.565,0Zm5.348,0h3.565v1.783a1.783,1.783,0,1,1-3.565,0Zm8.568-1.783h-3.4L43.893,10.7H45.7ZM27.63,1.783a9.8,9.8,0,0,1,5.348,18.011v-5.66A3.561,3.561,0,0,0,35.652,10.7V6.239H33.869V10.7a1.777,1.777,0,0,1-.891,1.535V6.239H31.2V12.23A1.777,1.777,0,0,1,30.3,10.7V6.239H28.522V10.7A3.561,3.561,0,0,0,31.2,14.134V20.71a9.673,9.673,0,0,1-7.13,0V14.134A3.561,3.561,0,0,0,26.739,10.7c0-1.837-1.389-5.348-3.565-5.348S19.609,8.859,19.609,10.7a3.561,3.561,0,0,0,2.674,3.439v5.66A9.8,9.8,0,0,1,27.63,1.783ZM9.556,10.7h1.812L8.2,24.956H4.8Zm-5.1,17.826V26.739H8.022v1.783a1.783,1.783,0,0,1-3.565,0ZM3.531,48.13l.815.047.219-.629a1.78,1.78,0,0,1,1.674-1.2,1.829,1.829,0,0,1,.417.056l.54.13.355-.427a1.8,1.8,0,0,1,2.724,0l.355.427.54-.13a1.829,1.829,0,0,1,.417-.056,1.778,1.778,0,0,1,1.673,1.2l.219.629.666-.032a.541.541,0,0,0,.116-.015,1.784,1.784,0,0,1,1.783,1.783H1.783A1.778,1.778,0,0,1,3.531,48.13ZM1.783,53.478V51.7H16.043v1.783Zm32.087,0H21.391V35.652H33.869Zm3.565,0H35.652V33.869H19.609V53.478H17.826V49.913a3.571,3.571,0,0,0-3.15-3.541,3.5,3.5,0,0,0-3.4-1.792,3.643,3.643,0,0,0-4.142-.407V31.962a3.566,3.566,0,0,0,1.783-1.086,3.56,3.56,0,0,0,5.348,0,3.56,3.56,0,0,0,5.348,0,3.56,3.56,0,0,0,5.348,0,3.56,3.56,0,0,0,5.348,0,3.56,3.56,0,0,0,5.348,0,3.56,3.56,0,0,0,5.348,0,3.56,3.56,0,0,0,5.348,0,3.56,3.56,0,0,0,1.783,1.086V44.174a3.64,3.64,0,0,0-4.142.407,3.5,3.5,0,0,0-3.4,1.792,3.569,3.569,0,0,0-3.15,3.54Zm1.783,0V51.7H53.478v1.783Z"/>
      <rect id="Rectángulo_403154" data-name="Rectángulo 403154" width="2" height="2" transform="translate(23 43.26)"/>
      <path id="Trazado_897098" data-name="Trazado 897098" d="M88,319.13h7.13V312H88Zm1.783-5.348h3.565v3.565H89.783Z" transform="translate(-78.196 -277.239)"/>
      <path id="Trazado_897099" data-name="Trazado 897099" d="M351.13,312H344v7.13h7.13Zm-1.783,5.348h-3.565v-3.565h3.565Z" transform="translate(-305.674 -277.239)"/>
    </g>
  </g>
</svg>
