<svg xmlns="http://www.w3.org/2000/svg" width="90" height="90" viewBox="0 0 90 90">
  <g id="Grupo_1107920" data-name="Grupo 1107920" transform="translate(0.252)">
    <g id="Grupo_1098742" data-name="Grupo 1098742" transform="translate(-0.252)">
      <g id="Rect치ngulo_400898" data-name="Rect치ngulo 400898" fill="#ff7630" stroke="#fff" stroke-width="3" opacity="0.859">
        <rect width="90" height="90" rx="45" stroke="none"/>
        <rect x="1.5" y="1.5" width="87" height="87" rx="43.5" fill="none"/>
      </g>
      <g id="Rect치ngulo_400907" data-name="Rect치ngulo 400907" transform="translate(0)" fill="none" stroke="#fff" stroke-width="3">
        <rect width="90" height="90" rx="45" stroke="none"/>
        <rect x="1.5" y="1.5" width="87" height="87" rx="43.5" fill="none"/>
      </g>
    </g>
    <g id="productos-lacteos" transform="translate(-7.973 9)">
      <g id="Grupo_1108310" data-name="Grupo 1108310" transform="translate(27.64 8.919)">
        <g id="Grupo_1108305" data-name="Grupo 1108305" transform="translate(37.401 22.361)">
          <path id="Trazado_897564" data-name="Trazado 897564" d="M360.461,223.922l2.926-4.666v-7.73a.78.78,0,0,1,.779-.779h6a.78.78,0,0,1,.779.779v7.73l2.926,4.666v18.02a1.56,1.56,0,0,1-1.557,1.557h-10.3a1.56,1.56,0,0,1-1.557-1.557v-18.02Z" transform="translate(-360.461 -210.747)" fill="#d8ecfe" fill-rule="evenodd"/>
          <path id="Trazado_897565" data-name="Trazado 897565" d="M431.889,210.748H433.4a.78.78,0,0,1,.779.779v7.73l2.926,4.666v18.02a1.56,1.56,0,0,1-1.557,1.557h-1.507a1.56,1.56,0,0,0,1.557-1.557v-18.02l-2.926-4.666v-7.73A.78.78,0,0,0,431.889,210.748Z" transform="translate(-423.688 -210.748)" fill="#c4e2ff" fill-rule="evenodd"/>
          <path id="Trazado_897566" data-name="Trazado 897566" d="M386.641,215.831H393.5v-4.305a.78.78,0,0,0-.779-.779h-6a.78.78,0,0,0-.779.779v4.305Z" transform="translate(-383.017 -210.747)" fill="#8ac9fe" fill-rule="evenodd"/>
          <path id="Trazado_897567" data-name="Trazado 897567" d="M432.667,215.831h1.507v-4.305a.78.78,0,0,0-.779-.779h-1.507a.78.78,0,0,1,.779.779v4.305Z" transform="translate(-423.687 -210.747)" fill="#60b7ff" fill-rule="evenodd"/>
          <path id="Trazado_897568" data-name="Trazado 897568" d="M366.886,255.022h8.905a1.713,1.713,0,1,1,0,3.425h-8.905a1.713,1.713,0,1,1,0-3.425Z" transform="translate(-364.633 -249.938)" fill="#9facba" fill-rule="evenodd"/>
          <path id="Trazado_897569" data-name="Trazado 897569" d="M376.842,255.654a1.712,1.712,0,0,1-.492,3.352h-8.905a1.72,1.72,0,0,1-1.64-1.221,1.7,1.7,0,0,0,.492.073H375.2a1.718,1.718,0,0,0,1.713-1.713A1.7,1.7,0,0,0,376.842,255.654Z" transform="translate(-365.191 -250.498)" fill="#8d9ca8" fill-rule="evenodd"/>
        </g>
        <g id="Grupo_1108306" data-name="Grupo 1108306" transform="translate(0 21.542)">
          <path id="Trazado_897570" data-name="Trazado 897570" d="M73.4,203.619H86.749a.691.691,0,0,1,.689.689v3.081a.691.691,0,0,1-.689.689H73.4a.691.691,0,0,1-.689-.689v-3.081A.691.691,0,0,1,73.4,203.619Z" transform="translate(-68.351 -203.619)" fill="#c4e2ff" fill-rule="evenodd"/>
          <path id="Trazado_897571" data-name="Trazado 897571" d="M73.4,203.619H74.96a.691.691,0,0,0-.689.689v3.081a.691.691,0,0,0,.689.689H73.4a.691.691,0,0,1-.689-.689v-3.081A.691.691,0,0,1,73.4,203.619Z" transform="translate(-68.351 -203.619)" fill="#add5fa" fill-rule="evenodd"/>
          <path id="Trazado_897572" data-name="Trazado 897572" d="M123.066,225.983l4.362,7.555v23.448H112.963l1.5-31Z" transform="translate(-103.98 -223.415)" fill="#60b7ff" fill-rule="evenodd"/>
          <path id="Trazado_897573" data-name="Trazado 897573" d="M39.087,225.983H53.811l-4.362,7.555v6.431l-14.724-.425v-6.006Z" transform="translate(-34.725 -223.415)" fill="#d8ecfe" fill-rule="evenodd"/>
          <path id="Trazado_897574" data-name="Trazado 897574" d="M39.087,225.983h1.558l-4.362,7.555v6.006l13.166.38v.045l-14.724-.425v-6.006Z" transform="translate(-34.725 -223.415)" fill="#c4e2ff" fill-rule="evenodd"/>
          <path id="Trazado_897575" data-name="Trazado 897575" d="M34.725,291.781H49.449v23.448H35.873a1.152,1.152,0,0,1-1.148-1.148Z" transform="translate(-34.725 -281.658)" fill="#8ac9fe" fill-rule="evenodd"/>
          <path id="Trazado_897576" data-name="Trazado 897576" d="M34.725,291.781h1.558v22.3a1.152,1.152,0,0,0,1.148,1.148H35.873a1.152,1.152,0,0,1-1.148-1.148Z" transform="translate(-34.725 -281.658)" fill="#60b7ff" fill-rule="evenodd"/>
          <path id="Trazado_897577" data-name="Trazado 897577" d="M62.093,353.527H68.5a1.152,1.152,0,0,1,1.148,1.148v6.973A1.151,1.151,0,0,1,68.5,362.8H62.093a1.152,1.152,0,0,1-1.148-1.148v-6.973A1.152,1.152,0,0,1,62.093,353.527Z" transform="translate(-57.934 -336.315)" fill="#eceff1" fill-rule="evenodd"/>
          <path id="Trazado_897578" data-name="Trazado 897578" d="M68.5,353.527a1.151,1.151,0,0,1,1.148,1.148v6.973A1.151,1.151,0,0,1,68.5,362.8H62.093a1.152,1.152,0,0,1-1.148-1.148h6.407A1.152,1.152,0,0,0,68.5,360.5Z" transform="translate(-57.934 -336.315)" fill="#d1d1d6" fill-rule="evenodd"/>
        </g>
        <g id="Grupo_1108307" data-name="Grupo 1108307" transform="translate(19.183)">
          <path id="Trazado_897579" data-name="Trazado 897579" d="M201.793,43.425a12.268,12.268,0,0,0,17.35,0l-8.11-17.072Z" transform="translate(-201.793 -25.164)" fill="#ffbc36" fill-rule="evenodd"/>
          <path id="Trazado_897580" data-name="Trazado 897580" d="M223.692,34.554a12.274,12.274,0,0,1-16.743,0,.573.573,0,0,1-.17-.294h-4.986l8.519-17.933a.563.563,0,0,1,.519-.328h4.127a.563.563,0,0,1,.519.328l8.342,17.561A.567.567,0,0,1,223.692,34.554Z" transform="translate(-201.793 -16)" fill="#fedb41" fill-rule="evenodd"/>
          <path id="Trazado_897581" data-name="Trazado 897581" d="M237.237,70.093l1.87-3.936a2.239,2.239,0,1,1-1.87,3.936Z" transform="translate(-233.167 -60.398)" fill="#ffbc36" fill-rule="evenodd"/>
          <path id="Trazado_897582" data-name="Trazado 897582" d="M237.237,74.245l.133-.281a2.24,2.24,0,0,0,2.781-3.116,2.239,2.239,0,0,1-2.915,3.4Z" transform="translate(-233.167 -64.55)" fill="#ffa834" fill-rule="evenodd"/>
          <path id="Trazado_897583" data-name="Trazado 897583" d="M245.281,35.278a12.269,12.269,0,0,0,16.743,0,.566.566,0,0,0,.126-.666L253.808,17.05a.573.573,0,0,0-.2-.233l-8.453,17.795A.567.567,0,0,0,245.281,35.278Z" transform="translate(-240.125 -16.723)" fill="#feec9b" fill-rule="evenodd"/>
          <circle id="Elipse_11666" data-name="Elipse 11666" cx="1.739" cy="1.739" r="1.739" transform="translate(11.873 10.592) rotate(-88.625)" fill="#fee678"/>
          <path id="Trazado_897584" data-name="Trazado 897584" d="M312.4,78.845a1.739,1.739,0,1,1-1.539,3.018,1.739,1.739,0,0,0,1.539-3.018Z" transform="translate(-298.342 -71.629)" fill="#fedb41" fill-rule="evenodd"/>
          <circle id="Elipse_11667" data-name="Elipse 11667" cx="2.239" cy="2.239" r="2.239" transform="translate(8.995 13.754)" fill="#fee678"/>
          <path id="Trazado_897585" data-name="Trazado 897585" d="M289.867,136.63a2.24,2.24,0,1,1-2,3.928,2.24,2.24,0,0,0,2-3.928Z" transform="translate(-277.981 -122.779)" fill="#fedb41" fill-rule="evenodd"/>
          <path id="Trazado_897586" data-name="Trazado 897586" d="M350.758,126.594l-1.962-4.131c-.054,0-.108-.005-.163-.005a2.614,2.614,0,1,0,2.125,4.136Z" transform="translate(-329.459 -110.235)" fill="#fee678" fill-rule="evenodd"/>
          <path id="Trazado_897587" data-name="Trazado 897587" d="M353.824,152.587l-.363-.765a2.614,2.614,0,0,1-3.978.629,2.614,2.614,0,0,0,4.342.136Z" transform="translate(-332.525 -136.227)" fill="#fedb41" fill-rule="evenodd"/>
        </g>
        <g id="Grupo_1108308" data-name="Grupo 1108308" transform="translate(17.978 35.754)">
          <path id="Trazado_897588" data-name="Trazado 897588" d="M191.825,327.4h15.308a.518.518,0,0,1,.517.575L205.833,344.9a2.071,2.071,0,0,1-2.066,1.856h-8.576a2.071,2.071,0,0,1-2.066-1.856l-1.817-16.927A.518.518,0,0,1,191.825,327.4Z" transform="translate(-191.305 -327.399)" fill="#eceff1" fill-rule="evenodd"/>
          <path id="Trazado_897589" data-name="Trazado 897589" d="M291.348,327.4h1.362a.518.518,0,0,1,.517.575L291.41,344.9a2.071,2.071,0,0,1-2.066,1.856h-1.362a2.071,2.071,0,0,0,2.066-1.856l1.817-16.927A.518.518,0,0,0,291.348,327.4Z" transform="translate(-276.882 -327.399)" fill="#d1d1d6" fill-rule="evenodd"/>
          <path id="Trazado_897590" data-name="Trazado 897590" d="M212.767,393.99H197.943L199,403.847a2.071,2.071,0,0,0,2.066,1.856h8.576a2.071,2.071,0,0,0,2.066-1.856Z" transform="translate(-197.181 -386.344)" fill="#d8ecfe" fill-rule="evenodd"/>
          <path id="Trazado_897591" data-name="Trazado 897591" d="M292.467,393.99H291.1l-1.058,9.857a2.071,2.071,0,0,1-2.066,1.856h1.362a2.071,2.071,0,0,0,2.066-1.856Z" transform="translate(-276.881 -386.344)" fill="#c4e2ff" fill-rule="evenodd"/>
        </g>
        <g id="Grupo_1108309" data-name="Grupo 1108309" transform="translate(25.85 45.711)">
          <path id="Trazado_897592" data-name="Trazado 897592" d="M259.866,419.031c0,2.477,1.726,4.484,3.855,4.484s3.855-2.008,3.855-4.484c0-2.613-1.459-4.918-3.855-4.918S259.866,416.418,259.866,419.031Z" transform="translate(-259.866 -414.113)" fill="#ecba78" fill-rule="evenodd"/>
          <path id="Trazado_897593" data-name="Trazado 897593" d="M259.866,419.031c0,2.477,1.726,4.484,3.855,4.484a3.343,3.343,0,0,0,.574-.05,4.328,4.328,0,0,1-3.28-4.435c0-2.4,1.228-4.535,3.28-4.871a3.544,3.544,0,0,0-.574-.046C261.325,414.113,259.866,416.418,259.866,419.031Z" transform="translate(-259.866 -414.113)" fill="#e3a76f" fill-rule="evenodd"/>
          <path id="Trazado_897594" data-name="Trazado 897594" d="M304.12,430.561a4.793,4.793,0,0,0,1.394-3.452,5.563,5.563,0,0,0-1.394-3.87,5.563,5.563,0,0,0-1.394,3.87A4.792,4.792,0,0,0,304.12,430.561Z" transform="translate(-297.805 -422.191)" fill="#e3a76f" fill-rule="evenodd"/>
          <path id="Trazado_897595" data-name="Trazado 897595" d="M308.513,419.031c0,2.477,1.726,4.484,3.855,4.484s3.855-2.008,3.855-4.484c0-2.613-1.459-4.918-3.855-4.918S308.513,416.418,308.513,419.031Z" transform="translate(-302.927 -414.113)" fill="#f2d1a5" fill-rule="evenodd"/>
          <path id="Trazado_897596" data-name="Trazado 897596" d="M308.513,419.031c0,2.477,1.726,4.484,3.855,4.484a3.343,3.343,0,0,0,.574-.05,4.328,4.328,0,0,1-3.28-4.435c0-2.4,1.228-4.535,3.28-4.871a3.543,3.543,0,0,0-.574-.046C309.972,414.113,308.513,416.418,308.513,419.031Z" transform="translate(-302.927 -414.113)" fill="#ecba78" fill-rule="evenodd"/>
        </g>
      </g>
      <path id="Trazado_897597" data-name="Trazado 897597" d="M57.936,26.233a1.321,1.321,0,1,1,1.32-1.322A1.323,1.323,0,0,1,57.936,26.233Zm0-4.479a3.158,3.158,0,1,0,3.157,3.158A3.161,3.161,0,0,0,57.936,21.754Zm3.229-3.933a.82.82,0,1,1-.82-.82A.821.821,0,0,1,61.165,17.822Zm-3.477,0a2.657,2.657,0,1,0,2.657-2.657A2.661,2.661,0,0,0,57.688,17.822Zm-1.73-7.984h2.819l-3.454,7.269c.007-.079.01-.159.01-.238a3.174,3.174,0,0,0-1.455-2.656Zm8.714,10.575-4.443-9.353L52.672,26.97a11.364,11.364,0,0,0,15.117,0l-.105-.224a3.531,3.531,0,1,1-3.011-6.336Zm2.211,4.654A1.694,1.694,0,1,1,65.472,22.1ZM51.183,28.1a12.981,12.981,0,0,0,1.977,1.54,11.277,11.277,0,0,1-3.849-1.54Zm.993-8.072a3.145,3.145,0,0,0,2.174-.872l-3.377,7.106H48.156l3.037-6.394a3.157,3.157,0,0,0,.983.16Zm1.32-3.158A1.317,1.317,0,0,1,52,18.176l1.08-2.272A1.328,1.328,0,0,1,53.5,16.869ZM55.37,31.693a13.289,13.289,0,0,0,2.448-.227,13.183,13.183,0,0,0,11.737-3.636.919.919,0,0,0,.18-1.044L61.06,8.525A.919.919,0,0,0,60.229,8H55.377a.919.919,0,0,0-.829.525L45.872,26.785a.919.919,0,0,0,.18,1.044A13.16,13.16,0,0,0,55.37,31.693ZM38.435,56.024H31.57V48.592h6.866Zm.919-9.269h-8.7a.919.919,0,0,0-.919.919v9.269a.919.919,0,0,0,.919.919h8.7a.92.92,0,0,0,.919-.919V47.673A.919.919,0,0,0,39.354,46.755Zm38.181,15.72a.639.639,0,0,1-.639.639H66.6a.61.61,0,0,1-.08-.006A5.807,5.807,0,0,0,67.7,59.548,6.744,6.744,0,0,0,66.5,55.565a4.828,4.828,0,0,0-.538-.618V44.719l2.516-4.013h6.545l2.515,4.013V62.474ZM59.994,59.548c0-1.988,1.009-4,2.936-4s2.937,2.013,2.937,4c0,1.966-1.318,3.565-2.937,3.565S59.994,61.513,59.994,59.548ZM48.352,62.077A1.158,1.158,0,0,0,49.5,63.113h4.26a5.8,5.8,0,0,1-1.191-3.565,6.74,6.74,0,0,1,1.207-3.983,4.356,4.356,0,0,1,3.566-1.854,4.268,4.268,0,0,1,2.686.937L61,45.592H46.582ZM28.558,41.5V63.113H41.446V41.5ZM45.807,31.379v.73H32.92v-.73Zm-.672,2.567-3.3,5.718h-12.6l3.3-5.718Zm5.033,9.808H46.138a1.446,1.446,0,0,0-1.074.481,1.411,1.411,0,0,0-.356,1.11l1.816,16.928a3.038,3.038,0,0,0,.216.839H43.284V40.83l3.442-5.965,3.443,5.965v2.924Zm4.24,15.794c0-1.988,1.008-4,2.936-4a2.436,2.436,0,0,1,1.637.616,7.02,7.02,0,0,0-.826,3.385,5.884,5.884,0,0,0,.8,2.981,2.559,2.559,0,0,1-1.608.584C55.726,63.113,54.409,61.513,54.409,59.548ZM67.294,37.281h.451v1.588h-.451a.794.794,0,1,1,0-1.588ZM74.608,32.2v3.246H68.885v-.7h1.24a.919.919,0,0,0,0-1.837h-1.24v-.7h5.723Zm2.385,5.877a.794.794,0,0,1-.793.794h-.451V37.281H76.2a.8.8,0,0,1,.793.794Zm-4.327-.795h1.246v1.588H72.665Zm-1.837,0v1.588H69.582V37.281Zm8.4,6.686a.92.92,0,0,1,.141.488v18.02A2.479,2.479,0,0,1,76.9,64.95H66.6a2.463,2.463,0,0,1-1.563-.554,4.3,4.3,0,0,1-2.1.554,4.368,4.368,0,0,1-2.674-.93,2.978,2.978,0,0,1-2.175.93H27.639a.919.919,0,0,1-.918-.919V40.583a.912.912,0,0,1,.124-.459l4.238-7.341V30.461A.919.919,0,0,1,32,29.542H46.726a.918.918,0,0,1,.919.919v2.321l4.239,7.341a.922.922,0,0,1,.123.459v3.171h9.441a1.446,1.446,0,0,1,1.074.481,1.411,1.411,0,0,1,.355,1.11l-.909,8.472a4.372,4.372,0,0,1,2.155.057V44.455a.923.923,0,0,1,.14-.488L66.4,40.551a2.631,2.631,0,0,1,.644-5.095v-3.4a1.7,1.7,0,0,1,1.7-1.7h6a1.7,1.7,0,0,1,1.7,1.7v3.4a2.631,2.631,0,0,1,.644,5.095Z" fill-rule="evenodd"/>
    </g>
  </g>
</svg>
