<svg xmlns="http://www.w3.org/2000/svg" xmlns:xlink="http://www.w3.org/1999/xlink" width="108" height="108" viewBox="0 0 108 108">
  <defs>
    <filter id="Rectángulo_400898" x="0" y="0" width="108" height="108" filterUnits="userSpaceOnUse">
      <feOffset dy="3" input="SourceAlpha"/>
      <feGaussianBlur stdDeviation="3" result="blur"/>
      <feFlood flood-opacity="0.161"/>
      <feComposite operator="in" in2="blur"/>
      <feComposite in="SourceGraphic"/>
    </filter>
  </defs>
  <g id="Grupo_1107921" data-name="Grupo 1107921" transform="translate(9 6)">
    <g id="Grupo_1098742" data-name="Grupo 1098742" transform="translate(0)">
      <g transform="matrix(1, 0, 0, 1, -9, -6)" filter="url(#Rectángulo_400898)">
        <g id="Rectángulo_400898-2" data-name="Rectángulo 400898" transform="translate(9 6)" fill="#ff7630" stroke="#fff" stroke-width="3" opacity="0.859">
          <rect width="90" height="90" rx="45" stroke="none"/>
          <rect x="1.5" y="1.5" width="87" height="87" rx="43.5" fill="none"/>
        </g>
      </g>
      <g id="Rectángulo_400907" data-name="Rectángulo 400907" transform="translate(0)" fill="none" stroke="#fff" stroke-width="3">
        <rect width="90" height="90" rx="45" stroke="none"/>
        <rect x="1.5" y="1.5" width="87" height="87" rx="43.5" fill="none"/>
      </g>
    </g>
    <g id="Storage" transform="translate(21 21)">
      <path id="Trazado_897598" data-name="Trazado 897598" d="M5,11V47H1V11a2,2,0,1,1,4,0Z" fill="#374f68"/>
      <path id="Trazado_897599" data-name="Trazado 897599" d="M5,11c0,35.18-.1,34,0,34a2,2,0,0,1-2-2V9A2,2,0,0,1,5,11Z" fill="#425b72"/>
      <path id="Trazado_897600" data-name="Trazado 897600" d="M5,15H43v4H5Z" fill="#7c7d7d"/>
      <path id="Trazado_897601" data-name="Trazado 897601" d="M41,15v2H9a2,2,0,0,1-2-2Z" fill="#919191"/>
      <path id="Trazado_897602" data-name="Trazado 897602" d="M5,37H43v4H5Z" fill="#7c7d7d"/>
      <path id="Trazado_897603" data-name="Trazado 897603" d="M41,37v2H9a2,2,0,0,1-2-2Z" fill="#919191"/>
      <path id="Trazado_897604" data-name="Trazado 897604" d="M47,11V47H43V11a2,2,0,0,1,4,0Z" fill="#374f68"/>
      <path id="Trazado_897605" data-name="Trazado 897605" d="M47,11V44.82a2.84,2.84,0,0,1-1.12-.7c-1.23-1.24-.88.55-.88-34.85a1.69,1.69,0,0,1,.5-.2A2,2,0,0,1,47,11Z" fill="#425b72"/>
      <path id="Trazado_897606" data-name="Trazado 897606" d="M12,25H36V37H12Z" fill="#a87e6b"/>
      <path id="Trazado_897607" data-name="Trazado 897607" d="M36,25V35H20a6,6,0,0,1-6-6V25Z" fill="#be927c"/>
      <path id="Trazado_897608" data-name="Trazado 897608" d="M9,1H23V15H9Z" fill="#a87e6b"/>
      <path id="Trazado_897609" data-name="Trazado 897609" d="M23,1V13H17a6,6,0,0,1-6-6V1Z" fill="#be927c"/>
      <path id="Trazado_897610" data-name="Trazado 897610" d="M27,3H39V15H27Z" fill="#a87e6b"/>
      <path id="Trazado_897611" data-name="Trazado 897611" d="M39,3V13H35a6,6,0,0,1-6-6V3Z" fill="#be927c"/>
      <path id="Trazado_897612" data-name="Trazado 897612" d="M22,25h4v4H22Z" fill="#f6ccaf"/>
      <path id="Trazado_897613" data-name="Trazado 897613" d="M26,25v3a3,3,0,0,1-3-3Z" fill="#ffdec7"/>
      <path id="Trazado_897614" data-name="Trazado 897614" d="M14,1h4V5H14Z" fill="#f6ccaf"/>
      <path id="Trazado_897615" data-name="Trazado 897615" d="M18,1V4a3,3,0,0,1-3-3Z" fill="#ffdec7"/>
      <path id="Trazado_897616" data-name="Trazado 897616" d="M31,3h4V7H31Z" fill="#f6ccaf"/>
      <path id="Trazado_897617" data-name="Trazado 897617" d="M35,3V6a3,3,0,0,1-3-3Z" fill="#ffdec7"/>
      <path id="Trazado_897618" data-name="Trazado 897618" d="M45,8a3,3,0,0,0-3,3v3H40V3a1,1,0,0,0-1-1H27a1,1,0,0,0-1,1V14H24V1a1,1,0,0,0-1-1H9A1,1,0,0,0,8,1V14H6V11a3,3,0,1,0-6,0V47a1,1,0,0,0,1,1H5a1,1,0,0,0,1-1V42H42v5a1,1,0,0,0,1,1h4a1,1,0,0,0,1-1V11A3,3,0,0,0,45,8ZM23,26h2v2H23Zm-1,4h4a1,1,0,0,0,1-1V26h8V36H13V26h8v3A1,1,0,0,0,22,30Zm14-6H12a1,1,0,0,0-1,1V36H6V20H42V36H37V25A1,1,0,0,0,36,24ZM34,4V6H32V4ZM28,4h2V7a1,1,0,0,0,1,1h4a1,1,0,0,0,1-1V4h2V14H28ZM17,2V4H15V2ZM10,2h3V5a1,1,0,0,0,1,1h4a1,1,0,0,0,1-1V2h3V14H10ZM42,16v2H6V16ZM4,46H2V11a1,1,0,1,1,2,0Zm2-6V38H42v2Zm40,6H44V11a1,1,0,0,1,2,0Z"/>
      <path id="Trazado_897619" data-name="Trazado 897619" d="M18,32H16a1,1,0,0,0,0,2h2a1,1,0,0,0,0-2Z"/>
      <path id="Trazado_897620" data-name="Trazado 897620" d="M15,10H13a1,1,0,0,0,0,2h2a1,1,0,0,0,0-2Z"/>
    </g>
  </g>
</svg>
