<svg xmlns="http://www.w3.org/2000/svg" xmlns:xlink="http://www.w3.org/1999/xlink" width="108" height="108" viewBox="0 0 108 108">
  <defs>
    <filter id="Rectángulo_400898" x="0" y="0" width="108" height="108" filterUnits="userSpaceOnUse">
      <feOffset dy="3" input="SourceAlpha"/>
      <feGaussianBlur stdDeviation="3" result="blur"/>
      <feFlood flood-opacity="0.161"/>
      <feComposite operator="in" in2="blur"/>
      <feComposite in="SourceGraphic"/>
    </filter>
  </defs>
  <g id="Grupo_1107923" data-name="Grupo 1107923" transform="translate(9 6)">
    <g id="Grupo_1098742" data-name="Grupo 1098742" transform="translate(0)">
      <g transform="matrix(1, 0, 0, 1, -9, -6)" filter="url(#Rectángulo_400898)">
        <g id="Rectángulo_400898-2" data-name="Rectángulo 400898" transform="translate(9 6)" fill="#ff7630" stroke="#fff" stroke-width="3" opacity="0.859">
          <rect width="90" height="90" rx="45" stroke="none"/>
          <rect x="1.5" y="1.5" width="87" height="87" rx="43.5" fill="none"/>
        </g>
      </g>
      <g id="Rectángulo_400907" data-name="Rectángulo 400907" transform="translate(0)" fill="none" stroke="#fff" stroke-width="3">
        <rect width="90" height="90" rx="45" stroke="none"/>
        <rect x="1.5" y="1.5" width="87" height="87" rx="43.5" fill="none"/>
      </g>
    </g>
    <g id="estante" transform="translate(18 18)">
      <g id="Grupo_1108324" data-name="Grupo 1108324" transform="translate(0.78 0.78)">
        <g id="Grupo_1108313" data-name="Grupo 1108313" transform="translate(8.371 10.276)">
          <g id="Grupo_1108311" data-name="Grupo 1108311" transform="translate(1.67)">
            <path id="Trazado_897621" data-name="Trazado 897621" d="M106.793,109.5h-2.7v-2.731a.416.416,0,0,1,.416-.416h1.871a.416.416,0,0,1,.416.416Z" transform="translate(-104.09 -106.351)" fill="#e8e8e8"/>
            <path id="Trazado_897622" data-name="Trazado 897622" d="M199.921,109.5h-2.7v-2.731a.416.416,0,0,1,.416-.416H199.5a.416.416,0,0,1,.416.416Z" transform="translate(-187.537 -106.351)" fill="#e8e8e8"/>
            <path id="Trazado_897623" data-name="Trazado 897623" d="M293.049,109.5h-2.7v-2.731a.416.416,0,0,1,.416-.416h1.871a.416.416,0,0,1,.416.416Z" transform="translate(-270.984 -106.351)" fill="#e8e8e8"/>
            <path id="Trazado_897624" data-name="Trazado 897624" d="M386.178,109.5h-2.7v-2.731a.416.416,0,0,1,.416-.416h1.871a.416.416,0,0,1,.416.416Z" transform="translate(-354.432 -106.351)" fill="#e8e8e8"/>
          </g>
          <g id="Grupo_1108312" data-name="Grupo 1108312" transform="translate(0 2.731)">
            <path id="Trazado_897625" data-name="Trazado 897625" d="M94.069,144.316H88.026V133.144a.52.52,0,0,1,.52-.52h5a.52.52,0,0,1,.52.52Z" transform="translate(-88.026 -132.624)" fill="#b2e5fb"/>
            <path id="Trazado_897626" data-name="Trazado 897626" d="M187.2,144.316h-6.043V133.144a.52.52,0,0,1,.52-.52h5a.52.52,0,0,1,.52.52Z" transform="translate(-171.473 -132.624)" fill="#b2e5fb"/>
            <path id="Trazado_897627" data-name="Trazado 897627" d="M280.326,144.316h-6.043V133.144a.52.52,0,0,1,.52-.52h5a.52.52,0,0,1,.52.52Z" transform="translate(-254.921 -132.624)" fill="#b2e5fb"/>
            <path id="Trazado_897628" data-name="Trazado 897628" d="M373.454,144.316h-6.043V133.144a.52.52,0,0,1,.52-.52h5a.52.52,0,0,1,.52.52Z" transform="translate(-338.368 -132.624)" fill="#b2e5fb"/>
          </g>
        </g>
        <g id="Grupo_1108314" data-name="Grupo 1108314" transform="translate(9.103 31.679)">
          <path id="Trazado_897629" data-name="Trazado 897629" d="M362.725,325.436l0-6.151c0-.034.3-.642.3-.675a4.215,4.215,0,0,1,0-.885l.8-1.413a31.157,31.157,0,0,0,.423-3.784.311.311,0,0,1,.311-.288h1.964a.311.311,0,0,1,.311.288,31.2,31.2,0,0,0,.423,3.784l.8,1.413a4.179,4.179,0,0,1,.036.885c0,.032.262.64.262.675l0,6.151Z" transform="translate(-334.898 -312.241)" fill="#b8eb7c"/>
          <path id="Trazado_897630" data-name="Trazado 897630" d="M273.509,325.436l0-6.151c0-.034.3-.642.3-.675a4.215,4.215,0,0,1,0-.885l.8-1.413a31.151,31.151,0,0,0,.423-3.784.311.311,0,0,1,.311-.288H277.3a.311.311,0,0,1,.311.288,31.194,31.194,0,0,0,.423,3.784l.8,1.413a4.175,4.175,0,0,1,.036.885c0,.032.263.64.263.675l0,6.151Z" transform="translate(-254.956 -312.241)" fill="#b8eb7c"/>
          <path id="Trazado_897631" data-name="Trazado 897631" d="M184.292,325.436l0-6.151c0-.034.3-.642.3-.675a4.217,4.217,0,0,1,0-.885l.8-1.413a31.153,31.153,0,0,0,.423-3.784.311.311,0,0,1,.311-.288h1.964a.311.311,0,0,1,.311.288,31.193,31.193,0,0,0,.423,3.784l.8,1.413a4.177,4.177,0,0,1,.036.885c0,.032.262.64.262.675l0,6.151Z" transform="translate(-175.014 -312.241)" fill="#b8eb7c"/>
          <path id="Trazado_897632" data-name="Trazado 897632" d="M95.075,325.436l0-6.151c0-.034.3-.642.3-.675a4.216,4.216,0,0,1,0-.885l.8-1.413a31.155,31.155,0,0,0,.423-3.784.311.311,0,0,1,.311-.288h1.964a.311.311,0,0,1,.311.288,31.2,31.2,0,0,0,.423,3.784l.8,1.413a4.177,4.177,0,0,1,.036.885c0,.032.262.64.262.675l0,6.151Z" transform="translate(-95.071 -312.241)" fill="#b8eb7c"/>
        </g>
        <g id="Grupo_1108323" data-name="Grupo 1108323">
          <g id="Grupo_1108316" data-name="Grupo 1108316" transform="translate(2.628 44.146)">
            <path id="Trazado_897633" data-name="Trazado 897633" d="M93.866,435.54H53.949l-1.167-1.685,1.167-1.685H93.866l1.329,1.685Z" transform="translate(-50.703 -432.171)" fill="#e29a6c"/>
            <g id="Grupo_1108315" data-name="Grupo 1108315">
              <path id="Trazado_897634" data-name="Trazado 897634" d="M32.782,432.171h3.246v3.369H32.782Z" transform="translate(-32.782 -432.171)" fill="#d48c64"/>
              <path id="Trazado_897635" data-name="Trazado 897635" d="M447.994,432.171H451.4v3.369h-3.408Z" transform="translate(-404.831 -432.171)" fill="#d48c64"/>
            </g>
          </g>
          <g id="Grupo_1108318" data-name="Grupo 1108318" transform="translate(2.547 24.179)">
            <path id="Trazado_897636" data-name="Trazado 897636" d="M93.165,243.463H53.248L52,241.779l1.248-1.685H93.165l1.456,1.654Z" transform="translate(-49.921 -240.094)" fill="#e29a6c"/>
            <g id="Grupo_1108317" data-name="Grupo 1108317">
              <path id="Trazado_897637" data-name="Trazado 897637" d="M32,240.094h3.327v3.369H32Z" transform="translate(-32 -240.094)" fill="#d48c64"/>
              <path id="Trazado_897638" data-name="Trazado 897638" d="M447.994,240.094h3.535v3.369h-3.535Z" transform="translate(-404.75 -240.094)" fill="#d48c64"/>
            </g>
          </g>
          <g id="Grupo_1108320" data-name="Grupo 1108320" transform="translate(2.651 4.149)">
            <path id="Trazado_897639" data-name="Trazado 897639" d="M94.061,50.785H54.144L53,49.1l1.144-1.685H94.061l1.56,1.685Z" transform="translate(-50.921 -47.416)" fill="#e29a6c"/>
            <g id="Grupo_1108319" data-name="Grupo 1108319">
              <path id="Trazado_897640" data-name="Trazado 897640" d="M33,47.416h3.223v3.369H33Z" transform="translate(-33 -47.416)" fill="#d48c64"/>
              <path id="Trazado_897641" data-name="Trazado 897641" d="M447.994,47.416h3.639v3.369h-3.639Z" transform="translate(-404.854 -47.416)" fill="#d48c64"/>
            </g>
          </g>
          <g id="Grupo_1108321" data-name="Grupo 1108321">
            <path id="Trazado_897642" data-name="Trazado 897642" d="M23.765,57.353l-2.042.038.1-49.42.291-.47h1.612a.312.312,0,0,1,.312.312V57.086Z" transform="translate(-20.244 -7.5)" fill="#f4aa73"/>
            <path id="Trazado_897643" data-name="Trazado 897643" d="M9.371,56.774V7.5H7.812a.312.312,0,0,0-.312.312V58.853a.312.312,0,0,0,.312.312h3.171a.312.312,0,0,0,.312-.312V57.086H9.683A.312.312,0,0,1,9.371,56.774Z" transform="translate(-7.5 -7.5)" fill="#e29a6c"/>
          </g>
          <g id="Grupo_1108322" data-name="Grupo 1108322" transform="translate(47.87)">
            <path id="Trazado_897644" data-name="Trazado 897644" d="M485.344,57.383l-2.11.02.04-49.624.246-.279h1.612a.312.312,0,0,1,.312.312V57.086Z" transform="translate(-481.65 -7.5)" fill="#f4aa73"/>
            <path id="Trazado_897645" data-name="Trazado 897645" d="M469.865,56.774V7.5h-1.559a.312.312,0,0,0-.312.312V58.853a.312.312,0,0,0,.312.312h3.171a.312.312,0,0,0,.312-.312V57.086h-1.612A.312.312,0,0,1,469.865,56.774Z" transform="translate(-467.994 -7.5)" fill="#e29a6c"/>
          </g>
        </g>
      </g>
      <g id="Grupo_1108325" data-name="Grupo 1108325" transform="translate(0)">
        <path id="Trazado_897646" data-name="Trazado 897646" d="M52.445,0H48.65a.78.78,0,0,0-.78.78v3.37H28.379a.78.78,0,1,0,0,1.559H47.87v1.81H5.354V5.709H24.741a.78.78,0,1,0,0-1.559H5.354V.78A.78.78,0,0,0,4.575,0H.78A.78.78,0,0,0,0,.78V52.445a.78.78,0,0,0,.78.78H4.575a.78.78,0,0,0,.78-.78v-3.37H47.87v3.37a.78.78,0,0,0,.78.78h3.795a.78.78,0,0,0,.78-.78V.78A.78.78,0,0,0,52.445,0ZM47.87,9.078v15.1H45.016V13.787a.78.78,0,0,0-.78-.78h-.89V11.056a.78.78,0,0,0-.78-.78h-2.7a.78.78,0,0,0-.78.78v1.952h-.89a.78.78,0,0,0-.78.78V24.179H35.335V13.787a.78.78,0,0,0-.78-.78h-.89V11.056a.78.78,0,0,0-.78-.78h-2.7a.78.78,0,0,0-.78.78v1.952h-.89a.78.78,0,0,0-.78.78V24.179H25.654V13.787a.78.78,0,0,0-.78-.78h-.89V11.056a.78.78,0,0,0-.78-.78H20.5a.78.78,0,0,0-.78.78v1.952h-.89a.78.78,0,0,0-.78.78V24.179H15.973v-3.6a.78.78,0,1,0-1.559,0v3.6H9.93V14.566h4.483v2.378a.78.78,0,1,0,1.559,0V13.787a.78.78,0,0,0-.78-.78H14.3V11.056a.78.78,0,0,0-.78-.78h-2.7a.78.78,0,0,0-.78.78v1.952h-.89a.78.78,0,0,0-.78.78V24.179H5.354V9.078Zm-8.9,15.1V14.566h4.483v9.613Zm2.813-11.172H40.643V11.835h1.143ZM29.292,24.179V14.566h4.483v9.613Zm2.813-11.172H30.962V11.835h1.143ZM19.611,24.179V14.566h4.483v9.613Zm2.813-11.172H21.281V11.835h1.143Zm-9.681,0H11.6V11.835h1.143ZM3.795,51.665H1.559V1.559H3.795v34.1a.78.78,0,0,0,1.559,0V29.108H38.671a.78.78,0,1,0,0-1.559H5.354v-1.81H47.87v1.81H42.309a.78.78,0,1,0,0,1.559H47.87V44.146H44.118l0-5.351a2.17,2.17,0,0,0-.242-.959L42.951,36.2c-.1-.4-.269-2.254-.378-3.8a.78.78,0,0,0-.778-.725H39.252a.78.78,0,0,0-.778.725c-.109,1.546-.281,3.4-.378,3.8l-.928,1.632a2.235,2.235,0,0,0-.242.96l0,5.35H34.843l0-5.351a2.169,2.169,0,0,0-.242-.959L33.677,36.2c-.1-.4-.269-2.254-.378-3.8a.78.78,0,0,0-.778-.725H29.978a.78.78,0,0,0-.778.725c-.109,1.546-.281,3.4-.378,3.8l-.928,1.632a2.235,2.235,0,0,0-.242.96l0,5.35H25.569l0-5.351a2.172,2.172,0,0,0-.242-.959L24.4,36.2c-.1-.4-.269-2.254-.378-3.8a.78.78,0,0,0-.778-.725H20.7a.78.78,0,0,0-.778.725c-.109,1.546-.281,3.4-.378,3.8l-.928,1.632a2.234,2.234,0,0,0-.242.96l0,5.35H16.295l0-5.351a2.17,2.17,0,0,0-.242-.959L15.128,36.2c-.1-.4-.269-2.254-.378-3.8a.78.78,0,0,0-.778-.725H11.429a.78.78,0,0,0-.778.725c-.109,1.546-.281,3.4-.378,3.8l-.928,1.632a2.237,2.237,0,0,0-.242.96l0,5.35H5.354V39.295a.78.78,0,1,0-1.559,0Zm34.694-7.519,0-4.644h4.076l0,4.644Zm.412-6.2.584-1.027c.082-.143.245-.431.491-3.678h1.094c.246,3.247.41,3.534.491,3.677l.584,1.027Zm-9.687,6.2,0-4.644h4.076l0,4.644Zm.412-6.2.584-1.027c.081-.143.245-.431.492-3.678H31.8c.246,3.247.41,3.534.491,3.677l.584,1.027Zm-9.687,6.2,0-4.644h4.076l0,4.644Zm.412-6.2.584-1.027c.081-.143.245-.431.492-3.678h1.094c.246,3.247.41,3.534.491,3.677l.584,1.027Zm-9.687,6.2,0-4.644h4.076l0,4.644Zm.412-6.2.584-1.027c.081-.143.245-.431.491-3.678h1.094c.246,3.247.41,3.534.491,3.677l.584,1.027ZM5.354,47.516v-1.81H47.87v1.81Zm46.311,4.149H49.429V1.559h2.236Z" transform="translate(0)"/>
        <path id="Trazado_897647" data-name="Trazado 897647" d="M110.37,163.859a.78.78,0,0,0-.78.78v3.119a.78.78,0,1,0,1.559,0v-3.119A.78.78,0,0,0,110.37,163.859Z" transform="translate(-98.198 -146.825)"/>
        <path id="Trazado_897648" data-name="Trazado 897648" d="M203.5,163.859a.78.78,0,0,0-.78.78v3.119a.78.78,0,1,0,1.559,0v-3.119A.78.78,0,0,0,203.5,163.859Z" transform="translate(-181.645 -146.825)"/>
        <path id="Trazado_897649" data-name="Trazado 897649" d="M296.626,163.859a.78.78,0,0,0-.78.78v3.119a.78.78,0,1,0,1.559,0v-3.119A.78.78,0,0,0,296.626,163.859Z" transform="translate(-265.092 -146.825)"/>
        <path id="Trazado_897650" data-name="Trazado 897650" d="M389.755,163.859a.78.78,0,0,0-.78.78v3.119a.78.78,0,1,0,1.559,0v-3.119A.78.78,0,0,0,389.755,163.859Z" transform="translate(-348.54 -146.825)"/>
      </g>
    </g>
  </g>
</svg>
