<svg xmlns="http://www.w3.org/2000/svg" xmlns:xlink="http://www.w3.org/1999/xlink" width="108" height="108" viewBox="0 0 108 108">
  <defs>
    <filter id="Rectángulo_400898" x="0" y="0" width="108" height="108" filterUnits="userSpaceOnUse">
      <feOffset dy="3" input="SourceAlpha"/>
      <feGaussianBlur stdDeviation="3" result="blur"/>
      <feFlood flood-opacity="0.161"/>
      <feComposite operator="in" in2="blur"/>
      <feComposite in="SourceGraphic"/>
    </filter>
  </defs>
  <g id="Grupo_1107925" data-name="Grupo 1107925" transform="translate(9 6)">
    <g id="Grupo_1098742" data-name="Grupo 1098742" transform="translate(0)">
      <g transform="matrix(1, 0, 0, 1, -9, -6)" filter="url(#Rectángulo_400898)">
        <g id="Rectángulo_400898-2" data-name="Rectángulo 400898" transform="translate(9 6)" fill="#ff7630" stroke="#fff" stroke-width="3" opacity="0.859">
          <rect width="90" height="90" rx="45" stroke="none"/>
          <rect x="1.5" y="1.5" width="87" height="87" rx="43.5" fill="none"/>
        </g>
      </g>
      <g id="Rectángulo_400907" data-name="Rectángulo 400907" transform="translate(0)" fill="none" stroke="#fff" stroke-width="3">
        <rect width="90" height="90" rx="45" stroke="none"/>
        <rect x="1.5" y="1.5" width="87" height="87" rx="43.5" fill="none"/>
      </g>
    </g>
    <g id="Delivery" transform="translate(13 12)">
      <path id="Trazado_897651" data-name="Trazado 897651" d="M20,14H58V36H20Z" fill="#ffeb99"/>
      <path id="Trazado_897652" data-name="Trazado 897652" d="M27,27H39a1,1,0,0,1,1,1v3H26V28A1,1,0,0,1,27,27Z" transform="translate(66 58) rotate(180)" fill="#ff9811"/>
      <path id="Trazado_897653" data-name="Trazado 897653" d="M27,23H39v4H27Z" transform="translate(66 50) rotate(180)" fill="#aa6100"/>
      <path id="Trazado_897654" data-name="Trazado 897654" d="M26,19H40a4,4,0,0,1-4,4H30A4,4,0,0,1,26,19Z" transform="translate(66 42) rotate(180)" fill="#ff9811"/>
      <path id="Trazado_897655" data-name="Trazado 897655" d="M11,28h9v8H9Z" fill="#c2dff6"/>
      <path id="Trazado_897656" data-name="Trazado 897656" d="M58,36V47H6L7,36Z" fill="#ed1c24"/>
      <circle id="Elipse_11668" data-name="Elipse 11668" cx="5" cy="5" r="5" transform="translate(45 43)" fill="#57565c"/>
      <circle id="Elipse_11669" data-name="Elipse 11669" cx="2" cy="2" r="2" transform="translate(48 46)" fill="#e0e0e2"/>
      <circle id="Elipse_11670" data-name="Elipse 11670" cx="5" cy="5" r="5" transform="translate(10 43)" fill="#57565c"/>
      <circle id="Elipse_11671" data-name="Elipse 11671" cx="2" cy="2" r="2" transform="translate(13 46)" fill="#e0e0e2"/>
      <path id="Trazado_897657" data-name="Trazado 897657" d="M10,24H20v4H9Z" fill="#ed1c24"/>
      <path id="Trazado_897658" data-name="Trazado 897658" d="M27,32H39a2,2,0,0,0,2-2V27a1,1,0,0,0-1-1V24a1,1,0,0,0,1-1,5.006,5.006,0,0,0-5-5H30a5.006,5.006,0,0,0-5,5,1,1,0,0,0,1,1v2a1,1,0,0,0-1,1v3A2,2,0,0,0,27,32Zm12-2H27V28H39ZM30,20h6a3.006,3.006,0,0,1,2.829,2H27.171A3.006,3.006,0,0,1,30,20Zm-2,4H38v2H28Z"/>
      <path id="Trazado_897659" data-name="Trazado 897659" d="M50,45a3,3,0,1,0,3,3,3,3,0,0,0-3-3Zm0,4a1,1,0,1,1,1-1A1,1,0,0,1,50,49Z"/>
      <path id="Trazado_897660" data-name="Trazado 897660" d="M15,45a3,3,0,1,0,3,3A3,3,0,0,0,15,45Zm0,4a1,1,0,1,1,1-1A1,1,0,0,1,15,49Z"/>
      <path id="Trazado_897661" data-name="Trazado 897661" d="M62,52H61a1,1,0,0,0,0,2h1a1,1,0,0,0,0-2Z"/>
      <path id="Trazado_897662" data-name="Trazado 897662" d="M58,13H20a1,1,0,0,0-1,1v9H10a1,1,0,0,0-.97.757l-1,4A1,1,0,0,0,9,29h.72l-1.5,6H7a1,1,0,0,0-1,.91l-1,11A1,1,0,0,0,6,48H9a5.969,5.969,0,0,0,1.54,4H2a1,1,0,0,0,0,2H58a1,1,0,0,0,0-2H54.46A5.969,5.969,0,0,0,56,48h2a1,1,0,0,0,1-1V14A1,1,0,0,0,58,13ZM21,15H57V35H21ZM45.54,52H19.46A5.969,5.969,0,0,0,21,48H44a5.969,5.969,0,0,0,1.54,4ZM10.781,25H19v2H10.281Zm1,4H19v6H10.281ZM7.1,46l.818-9H19v6.54A5.981,5.981,0,0,0,9.35,46ZM11,48a4,4,0,1,1,4,4A4,4,0,0,1,11,48Zm35,0a3.74,3.74,0,0,1,.077-.788V47.2a4,4,0,0,1,7.84,0v.014A3.74,3.74,0,0,1,54,48a4,4,0,0,1-8,0Zm11-2H55.659a6,6,0,0,0-11.318,0H21V37H57Z"/>
      <path id="Trazado_897663" data-name="Trazado 897663" d="M43,23h5a1,1,0,0,0,0-2H43a1,1,0,0,0,0,2Z"/>
      <path id="Trazado_897664" data-name="Trazado 897664" d="M43,25a1,1,0,0,0,1,1H54a1,1,0,0,0,0-2H44A1,1,0,0,0,43,25Z"/>
      <path id="Trazado_897665" data-name="Trazado 897665" d="M47,27H44a1,1,0,0,0,0,2h3a1,1,0,0,0,0-2Z"/>
      <path id="Trazado_897666" data-name="Trazado 897666" d="M51,27H50a1,1,0,0,0,0,2h1a1,1,0,0,0,0-2Z"/>
      <path id="Trazado_897667" data-name="Trazado 897667" d="M24,41H44a1,1,0,0,0,0-2H24a1,1,0,0,0,0,2Z"/>
    </g>
  </g>
</svg>
