<svg xmlns="http://www.w3.org/2000/svg" xmlns:xlink="http://www.w3.org/1999/xlink" width="108.914" height="108.914" viewBox="0 0 108.914 108.914">
  <defs>
    <filter id="Trazado_874925" x="0" y="0" width="108.914" height="108.914" filterUnits="userSpaceOnUse">
      <feOffset dy="3" input="SourceAlpha"/>
      <feGaussianBlur stdDeviation="3" result="blur"/>
      <feFlood flood-opacity="0.161"/>
      <feComposite operator="in" in2="blur"/>
      <feComposite in="SourceGraphic"/>
    </filter>
  </defs>
  <g id="Grupo_1107765" data-name="Grupo 1107765" transform="translate(-797.889 -1949.484)">
    <g id="Grupo_1098742" data-name="Grupo 1098742" transform="translate(806.889 1955.484)">
      <g transform="matrix(1, 0, 0, 1, -9, -6)" filter="url(#Trazado_874925)">
        <g id="Trazado_874925-2" data-name="Trazado 874925" transform="translate(9 6)" fill="#ffcd80" opacity="0.859">
          <path d="M 45.45676803588867 89.41407012939453 C 39.52198028564453 89.41407012939453 33.76551818847656 88.25206756591797 28.34726715087891 85.96034240722656 C 23.11311721801758 83.74648284912109 18.41204261779785 80.57682800292969 14.37464332580566 76.5394287109375 C 10.33724308013916 72.50202941894531 7.167593002319336 67.80095672607422 4.953730583190918 62.56679534912109 C 2.662005424499512 57.14855575561523 1.500005483627319 51.39208221435547 1.500005483627319 45.45729446411133 C 1.500005483627319 39.52198028564453 2.662005424499512 33.76551818847656 4.953730583190918 28.34726905822754 C 7.167593002319336 23.11310577392578 10.33724308013916 18.41203117370605 14.37464332580566 14.37464332580566 C 18.41204261779785 10.33724403381348 23.11311721801758 7.167593955993652 28.34726715087891 4.953731060028076 C 33.76551818847656 2.662006139755249 39.52198028564453 1.500006198883057 45.45676803588867 1.500006198883057 C 51.39155578613281 1.500006198883057 57.14802932739258 2.662006139755249 62.56626892089844 4.953731060028076 C 67.80043029785156 7.167593955993652 72.50150299072266 10.33724403381348 76.53890228271484 14.37464332580566 C 80.57630920410156 18.41203117370605 83.74595642089844 23.11310577392578 85.95981597900391 28.34726905822754 C 88.25154113769531 33.76551818847656 89.41354370117188 39.52198028564453 89.41354370117188 45.45676803588867 C 89.41354370117188 51.39208221435547 88.25154113769531 57.14855575561523 85.95981597900391 62.56679534912109 C 83.74595642089844 67.80095672607422 80.57630920410156 72.50202941894531 76.53890228271484 76.5394287109375 C 72.50150299072266 80.57682800292969 67.80043029785156 83.74648284912109 62.56626892089844 85.96034240722656 C 57.14802932739258 88.25206756591797 51.39155578613281 89.41407012939453 45.45676803588867 89.41407012939453 Z" stroke="none"/>
          <path d="M 45.45676803588867 3 C 39.72381210327148 3 34.1639404296875 4.12213134765625 28.93159484863281 6.335227966308594 C 23.87622833251953 8.473472595214844 19.33542633056641 11.53517150878906 15.43529510498047 15.435302734375 C 11.53517150878906 19.33543395996094 8.473464965820312 23.87622833251953 6.335227966308594 28.93160247802734 C 4.122123718261719 34.16394424438477 3 39.72381591796875 3 45.4572868347168 C 3 51.19024658203125 4.122123718261719 56.75011825561523 6.335227966308594 61.98246002197266 C 8.473464965820312 67.03782653808594 11.53517150878906 71.57862854003906 15.43529510498047 75.478759765625 C 19.33542633056641 79.37889099121094 23.87622833251953 82.44058990478516 28.93159484863281 84.57883453369141 C 34.1639404296875 86.79193115234375 39.72381210327148 87.9140625 45.45676803588867 87.9140625 C 51.18972396850586 87.9140625 56.74959564208984 86.79193115234375 61.98194122314453 84.57883453369141 C 67.03730773925781 82.44058990478516 71.57810974121094 79.37889099121094 75.47824096679688 75.478759765625 C 79.37837219238281 71.57862854003906 82.44007110595703 67.03782653808594 84.57830810546875 61.98246002197266 C 86.79141235351562 56.75011825561523 87.91353607177734 51.19024658203125 87.91353607177734 45.4567756652832 C 87.91353607177734 39.72381591796875 86.79141235351562 34.16394424438477 84.57830810546875 28.93160247802734 C 82.44007110595703 23.87622833251953 79.37837219238281 19.33543395996094 75.47824096679688 15.435302734375 C 71.57810974121094 11.53517150878906 67.03730773925781 8.473472595214844 61.98194122314453 6.335227966308594 C 56.74959564208984 4.12213134765625 51.18972396850586 3 45.45676803588867 3 M 45.45676803588867 0 C 70.56185150146484 0 90.91353607177734 20.35169219970703 90.91353607177734 45.4567756652832 L 90.91353607177734 45.4572868347168 C 90.91353607177734 70.5623779296875 70.56185150146484 90.9140625 45.45676803588867 90.9140625 C 20.3516845703125 90.9140625 0 70.5623779296875 0 45.4572868347168 L 0 45.4567756652832 C 0 20.35169219970703 20.3516845703125 0 45.45676803588867 0 Z" stroke="none" fill="#fff"/>
        </g>
      </g>
      <g id="Trazado_874923" data-name="Trazado 874923" transform="translate(0 0)" fill="none">
        <path d="M45.457,0A45.457,45.457,0,0,1,90.914,45.457h0A45.457,45.457,0,0,1,0,45.457H0A45.457,45.457,0,0,1,45.457,0Z" stroke="none"/>
        <path d="M 45.45676803588867 3 C 39.72381210327148 3 34.1639404296875 4.12213134765625 28.93159484863281 6.335227966308594 C 23.87622833251953 8.473472595214844 19.33542633056641 11.53517150878906 15.43529510498047 15.435302734375 C 11.53517150878906 19.33543395996094 8.473464965820312 23.87622833251953 6.335227966308594 28.93160247802734 C 4.122123718261719 34.16394424438477 3 39.72381591796875 3 45.4572868347168 C 3 51.19024658203125 4.122123718261719 56.75011825561523 6.335227966308594 61.98246002197266 C 8.473464965820312 67.03782653808594 11.53517150878906 71.57862854003906 15.43529510498047 75.478759765625 C 19.33542633056641 79.37889099121094 23.87622833251953 82.44058990478516 28.93159484863281 84.57883453369141 C 34.1639404296875 86.79193115234375 39.72381210327148 87.9140625 45.45676803588867 87.9140625 C 51.18972396850586 87.9140625 56.74959564208984 86.79193115234375 61.98194122314453 84.57883453369141 C 67.03730773925781 82.44058990478516 71.57810974121094 79.37889099121094 75.47824096679688 75.478759765625 C 79.37837219238281 71.57862854003906 82.44007110595703 67.03782653808594 84.57830810546875 61.98246002197266 C 86.79141235351562 56.75011825561523 87.91353607177734 51.19024658203125 87.91353607177734 45.4567756652832 C 87.91353607177734 39.72381591796875 86.79141235351562 34.16394424438477 84.57830810546875 28.93160247802734 C 82.44007110595703 23.87622833251953 79.37837219238281 19.33543395996094 75.47824096679688 15.435302734375 C 71.57810974121094 11.53517150878906 67.03730773925781 8.473472595214844 61.98194122314453 6.335227966308594 C 56.74959564208984 4.12213134765625 51.18972396850586 3 45.45676803588867 3 M 45.45676803588867 0 C 70.56185150146484 0 90.91353607177734 20.35169219970703 90.91353607177734 45.4567756652832 L 90.91353607177734 45.4572868347168 C 90.91353607177734 70.5623779296875 70.56185150146484 90.9140625 45.45676803588867 90.9140625 C 20.3516845703125 90.9140625 0 70.5623779296875 0 45.4572868347168 L 0 45.4567756652832 C 0 20.35169219970703 20.3516845703125 0 45.45676803588867 0 Z" stroke="none" fill="#fff"/>
      </g>
    </g>
    <g id="tos" transform="translate(820.051 1968.462)">
      <g id="Grupo_1108330" data-name="Grupo 1108330">
        <g id="Grupo_1108326" data-name="Grupo 1108326">
          <path id="Trazado_897668" data-name="Trazado 897668" d="M62,23.51a28.963,28.963,0,0,1-6.72,18.55L52,46l-9-9,.55-.55A8.348,8.348,0,0,0,46,30.54v-.07A3.465,3.465,0,0,0,42.53,27h-.05a3.548,3.548,0,0,0-2.52,1.04L39,29a10.735,10.735,0,0,1-5.41-6.24l-.76-2.26A3.646,3.646,0,0,0,29.37,18h-.05a3.716,3.716,0,0,0-2.34.81c-.51.41-1.15.93-1.77,1.42A8.02,8.02,0,0,1,20.17,22h-.44A9.7,9.7,0,0,1,10,12.3V12A10,10,0,0,1,20,2a6.177,6.177,0,0,1,1.95.32L25.1,3.37A12.343,12.343,0,0,0,29,4a12.343,12.343,0,0,0,3.9-.63l.79-.27A21.513,21.513,0,0,1,62,23.51Z" fill="#fcd770"/>
        </g>
        <g id="Grupo_1108327" data-name="Grupo 1108327">
          <path id="Trazado_897669" data-name="Trazado 897669" d="M56.74,61.22,57,62H42l.26-.78A7.634,7.634,0,0,1,49.5,56a7.463,7.463,0,0,1,2.5.43,7.6,7.6,0,0,1,4.74,4.79Z" fill="#ecc19c"/>
        </g>
        <g id="Grupo_1108328" data-name="Grupo 1108328">
          <path id="Trazado_897670" data-name="Trazado 897670" d="M49.5,56a7.634,7.634,0,0,0-7.24,5.22L42,62H32a9.761,9.761,0,0,1,3.57-4.84l2.75-1.96A3.992,3.992,0,0,0,40,51.94V50.67l-5.18,1.15a7.743,7.743,0,0,1-1.66.18,7.63,7.63,0,0,1-7.08-4.79L26,47l.59-.59A4.829,4.829,0,0,0,28,43H23l-1-4a8.579,8.579,0,0,1-3.79-.89L18,38l.46-1.85A17.852,17.852,0,0,0,19,31.78V28.16A19.574,19.574,0,0,1,20,22h.17a8.02,8.02,0,0,0,5.04-1.77c.62-.49,1.26-1.01,1.77-1.42A3.716,3.716,0,0,1,29.32,18h.05a3.646,3.646,0,0,1,3.46,2.5l.76,2.26A10.735,10.735,0,0,0,39,29l.96-.96A3.548,3.548,0,0,1,42.48,27h.05A3.465,3.465,0,0,1,46,30.47v.07a8.348,8.348,0,0,1-2.45,5.91L43,37l9,9V56.43A7.463,7.463,0,0,0,49.5,56Z" fill="#f0d0b4"/>
        </g>
        <g id="Grupo_1108329" data-name="Grupo 1108329">
          <path id="Trazado_897671" data-name="Trazado 897671" d="M23,53v6l-3.3,2.47a2.572,2.572,0,0,1-1.58.53,2.121,2.121,0,0,1-1.5-3.62l.76-.76A2.12,2.12,0,0,0,15.88,54h-.14a2.119,2.119,0,0,0-1.32.46l-3.36,2.69a2.5,2.5,0,1,1-3.12-3.9l3.3-2.64A2.04,2.04,0,0,0,12,49.03,2.049,2.049,0,0,0,9.97,47H4a2.006,2.006,0,0,1-2-2,2.015,2.015,0,0,1,2-2h6.15a1.854,1.854,0,0,0,.83-3.51L9.41,38.7A2.528,2.528,0,0,1,8,36.43,2.424,2.424,0,0,1,10.43,34a2.388,2.388,0,0,1,1.08.26L15,36v8a4.009,4.009,0,0,0,4,4,3.995,3.995,0,0,1,4,4Z" fill="#ccd1d9"/>
        </g>
      </g>
      <g id="Grupo_1108331" data-name="Grupo 1108331">
        <path id="Trazado_897672" data-name="Trazado 897672" d="M27.707,28.707l-1.414-1.414-3.981,3.981L27.553,33.9l.894-1.79-2.759-1.379Z"/>
        <path id="Trazado_897673" data-name="Trazado 897673" d="M53,55.764v-9.4L56.052,42.7A30.028,30.028,0,0,0,63,23.51,22.51,22.51,0,0,0,33.372,2.155l-.791.264a11.38,11.38,0,0,1-7.163,0L22.265,1.368A7.136,7.136,0,0,0,20,1,11.013,11.013,0,0,0,9,12v.3a10.726,10.726,0,0,0,9.686,10.647A20.42,20.42,0,0,0,18,28.162v3.622a17.014,17.014,0,0,1-.508,4.123l-.657,2.629.929.464a9.556,9.556,0,0,0,3.447.967L22.219,44h4.646a3.851,3.851,0,0,1-.986,1.707L24.827,46.76l.327.817a8.628,8.628,0,0,0,9.88,5.218L39,51.914v.028a3.007,3.007,0,0,1-1.256,2.441l-2.752,1.966a10.653,10.653,0,0,0-3.941,5.335L30.613,63H58.387l-.7-2.1A8.6,8.6,0,0,0,53,55.764ZM11,12.3V12a9.01,9.01,0,0,1,9-9,5.117,5.117,0,0,1,1.633.266l3.153,1.05a13.379,13.379,0,0,0,8.428,0l.791-.263A20.508,20.508,0,0,1,61,23.51a28.023,28.023,0,0,1-6.484,17.908l-2.583,3.1L44.413,37A9.345,9.345,0,0,0,47,30.471,4.471,4.471,0,0,0,42.477,26a4.524,4.524,0,0,0-3.222,1.33l-.434.435a9.718,9.718,0,0,1-4.286-5.324l-.752-2.257a4.734,4.734,0,0,0-7.425-2.151l-1.77,1.415A7.091,7.091,0,0,1,20.171,21h-.438A8.726,8.726,0,0,1,11,12.3ZM41.279,61h-7.77a8.665,8.665,0,0,1,2.645-3.024l2.752-1.966A5.012,5.012,0,0,0,41,51.941v-.472l2.217-.493-.434-1.953L34.6,50.843A6.659,6.659,0,0,1,33.163,51a6.592,6.592,0,0,1-5.979-3.77l.109-.109A5.868,5.868,0,0,0,29,43V42H23.781l-1-4H22a7.493,7.493,0,0,1-2.83-.558l.263-1.051A19.025,19.025,0,0,0,20,31.784V28.162a18.473,18.473,0,0,1,.758-5.187,9.106,9.106,0,0,0,5.079-1.964L27.608,19.6A2.745,2.745,0,0,1,29.365,19a2.651,2.651,0,0,1,2.52,1.816l.752,2.257a11.715,11.715,0,0,0,5.915,6.821l.645.322,1.473-1.474A2.579,2.579,0,0,1,42.533,28a2.454,2.454,0,0,1,1.747.724A2.5,2.5,0,0,1,45,30.539a7.309,7.309,0,0,1-2.156,5.2L41.586,37,51,46.414V55.14A8.571,8.571,0,0,0,41.312,60.9Zm2.134,0a6.631,6.631,0,0,1,12.174,0Z"/>
        <path id="Trazado_897674" data-name="Trazado 897674" d="M19.1,60.673a1.622,1.622,0,0,1-.982.327,1.121,1.121,0,0,1-.793-1.914l.758-.758A3.121,3.121,0,0,0,15.879,53h-.135a3.135,3.135,0,0,0-1.95.684l-3.358,2.687a1.5,1.5,0,1,1-1.874-2.34l3.3-2.643A3.026,3.026,0,0,0,9.974,46H4a1,1,0,0,1,0-2h6.146a2.854,2.854,0,0,0,1.276-5.407l-1.569-.784A1.537,1.537,0,0,1,9,36.427a1.428,1.428,0,0,1,2.065-1.277l3.487,1.744.9-1.789L11.958,33.36A3.429,3.429,0,0,0,7,36.427,3.525,3.525,0,0,0,8.959,39.6l1.568.784A.854.854,0,0,1,10.146,42H4a3,3,0,0,0,0,6H9.974a1.026,1.026,0,0,1,.641,1.827l-3.3,2.643a3.5,3.5,0,0,0,4.374,5.462l3.358-2.687a1.127,1.127,0,0,1,.7-.245h.135a1.121,1.121,0,0,1,.793,1.914l-.758.758A3.121,3.121,0,0,0,18.121,63a3.657,3.657,0,0,0,2.182-.728L23.6,59.8l-1.2-1.6Z"/>
        <path id="Trazado_897675" data-name="Trazado 897675" d="M15,46h2v2H15Z"/>
        <path id="Trazado_897676" data-name="Trazado 897676" d="M17,42h2v2H17Z"/>
        <path id="Trazado_897677" data-name="Trazado 897677" d="M19,48h2v2H19Z"/>
        <path id="Trazado_897678" data-name="Trazado 897678" d="M21,52h2v2H21Z"/>
      </g>
    </g>
  </g>
</svg>
