<svg xmlns="http://www.w3.org/2000/svg" xmlns:xlink="http://www.w3.org/1999/xlink" width="108.914" height="108.914" viewBox="0 0 108.914 108.914">
  <defs>
    <filter id="Trazado_874925" x="0" y="0" width="108.914" height="108.914" filterUnits="userSpaceOnUse">
      <feOffset dy="3" input="SourceAlpha"/>
      <feGaussianBlur stdDeviation="3" result="blur"/>
      <feFlood flood-opacity="0.161"/>
      <feComposite operator="in" in2="blur"/>
      <feComposite in="SourceGraphic"/>
    </filter>
  </defs>
  <g id="Grupo_1107764" data-name="Grupo 1107764" transform="translate(-1114.051 -1949.462)">
    <g id="Grupo_1107763" data-name="Grupo 1107763" transform="translate(1123.051 1955.462)">
      <g transform="matrix(1, 0, 0, 1, -9, -6)" filter="url(#Trazado_874925)">
        <g id="Trazado_874925-2" data-name="Trazado 874925" transform="translate(9 6)" fill="#ffcd80" opacity="0.859">
          <path d="M 45.45676803588867 89.41407012939453 C 39.52198028564453 89.41407012939453 33.76551818847656 88.25206756591797 28.34726715087891 85.96034240722656 C 23.11311721801758 83.74648284912109 18.41204261779785 80.57682800292969 14.37464332580566 76.5394287109375 C 10.33724308013916 72.50202941894531 7.167593002319336 67.80095672607422 4.953730583190918 62.56679534912109 C 2.662005424499512 57.14855575561523 1.500005483627319 51.39208221435547 1.500005483627319 45.45729446411133 C 1.500005483627319 39.52198028564453 2.662005424499512 33.76551818847656 4.953730583190918 28.34726905822754 C 7.167593002319336 23.11310577392578 10.33724308013916 18.41203117370605 14.37464332580566 14.37464332580566 C 18.41204261779785 10.33724403381348 23.11311721801758 7.167593955993652 28.34726715087891 4.953731060028076 C 33.76551818847656 2.662006139755249 39.52198028564453 1.500006198883057 45.45676803588867 1.500006198883057 C 51.39155578613281 1.500006198883057 57.14802932739258 2.662006139755249 62.56626892089844 4.953731060028076 C 67.80043029785156 7.167593955993652 72.50150299072266 10.33724403381348 76.53890228271484 14.37464332580566 C 80.57630920410156 18.41203117370605 83.74595642089844 23.11310577392578 85.95981597900391 28.34726905822754 C 88.25154113769531 33.76551818847656 89.41354370117188 39.52198028564453 89.41354370117188 45.45676803588867 C 89.41354370117188 51.39208221435547 88.25154113769531 57.14855575561523 85.95981597900391 62.56679534912109 C 83.74595642089844 67.80095672607422 80.57630920410156 72.50202941894531 76.53890228271484 76.5394287109375 C 72.50150299072266 80.57682800292969 67.80043029785156 83.74648284912109 62.56626892089844 85.96034240722656 C 57.14802932739258 88.25206756591797 51.39155578613281 89.41407012939453 45.45676803588867 89.41407012939453 Z" stroke="none"/>
          <path d="M 45.45676803588867 3 C 39.72381210327148 3 34.1639404296875 4.12213134765625 28.93159484863281 6.335227966308594 C 23.87622833251953 8.473472595214844 19.33542633056641 11.53517150878906 15.43529510498047 15.435302734375 C 11.53517150878906 19.33543395996094 8.473464965820312 23.87622833251953 6.335227966308594 28.93160247802734 C 4.122123718261719 34.16394424438477 3 39.72381591796875 3 45.4572868347168 C 3 51.19024658203125 4.122123718261719 56.75011825561523 6.335227966308594 61.98246002197266 C 8.473464965820312 67.03782653808594 11.53517150878906 71.57862854003906 15.43529510498047 75.478759765625 C 19.33542633056641 79.37889099121094 23.87622833251953 82.44058990478516 28.93159484863281 84.57883453369141 C 34.1639404296875 86.79193115234375 39.72381210327148 87.9140625 45.45676803588867 87.9140625 C 51.18972396850586 87.9140625 56.74959564208984 86.79193115234375 61.98194122314453 84.57883453369141 C 67.03730773925781 82.44058990478516 71.57810974121094 79.37889099121094 75.47824096679688 75.478759765625 C 79.37837219238281 71.57862854003906 82.44007110595703 67.03782653808594 84.57830810546875 61.98246002197266 C 86.79141235351562 56.75011825561523 87.91353607177734 51.19024658203125 87.91353607177734 45.4567756652832 C 87.91353607177734 39.72381591796875 86.79141235351562 34.16394424438477 84.57830810546875 28.93160247802734 C 82.44007110595703 23.87622833251953 79.37837219238281 19.33543395996094 75.47824096679688 15.435302734375 C 71.57810974121094 11.53517150878906 67.03730773925781 8.473472595214844 61.98194122314453 6.335227966308594 C 56.74959564208984 4.12213134765625 51.18972396850586 3 45.45676803588867 3 M 45.45676803588867 0 C 70.56185150146484 0 90.91353607177734 20.35169219970703 90.91353607177734 45.4567756652832 L 90.91353607177734 45.4572868347168 C 90.91353607177734 70.5623779296875 70.56185150146484 90.9140625 45.45676803588867 90.9140625 C 20.3516845703125 90.9140625 0 70.5623779296875 0 45.4572868347168 L 0 45.4567756652832 C 0 20.35169219970703 20.3516845703125 0 45.45676803588867 0 Z" stroke="none" fill="#fff"/>
        </g>
      </g>
      <g id="Trazado_874923" data-name="Trazado 874923" transform="translate(0 0)" fill="none">
        <path d="M45.457,0A45.457,45.457,0,0,1,90.914,45.457h0A45.457,45.457,0,0,1,0,45.457H0A45.457,45.457,0,0,1,45.457,0Z" stroke="none"/>
        <path d="M 45.45676803588867 3 C 39.72381210327148 3 34.1639404296875 4.12213134765625 28.93159484863281 6.335227966308594 C 23.87622833251953 8.473472595214844 19.33542633056641 11.53517150878906 15.43529510498047 15.435302734375 C 11.53517150878906 19.33543395996094 8.473464965820312 23.87622833251953 6.335227966308594 28.93160247802734 C 4.122123718261719 34.16394424438477 3 39.72381591796875 3 45.4572868347168 C 3 51.19024658203125 4.122123718261719 56.75011825561523 6.335227966308594 61.98246002197266 C 8.473464965820312 67.03782653808594 11.53517150878906 71.57862854003906 15.43529510498047 75.478759765625 C 19.33542633056641 79.37889099121094 23.87622833251953 82.44058990478516 28.93159484863281 84.57883453369141 C 34.1639404296875 86.79193115234375 39.72381210327148 87.9140625 45.45676803588867 87.9140625 C 51.18972396850586 87.9140625 56.74959564208984 86.79193115234375 61.98194122314453 84.57883453369141 C 67.03730773925781 82.44058990478516 71.57810974121094 79.37889099121094 75.47824096679688 75.478759765625 C 79.37837219238281 71.57862854003906 82.44007110595703 67.03782653808594 84.57830810546875 61.98246002197266 C 86.79141235351562 56.75011825561523 87.91353607177734 51.19024658203125 87.91353607177734 45.4567756652832 C 87.91353607177734 39.72381591796875 86.79141235351562 34.16394424438477 84.57830810546875 28.93160247802734 C 82.44007110595703 23.87622833251953 79.37837219238281 19.33543395996094 75.47824096679688 15.435302734375 C 71.57810974121094 11.53517150878906 67.03730773925781 8.473472595214844 61.98194122314453 6.335227966308594 C 56.74959564208984 4.12213134765625 51.18972396850586 3 45.45676803588867 3 M 45.45676803588867 0 C 70.56185150146484 0 90.91353607177734 20.35169219970703 90.91353607177734 45.4567756652832 L 90.91353607177734 45.4572868347168 C 90.91353607177734 70.5623779296875 70.56185150146484 90.9140625 45.45676803588867 90.9140625 C 20.3516845703125 90.9140625 0 70.5623779296875 0 45.4572868347168 L 0 45.4567756652832 C 0 20.35169219970703 20.3516845703125 0 45.45676803588867 0 Z" stroke="none" fill="#fff"/>
      </g>
    </g>
    <g id="XMLID_55_" transform="translate(1138.053 1923.458)">
      <g id="XMLID_996_" transform="translate(9.969 55.163)">
        <path id="XMLID_1686_" d="M108.486,67.591l14.852,13.767v9.436H99.386a13.386,13.386,0,1,1,9.1-23.2Z" transform="translate(-86 -63.996)" fill="#8aa8bd"/>
        <path id="XMLID_1785_" d="M317.217,176.737a7.28,7.28,0,0,0,7.28,7.28h14.144l-8.22-11.51A7.28,7.28,0,0,0,317.217,176.737Z" transform="translate(-290.41 -157.218)" fill="#8aa8bd"/>
        <g id="XMLID_1647_" transform="translate(23.15 1.174)">
          <path id="XMLID_1652_" d="M289.859,84.008l6.773,1.08-1.08-6.773a4.973,4.973,0,1,0-5.694,5.694Z" transform="translate(-285.669 -74.125)" fill="#a7bdcd"/>
          <path id="XMLID_1650_" d="M382.586,78.316l-1.08,6.773,6.773-1.08a4.973,4.973,0,1,0-5.694-5.694Z" transform="translate(-370.395 -74.126)" fill="#a7bdcd"/>
        </g>
      </g>
      <g id="XMLID_100_" transform="translate(-0.002 54.004)">
        <path id="XMLID_129_" d="M56.282,77.28H58.2a1.159,1.159,0,1,0,0-2.319H54.676l2.42-2.42a1.159,1.159,0,0,0-1.64-1.64L53.28,73.077l-2.357-3.3a8.646,8.646,0,0,0-2.046-2.044l2.308-.368a6.132,6.132,0,1,0-7.021-7.021l-.009.056-.009-.056A6.129,6.129,0,0,0,33.089,57.77a14.378,14.378,0,0,0-15.36-2.608,1.159,1.159,0,1,0,.9,2.138,12.09,12.09,0,0,1,13.04,2.309l.432.4a6.129,6.129,0,0,0,5.026,7.356l2.151.343a8.291,8.291,0,0,0-3.66,6.973,8.414,8.414,0,0,0,2.638,6.12H32.342a6.827,6.827,0,0,0-5.094-5.454A7.788,7.788,0,0,0,20.8,63.179a1.159,1.159,0,1,0,0,2.319,5.481,5.481,0,0,1,5.474,5.474,5.421,5.421,0,0,1-1.943,4.182h-.8a1.159,1.159,0,1,0,0,2.319h2.1A4.5,4.5,0,0,1,29.97,80.8H23.355A12.3,12.3,0,0,1,12.014,63.917a1.159,1.159,0,1,0-2.15-.87,14.278,14.278,0,0,0-.764,2.56,12.233,12.233,0,0,0,3.257,24.057H27.53a4.43,4.43,0,1,1,0,8.86h-6.14a1.159,1.159,0,0,0,0,2.319h6.14a6.749,6.749,0,1,0,0-13.5H12.357a9.914,9.914,0,0,1-3.54-19.221c0,.15-.007.3-.007.45A14.562,14.562,0,0,0,23.355,83.121h24.9L46.98,84.392a1.159,1.159,0,1,0,1.64,1.64L51.4,83.256v2.089a1.159,1.159,0,1,0,2.319,0V83.121H58.2a1.159,1.159,0,0,0,.944-1.833ZM46.455,60.71a3.813,3.813,0,1,1,4.366,4.366l-5.194.828Zm-12.177.6a3.813,3.813,0,0,1,7.579-.6l.828,5.194-5.194-.828a3.8,3.8,0,0,1-3.213-3.766ZM44.056,80.8a6.127,6.127,0,0,1-6.12-6.12,5.963,5.963,0,0,1,4.253-5.828,6.467,6.467,0,0,1,1.962-.307,5.857,5.857,0,0,1,4.886,2.578L55.948,80.8H44.056Z" transform="translate(0.002 -54.004)"/>
        <path id="XMLID_987_" d="M378.308,219.056a1.16,1.16,0,1,0,.82.34A1.168,1.168,0,0,0,378.308,219.056Z" transform="translate(-333.422 -199.92)"/>
        <path id="XMLID_988_" d="M110.531,90.525a1.16,1.16,0,1,0-.821-.34A1.17,1.17,0,0,0,110.531,90.525Z" transform="translate(-96.689 -84.241)"/>
      </g>
    </g>
  </g>
</svg>
