<svg xmlns="http://www.w3.org/2000/svg" xmlns:xlink="http://www.w3.org/1999/xlink" width="108.914" height="108.914" viewBox="0 0 108.914 108.914">
  <defs>
    <filter id="Trazado_874925" x="0" y="0" width="108.914" height="108.914" filterUnits="userSpaceOnUse">
      <feOffset dy="3" input="SourceAlpha"/>
      <feGaussianBlur stdDeviation="3" result="blur"/>
      <feFlood flood-opacity="0.161"/>
      <feComposite operator="in" in2="blur"/>
      <feComposite in="SourceGraphic"/>
    </filter>
  </defs>
  <g id="Grupo_1107933" data-name="Grupo 1107933" transform="translate(-1113.77 -1949.462)">
    <g id="Grupo_1107763" data-name="Grupo 1107763" transform="translate(1122.77 1955.462)">
      <g transform="matrix(1, 0, 0, 1, -9, -6)" filter="url(#Trazado_874925)">
        <g id="Trazado_874925-2" data-name="Trazado 874925" transform="translate(9 6)" fill="#ffcd80" opacity="0.859">
          <path d="M 45.45676803588867 89.41407012939453 C 39.52198028564453 89.41407012939453 33.76551818847656 88.25206756591797 28.34726715087891 85.96034240722656 C 23.11311721801758 83.74648284912109 18.41204261779785 80.57682800292969 14.37464332580566 76.5394287109375 C 10.33724308013916 72.50202941894531 7.167593002319336 67.80095672607422 4.953730583190918 62.56679534912109 C 2.662005424499512 57.14855575561523 1.500005483627319 51.39208221435547 1.500005483627319 45.45729446411133 C 1.500005483627319 39.52198028564453 2.662005424499512 33.76551818847656 4.953730583190918 28.34726905822754 C 7.167593002319336 23.11310577392578 10.33724308013916 18.41203117370605 14.37464332580566 14.37464332580566 C 18.41204261779785 10.33724403381348 23.11311721801758 7.167593955993652 28.34726715087891 4.953731060028076 C 33.76551818847656 2.662006139755249 39.52198028564453 1.500006198883057 45.45676803588867 1.500006198883057 C 51.39155578613281 1.500006198883057 57.14802932739258 2.662006139755249 62.56626892089844 4.953731060028076 C 67.80043029785156 7.167593955993652 72.50150299072266 10.33724403381348 76.53890228271484 14.37464332580566 C 80.57630920410156 18.41203117370605 83.74595642089844 23.11310577392578 85.95981597900391 28.34726905822754 C 88.25154113769531 33.76551818847656 89.41354370117188 39.52198028564453 89.41354370117188 45.45676803588867 C 89.41354370117188 51.39208221435547 88.25154113769531 57.14855575561523 85.95981597900391 62.56679534912109 C 83.74595642089844 67.80095672607422 80.57630920410156 72.50202941894531 76.53890228271484 76.5394287109375 C 72.50150299072266 80.57682800292969 67.80043029785156 83.74648284912109 62.56626892089844 85.96034240722656 C 57.14802932739258 88.25206756591797 51.39155578613281 89.41407012939453 45.45676803588867 89.41407012939453 Z" stroke="none"/>
          <path d="M 45.45676803588867 3 C 39.72381210327148 3 34.1639404296875 4.12213134765625 28.93159484863281 6.335227966308594 C 23.87622833251953 8.473472595214844 19.33542633056641 11.53517150878906 15.43529510498047 15.435302734375 C 11.53517150878906 19.33543395996094 8.473464965820312 23.87622833251953 6.335227966308594 28.93160247802734 C 4.122123718261719 34.16394424438477 3 39.72381591796875 3 45.4572868347168 C 3 51.19024658203125 4.122123718261719 56.75011825561523 6.335227966308594 61.98246002197266 C 8.473464965820312 67.03782653808594 11.53517150878906 71.57862854003906 15.43529510498047 75.478759765625 C 19.33542633056641 79.37889099121094 23.87622833251953 82.44058990478516 28.93159484863281 84.57883453369141 C 34.1639404296875 86.79193115234375 39.72381210327148 87.9140625 45.45676803588867 87.9140625 C 51.18972396850586 87.9140625 56.74959564208984 86.79193115234375 61.98194122314453 84.57883453369141 C 67.03730773925781 82.44058990478516 71.57810974121094 79.37889099121094 75.47824096679688 75.478759765625 C 79.37837219238281 71.57862854003906 82.44007110595703 67.03782653808594 84.57830810546875 61.98246002197266 C 86.79141235351562 56.75011825561523 87.91353607177734 51.19024658203125 87.91353607177734 45.4567756652832 C 87.91353607177734 39.72381591796875 86.79141235351562 34.16394424438477 84.57830810546875 28.93160247802734 C 82.44007110595703 23.87622833251953 79.37837219238281 19.33543395996094 75.47824096679688 15.435302734375 C 71.57810974121094 11.53517150878906 67.03730773925781 8.473472595214844 61.98194122314453 6.335227966308594 C 56.74959564208984 4.12213134765625 51.18972396850586 3 45.45676803588867 3 M 45.45676803588867 0 C 70.56185150146484 0 90.91353607177734 20.35169219970703 90.91353607177734 45.4567756652832 L 90.91353607177734 45.4572868347168 C 90.91353607177734 70.5623779296875 70.56185150146484 90.9140625 45.45676803588867 90.9140625 C 20.3516845703125 90.9140625 0 70.5623779296875 0 45.4572868347168 L 0 45.4567756652832 C 0 20.35169219970703 20.3516845703125 0 45.45676803588867 0 Z" stroke="none" fill="#fff"/>
        </g>
      </g>
      <g id="Trazado_874923" data-name="Trazado 874923" transform="translate(0 0)" fill="none">
        <path d="M45.457,0A45.457,45.457,0,0,1,90.914,45.457h0A45.457,45.457,0,0,1,0,45.457H0A45.457,45.457,0,0,1,45.457,0Z" stroke="none"/>
        <path d="M 45.45676803588867 3 C 39.72381210327148 3 34.1639404296875 4.12213134765625 28.93159484863281 6.335227966308594 C 23.87622833251953 8.473472595214844 19.33542633056641 11.53517150878906 15.43529510498047 15.435302734375 C 11.53517150878906 19.33543395996094 8.473464965820312 23.87622833251953 6.335227966308594 28.93160247802734 C 4.122123718261719 34.16394424438477 3 39.72381591796875 3 45.4572868347168 C 3 51.19024658203125 4.122123718261719 56.75011825561523 6.335227966308594 61.98246002197266 C 8.473464965820312 67.03782653808594 11.53517150878906 71.57862854003906 15.43529510498047 75.478759765625 C 19.33542633056641 79.37889099121094 23.87622833251953 82.44058990478516 28.93159484863281 84.57883453369141 C 34.1639404296875 86.79193115234375 39.72381210327148 87.9140625 45.45676803588867 87.9140625 C 51.18972396850586 87.9140625 56.74959564208984 86.79193115234375 61.98194122314453 84.57883453369141 C 67.03730773925781 82.44058990478516 71.57810974121094 79.37889099121094 75.47824096679688 75.478759765625 C 79.37837219238281 71.57862854003906 82.44007110595703 67.03782653808594 84.57830810546875 61.98246002197266 C 86.79141235351562 56.75011825561523 87.91353607177734 51.19024658203125 87.91353607177734 45.4567756652832 C 87.91353607177734 39.72381591796875 86.79141235351562 34.16394424438477 84.57830810546875 28.93160247802734 C 82.44007110595703 23.87622833251953 79.37837219238281 19.33543395996094 75.47824096679688 15.435302734375 C 71.57810974121094 11.53517150878906 67.03730773925781 8.473472595214844 61.98194122314453 6.335227966308594 C 56.74959564208984 4.12213134765625 51.18972396850586 3 45.45676803588867 3 M 45.45676803588867 0 C 70.56185150146484 0 90.91353607177734 20.35169219970703 90.91353607177734 45.4567756652832 L 90.91353607177734 45.4572868347168 C 90.91353607177734 70.5623779296875 70.56185150146484 90.9140625 45.45676803588867 90.9140625 C 20.3516845703125 90.9140625 0 70.5623779296875 0 45.4572868347168 L 0 45.4567756652832 C 0 20.35169219970703 20.3516845703125 0 45.45676803588867 0 Z" stroke="none" fill="#fff"/>
      </g>
    </g>
    <g id="sucio" transform="translate(1135.77 1968.462)">
      <g id="Grupo_1108332" data-name="Grupo 1108332">
        <path id="Trazado_897679" data-name="Trazado 897679" d="M62,52l-.931,1.3A13.6,13.6,0,0,1,50,59a3,3,0,0,0-3,3H17a3,3,0,0,0-3-3A13.6,13.6,0,0,1,2.931,53.3L2,52Z" fill="#53aad6"/>
        <path id="Trazado_897680" data-name="Trazado 897680" d="M50,59a13.605,13.605,0,0,0,11.069-5.7L62,52H20A10,10,0,0,0,30,62H47A3,3,0,0,1,50,59Z" fill="#71b7d3"/>
        <path id="Trazado_897681" data-name="Trazado 897681" d="M47.4,48.567C56.147,49.266,62,50.542,62,52c0,2.209-13.431,4-30,4S2,54.209,2,52c0-1.376,5.214-2.59,13.152-3.31Z" fill="#d7eef4"/>
        <path id="Trazado_897682" data-name="Trazado 897682" d="M13,39a22.966,22.966,0,0,0,7.214,16.679c3.619.206,7.6.321,11.786.321,3.423,0,6.708-.078,9.773-.218l.2-.159A18.792,18.792,0,0,0,49,41V33Z" fill="#f3b554"/>
        <path id="Trazado_897683" data-name="Trazado 897683" d="M20.16,48.69a44.163,44.163,0,0,0,3.872,7.162c2.542.094,5.2.148,7.968.148,3.423,0,6.708-.078,9.773-.218l.2-.159A18.792,18.792,0,0,0,49,41V33L29.457,36.257,18,39a22.877,22.877,0,0,0,2.16,9.69Z" fill="#fcc172"/>
        <path id="Trazado_897684" data-name="Trazado 897684" d="M33,35.667V46a2,2,0,0,0,4,0V35Z" fill="#723703"/>
        <path id="Trazado_897685" data-name="Trazado 897685" d="M41,34.333V40a2,2,0,0,0,4,0V33.667Z" fill="#723703"/>
        <path id="Trazado_897686" data-name="Trazado 897686" d="M17.76,36H16a3,3,0,0,0,0,6h.507c1.579,0,3.153-.065,4.721-.183A30.776,30.776,0,0,1,17.781,36Z" fill="#fce4ca"/>
        <path id="Trazado_897687" data-name="Trazado 897687" d="M15,20.65v2.621a31.128,31.128,0,0,0,6.228,18.546A63.131,63.131,0,0,0,48.3,33.4c.026-.113.045-.228.07-.341A26.681,26.681,0,0,0,49,27.35Z" fill="#4ca8a2"/>
        <path id="Trazado_897688" data-name="Trazado 897688" d="M19,21.65v2.621A30.7,30.7,0,0,0,21.781,37a31.29,31.29,0,0,0,2.51,4.5,63.14,63.14,0,0,0,24.014-8.1c.026-.113.045-.228.07-.341a26.708,26.708,0,0,0,.62-5.5Z" fill="#56bab1"/>
        <path id="Trazado_897689" data-name="Trazado 897689" d="M48.374,33.06c-.025.113-.043.228-.07.341.232-.134.466-.263.7-.4Z" fill="#fce4ca"/>
        <path id="Trazado_897690" data-name="Trazado 897690" d="M48.914,26.563A3.608,3.608,0,0,1,49,27.35,7.026,7.026,0,0,1,42.838,31a43.623,43.623,0,0,1-11.471-1.536A69.256,69.256,0,0,1,20.934,25.7l-3.875-1.761A3.512,3.512,0,0,1,15,20.739v-.091A3.649,3.649,0,0,1,18.649,17h.2q.823,0,1.647.028Z" fill="#d0eae6"/>
        <path id="Trazado_897691" data-name="Trazado 897691" d="M43,14h4a5,5,0,0,1,5,5v2.879A5.121,5.121,0,0,1,46.879,27H43Z" fill="#07406b"/>
        <path id="Trazado_897692" data-name="Trazado 897692" d="M43,18h2.5a2.5,2.5,0,0,1,0,5H43Z" fill="#eefcff"/>
        <path id="Trazado_897693" data-name="Trazado 897693" d="M24.123,11V27.041a69.251,69.251,0,0,0,7.245,2.423A43.61,43.61,0,0,0,42.838,31c.055,0,.107-.01.162-.011V11Z" fill="#256f8c"/>
        <path id="Trazado_897694" data-name="Trazado 897694" d="M35,17.828a2,2,0,1,0,4,0v2a2,2,0,1,0,4,0V11H35Z" fill="#723703"/>
        <path id="Trazado_897695" data-name="Trazado 897695" d="M25.81,10.169C27.23,9.479,30.363,9,34,9c4.971,0,9,.9,9,2s-4.029,2-9,2c-3.7,0-6.881-.5-8.263-1.206L24.123,11Z" fill="#91bfce"/>
        <path id="Trazado_897696" data-name="Trazado 897696" d="M23,2a3,3,0,0,0-3,3V6l.5,11.027.393,8.653.04.018c1.345.611,2.713,1.166,4.093,1.69l.4-8.709L26,6V5a3,3,0,0,0-3-3Z" fill="#7b7b7b"/>
        <path id="Trazado_897697" data-name="Trazado 897697" d="M22,26.172V35a2,2,0,0,0,4,0V33a2,2,0,0,0,4,0V29.062a69.352,69.352,0,0,1-8-2.905Z" fill="#723703"/>
        <path id="Trazado_897698" data-name="Trazado 897698" d="M25.424,18.679,26,6V5a2.99,2.99,0,0,0-2-2.816A2.99,2.99,0,0,0,22,5V6l.5,11.027.393,8.653.043.883q1.04.427,2.091.825Z" fill="#999"/>
      </g>
      <path id="Trazado_897699" data-name="Trazado 897699" d="M48.839,47.685A19.78,19.78,0,0,0,50,41V33a1,1,0,0,0-.429-.812A27.723,27.723,0,0,0,50,27.35c0-.067-.019-.131-.022-.2a6.156,6.156,0,0,0,1.229-.945A6.084,6.084,0,0,0,53,21.879V19a6.006,6.006,0,0,0-6-6H44V11c0-2.784-7.654-3-10-3a29.873,29.873,0,0,0-7.125.742L27,6V5a4,4,0,0,0-8,0l.476,11.01c-.207,0-.414-.01-.621-.011h-.2A4.674,4.674,0,0,0,14,20.65v2.621A31.8,31.8,0,0,0,16.283,35H16a4,4,0,0,0-4,4,23.856,23.856,0,0,0,1.706,8.824C1,49.109,1,51.123,1,52a1.745,1.745,0,0,0,.817,1.463l.3.421A14.628,14.628,0,0,0,14,60a2,2,0,0,1,2,2,1,1,0,0,0,1,1H47a1,1,0,0,0,1-1,2,2,0,0,1,2-2,14.63,14.63,0,0,0,11.882-6.115l.3-.423A1.744,1.744,0,0,0,63,52C63,51.074,63,48.943,48.839,47.685Zm11.99,4.32c-1.32.921-7.143,2.05-16.3,2.623a19.592,19.592,0,0,0,3.495-5.005C56.419,50.337,59.91,51.4,60.829,52.005ZM20.646,54.7a21.969,21.969,0,0,1-6.338-12.089A3.954,3.954,0,0,0,16,43h.507A64.093,64.093,0,0,0,32,41.092V46a3,3,0,0,0,6,0V39.284q1.007-.357,2-.748V40a3,3,0,0,0,6,0V35.815c.672-.348,1.34-.705,2-1.077V41a17.64,17.64,0,0,1-6.6,13.795C38.528,54.923,35.4,55,32,55,27.824,55,24.027,54.888,20.646,54.7ZM44,28h2.879c.15,0,.3-.011.446-.022A6.011,6.011,0,0,1,44,29.874Zm0-9h1.5a1.5,1.5,0,0,1,0,3H44Zm-2,.829a1,1,0,0,1-2,0v-2a1,1,0,0,0-2,0,1,1,0,0,1-2,0V13.951a21.71,21.71,0,0,0,6-.969Zm-5,1a2.985,2.985,0,0,0,1.1-.211A3.007,3.007,0,0,0,41,22.829a2.966,2.966,0,0,0,1-.184v7.328A42.608,42.608,0,0,1,31.63,28.5c-1.876-.512-3.737-1.113-5.57-1.787L26.674,13.2A28.91,28.91,0,0,0,34,14v3.829a3,3,0,0,0,3,3Zm-8,8.98V33a1,1,0,0,1-2,0,1,1,0,0,0-2,0v2a1,1,0,0,1-2,0V27.676C24.965,28.479,26.972,29.187,29,29.809Zm-8.479-3.2c.158.072.321.136.479.206V35a3,3,0,0,0,5.9.789A3,3,0,0,0,31,33V30.4l.1.031A44.639,44.639,0,0,0,42.838,32a8.023,8.023,0,0,0,5-1.747c-.1.843-.241,1.679-.42,2.508a62.152,62.152,0,0,1-25.7,8.011A29.9,29.9,0,0,1,16.051,24.52a4.385,4.385,0,0,0,.594.328ZM42,37.71q1.007-.437,2-.906V40a1,1,0,0,1-2,0Zm-8,2.85q1-.285,2-.6V46a1,1,0,0,1-2,0ZM47,15a4,4,0,0,1,4,4v2.879a4.153,4.153,0,0,1-1.207,2.914A4.094,4.094,0,0,1,46.879,26H44V24h1.5a3.5,3.5,0,0,0,0-7H44V15ZM34,10a22.492,22.492,0,0,1,7.616,1A22.492,22.492,0,0,1,34,12a24.5,24.5,0,0,1-7.233-.865l.012-.274A24.723,24.723,0,0,1,34,10ZM21,5a2,2,0,0,1,4,0v.955l-.909,20c-.749-.3-1.49-.62-2.227-.947L21,6ZM18.649,18h.2c.236,0,.472.009.709.012l.263,6.084-2.351-1.068A2.553,2.553,0,0,1,16,20.648,2.652,2.652,0,0,1,18.649,18ZM16,37h1.16a31.739,31.739,0,0,0,2.231,3.925c-.959.044-1.92.075-2.884.075H16a2,2,0,1,1,0-4ZM14.569,49.751a23.946,23.946,0,0,0,3.158,4.759c-8.147-.6-13.317-1.642-14.555-2.5.861-.563,3.994-1.543,11.4-2.255ZM50,58a4.006,4.006,0,0,0-3.873,3H17.873A4.006,4.006,0,0,0,14,58a12.622,12.622,0,0,1-8.178-3.021c1.265.292,2.84.575,4.833.841A170.32,170.32,0,0,0,32,57a170.348,170.348,0,0,0,21.346-1.18c1.992-.266,3.568-.548,4.833-.841A12.627,12.627,0,0,1,50,58Z"/>
    </g>
  </g>
</svg>
