<svg xmlns="http://www.w3.org/2000/svg" xmlns:xlink="http://www.w3.org/1999/xlink" width="294.5" height="400.578" viewBox="0 0 294.5 400.578">
  <defs>
    <clipPath id="clip-path">
      <rect id="Rectángulo_403166" data-name="Rectángulo 403166" width="294.5" height="400.578" rx="14" transform="translate(180.051 9912)" fill="#9ec9ff"/>
    </clipPath>
    <clipPath id="clip-path-2">
      <rect id="Rectángulo_403163" data-name="Rectángulo 403163" width="260.814" height="339.414" fill="none"/>
    </clipPath>
    <clipPath id="clip-path-3">
      <rect id="Rectángulo_403164" data-name="Rectángulo 403164" width="99.761" height="101.405" fill="none"/>
    </clipPath>
  </defs>
  <g id="Enmascarar_grupo_1098722" data-name="Enmascarar grupo 1098722" transform="translate(-180.051 -9912)" clip-path="url(#clip-path)">
    <g id="Grupo_1108344" data-name="Grupo 1108344">
      <rect id="Rectángulo_402935" data-name="Rectángulo 402935" width="294.5" height="400.578" rx="14" transform="translate(180.051 9912)" fill="#9ec9ff"/>
      <g id="Grupo_1108343" data-name="Grupo 1108343" transform="translate(-5.338 -15.313)">
        <g id="Grupo_1108340" data-name="Grupo 1108340" transform="translate(204.145 9957.313)">
          <path id="Trazado_898165" data-name="Trazado 898165" d="M44.407,114.13l41.027-7.406v-3.339h133.89L197,106.725l-18.7,7.406Z" transform="translate(-5.267 -12.262)" fill="#c99953"/>
          <g id="Grupo_1108339" data-name="Grupo 1108339">
            <g id="Grupo_1108338" data-name="Grupo 1108338" clip-path="url(#clip-path-2)">
              <path id="Trazado_898166" data-name="Trazado 898166" d="M137.051,58.72a17.4,17.4,0,0,1,1.7,6.784,4.3,4.3,0,0,1-1.277,3.522c-.935.806-2.426,1.2-2.687,2.406-.219,1.008.612,1.934,1.463,2.516a5.678,5.678,0,0,1,2.271,2.035c.623,1.4-.381,3.025-1.605,3.954s-2.723,1.527-3.719,2.7c-2.279,2.676.041,4.3.275,6.833.255,2.761-2.076,5.4-1.849,8.3.274,3.526,3.342,6.191,4.381,9.572a8.756,8.756,0,0,1-.611,6.56c-1.266,2.412-3.63,4.161-4.641,6.689-1.629,4.073.725,8.557,3.035,12.286s4.741,8.138,3.256,12.265c-1.117,3.105-4.207,5.08-7.33,6.148-3.788,1.3-8.4,1.442-11.385-1.223-3.414-3.044-3.366-8.333-5.337-12.459-3.132-6.558-10.914-9.384-18.086-10.555s-14.815-1.431-20.973-5.289a6.838,6.838,0,0,1-2.979-3.149c-.613-1.636-.128-3.493-.546-5.189-.539-2.181-2.449-3.715-4.3-4.983-4.4-3.006-9.165-4.687-13.931-6.874-2.794-1.282-8.116-2.374-9.673-5.243a8.358,8.358,0,0,1-.628-4.275q.1-3.349.2-6.7a11.419,11.419,0,0,0-.476-4.529c-1.936-4.937-9.5-5.234-12.051-9.883-1.427-2.6-.836-5.853.3-8.594s2.778-5.3,3.452-8.185c1.265-5.419-1.047-10.934-2.471-16.313a51.989,51.989,0,0,1-1.7-14.474c.077-3.363-.1-9.115,1.68-12.06C34.423,5.324,45.45,4.494,51.155,6.837c5.258,2.16,9.384,6.682,14.834,8.3,4.968,1.473,10.274.321,15.435-.15S92.407,15,95.918,18.813c3.278,3.56,3.684,9.157,7.168,12.517,3.031,2.924,7.569,3.409,11.688,4.292s8.668,2.856,9.821,6.907c.56,1.962.2,4.114.874,6.039,1.728,4.937,8.874,5.678,11.582,10.153" transform="translate(-3.405 -0.667)" fill="#ccc876"/>
              <path id="Trazado_898167" data-name="Trazado 898167" d="M54.721,26.5c14.7,17.887,23.889,39.459,37.688,57.99,7.034,9.447,14.4,18.507,20.1,28.865,5.559,10.1,10.147,20.758,14.741,31.323,1.609,3.7,7.02.5,5.423-3.17-4.712-10.832-9.454-21.616-15.6-31.73-6.12-10.067-13.827-18.821-21.2-27.961-14.5-17.991-24.579-39.144-40.1-56.369-.65-.721-1.649.324-1.052,1.052" transform="translate(-6.468 -2.989)" fill="#e0da90"/>
              <path id="Trazado_898168" data-name="Trazado 898168" d="M41.684,75.9c6.976,5.72,15.371,8.421,24.1,10.215,5.112,1.052,10.3,1.8,15.352,3.125a49.753,49.753,0,0,1,8.3,2.793c2.026.938,3.719,2.237,5.878,2.858,1.773.509,3.77-1.686,2.566-3.339-2.454-3.368-6.789-4.585-10.7-5.629A148.47,148.47,0,0,0,71.75,83.035c-9.943-1.556-19.943-3.377-28.114-9.661-1.437-1.106-3.367,1.371-1.952,2.53" transform="translate(-4.885 -8.669)" fill="#e0da90"/>
              <path id="Trazado_898169" data-name="Trazado 898169" d="M41.255,40.905c3.757,4.309,6.8,9.086,10.349,13.54,2.15,2.7,5.844,6.89,9.658,6.39a1.385,1.385,0,0,0,.964-2.328c-1.385-1.545-3.359-2.221-4.915-3.64a41.582,41.582,0,0,1-4.3-4.815c-3.1-3.882-6.147-7.723-9.6-11.309-1.378-1.432-3.444.692-2.162,2.162" transform="translate(-4.845 -4.539)" fill="#e0da90"/>
              <path id="Trazado_898170" data-name="Trazado 898170" d="M39.21,53.229A43.58,43.58,0,0,0,58.337,63.964c3.859.967,7.9.779,11.595,2.363,4.006,1.715,7.523,4.4,11.615,5.92,2.565.955,3.57-2.693,1.719-4.078A40.461,40.461,0,0,0,63.951,60.2c-8.489-.989-16.109-3.443-22.93-8.78-1.26-.985-3.045.651-1.811,1.811" transform="translate(-4.601 -6.062)" fill="#e0da90"/>
              <path id="Trazado_898171" data-name="Trazado 898171" d="M71.975,22.247c.5,3.693,1.158,8.179,3.31,11.309,1.128,1.643,4.336.665,3.474-1.464-1.46-3.608-3.509-6.633-4.472-10.483-.386-1.541-2.513-.841-2.311.637" transform="translate(-8.535 -2.46)" fill="#e0da90"/>
              <path id="Trazado_898172" data-name="Trazado 898172" d="M82.612,23.5a39.9,39.9,0,0,0-5.877,17.845C76.316,46.677,76.771,54.3,80.2,58.6a1.208,1.208,0,0,0,2.045-.847c-.165-2.456-1.151-4.7-1.617-7.116a38.119,38.119,0,0,1-.573-8.6,37.025,37.025,0,0,1,4.91-17.167A1.364,1.364,0,0,0,82.612,23.5" transform="translate(-9.085 -2.709)" fill="#e0da90"/>
              <path id="Trazado_898173" data-name="Trazado 898173" d="M94.248,29.427C92.812,37.07,88.4,43.709,87.778,51.57a48.256,48.256,0,0,0,.6,10.988c.556,3.675.864,8.284,3.093,11.335.634.868,2.438,1.022,2.642-.346.46-3.071-.621-5.852-1.2-8.876A53.558,53.558,0,0,1,91.9,51.57c.432-7.583,4.159-14.294,5.112-21.77.2-1.561-2.468-1.925-2.76-.374" transform="translate(-10.398 -3.372)" fill="#e0da90"/>
              <path id="Trazado_898174" data-name="Trazado 898174" d="M54.841,69.794a38.115,38.115,0,0,1,8.444,9.338C64.85,81.549,67,84.622,70.2,84.462a1.006,1.006,0,0,0,.7-1.693c-1.171-1.467-3.01-2.006-4.395-3.276A38.815,38.815,0,0,1,63.2,75.726a39.265,39.265,0,0,0-7.611-6.9c-.569-.4-1.3.535-.751.973" transform="translate(-6.481 -8.151)" fill="#e0da90"/>
              <path id="Trazado_898175" data-name="Trazado 898175" d="M57.221,104.479c4.522-1.275,7.307-4.575,10.656-7.641,5.033-4.607,11.221-4.592,17.551-6.115,1.9-.457,1.545-3.757-.472-3.489-5.294.7-11.6,1.279-16.188,4.236-4.446,2.869-7.213,8.066-12.493,9.583-2.193.63-1.264,4.048.945,3.426" transform="translate(-6.526 -10.344)" fill="#e0da90"/>
              <path id="Trazado_898176" data-name="Trazado 898176" d="M80.152,113.676c14.53-3.6,25.094,5.5,37.138,11.634,2.725,1.389,4.648-2.217,2.336-4-10.97-8.439-26.462-14.57-40.22-10.348a1.406,1.406,0,0,0,.747,2.709" transform="translate(-9.3 -12.998)" fill="#e0da90"/>
              <path id="Trazado_898177" data-name="Trazado 898177" d="M116.325,49.518c.214,9.088-5.477,17.291-6.789,26.23-1.176,8.013-1.848,17.786.153,25.685.634,2.5,3.981,1.71,4.22-.571.45-4.286-.33-8.777-.359-13.1a69.634,69.634,0,0,1,1.256-14.752c1.635-7.811,5.429-15.356,4.575-23.494-.2-1.912-3.105-2.008-3.058,0" transform="translate(-12.858 -5.698)" fill="#e0da90"/>
              <path id="Trazado_898178" data-name="Trazado 898178" d="M98.463,38.269a35.649,35.649,0,0,0,2.543,19.426c1.462,3.393,3.35,6.567,4.507,10.092,1.166,3.554,1.4,7.348,2.61,10.861.676,1.966,3.738,1.727,3.734-.505-.012-6.291-2.42-12.638-5.155-18.21a46.8,46.8,0,0,1-4.055-10.969c-.762-3.54-.813-7.183-1.633-10.695a1.332,1.332,0,0,0-2.55,0" transform="translate(-11.627 -4.426)" fill="#e0da90"/>
              <path id="Trazado_898179" data-name="Trazado 898179" d="M132.424,71.786c-4.148,4.277-9.2,7.2-13.872,10.809-2.887,2.231-6.894,5.757-5.195,9.725a1.412,1.412,0,0,0,1.921.5c1.815-1.171,2.151-3.039,3.565-4.624,1.661-1.86,3.946-3.213,5.865-4.8a59.389,59.389,0,0,0,9.857-9.963c.942-1.251-1.083-2.743-2.141-1.653" transform="translate(-13.396 -8.469)" fill="#e0da90"/>
              <path id="Trazado_898180" data-name="Trazado 898180" d="M138.8,93.7c-3.12,3.677-7.072,6.553-9.582,10.738a68.737,68.737,0,0,0-6.588,15.754c-.741,2.56,2.969,3.442,3.9,1.076,1.948-4.927,3.515-10.17,6.246-14.748,2.3-3.864,6.019-6.544,8.883-9.957,1.662-1.981-1.171-4.857-2.863-2.863" transform="translate(-14.532 -11.033)" fill="#e0da90"/>
              <path id="Trazado_898181" data-name="Trazado 898181" d="M130.441,88.583c-1.85,5.414-4.118,13.222-2.285,18.866a1.875,1.875,0,0,0,3.586,0c.695-2.657.3-5.525.48-8.265.217-3.278.524-6.584,1.007-9.832a1.447,1.447,0,0,0-2.789-.769" transform="translate(-15.119 -10.384)" fill="#e0da90"/>
              <path id="Trazado_898182" data-name="Trazado 898182" d="M124.814,56.009c-2.284,2.6-7.6,1.882-8.729,5.78a2.049,2.049,0,0,0,2.974,2.286,16.573,16.573,0,0,0,1.984-1.568c.725-.5,1.5-.875,2.21-1.407a13.116,13.116,0,0,0,3.572-3.54c.732-1.222-1.034-2.664-2.011-1.552" transform="translate(-13.757 -6.595)" fill="#e0da90"/>
              <path id="Trazado_898183" data-name="Trazado 898183" d="M191.627,46.34c.68-2.549-.565-5.3-2.463-7.131a23.522,23.522,0,0,0-6.761-4.038,3.855,3.855,0,0,1-1.695-1.194,4.138,4.138,0,0,1-.376-2.577c.126-2.212-.059-4.661-1.6-6.251-2.384-2.457-6.529-1.572-9.679-2.916-2.573-1.1-4.267-3.615-5.33-6.2s-1.645-5.36-2.809-7.9c-1.6-3.505-4.475-6.588-8.171-7.679-3.946-1.164-8.251.07-11.812,2.13A23.425,23.425,0,0,0,131.4,12.667a24.883,24.883,0,0,1-1.991,3.982c-3.865,5.419-13.036,4.225-17.208,9.412-2.8,3.484-2.268,8.531-1.192,12.87,1.23,4.961,2.824,10.468,5.457,14.89,2.126,3.57,3.927,7.25.111,10.8a15.23,15.23,0,0,0-2.438,2.263c-1.637,2.384.041,5.817,2.508,7.329s5.466,1.787,8.226,2.649,5.609,2.73,6.015,5.593c.4,2.835-1.725,5.388-2.218,8.208-.705,4.03,2.065,7.935,5.429,10.262s7.351,3.579,10.884,5.64c14.188,8.275,13.694,25.94,14.109,40.416.148,5.169.14,10.537,2.345,15.215s7.4,8.424,12.4,7.1c5.13-1.356,7.67-7.064,8.944-12.214,1.824-7.375,2.5-15.147.918-22.577-1.272-5.974-3.969-11.6-4.961-17.622a11.083,11.083,0,0,1,.356-6.139c.844-1.975,2.569-3.407,4.182-4.825a82.106,82.106,0,0,0,10.636-11.311c1.618-2.086,3.2-4.422,3.273-7.061.1-3.66-2.686-7.451-1.036-10.72.378-.748.96-1.372,1.4-2.086a6.448,6.448,0,0,0-2.033-8.528c-1.312-.809-1.351-1.16-1.625-2.677-.265-1.466.763-2.806,1.564-4.061s1.378-3.029.372-4.128c-.665-.726-1.8-.857-2.484-1.566a4.014,4.014,0,0,1-.757-2.787c-.029-1.731-1.4-2.983-.952-4.655" transform="translate(-13.062 0)" fill="#afa856"/>
              <path id="Trazado_898184" data-name="Trazado 898184" d="M156.3,29.784c5.685,20.987,4.255,43.125,9.65,64.161,1.3,5.057,3.207,9.937,4.439,15.01a105.678,105.678,0,0,1,2.233,17.224c.87,11.727,1.671,23.461,2.014,35.217.1,3.291,5.236,3.3,5.124,0-.4-11.758-1.252-23.491-2.18-35.217a130.458,130.458,0,0,0-1.954-16.121c-1.115-5.413-3.147-10.555-4.634-15.865-5.982-21.361-4.586-44.11-12.938-64.892-.425-1.057-2.068-.677-1.753.483" transform="translate(-18.532 -3.402)" fill="#c6bd67"/>
              <path id="Trazado_898185" data-name="Trazado 898185" d="M133.245,49.232c1.874,5.039,3.545,9.951,6.646,14.412,3.253,4.68,8.426,7.52,11.742,12.171s5.265,10.136,7.3,15.425c1.379,3.593,2.8,10.155,6.439,11.966a1.469,1.469,0,0,0,2.176-1.248c.257-2.319-1.025-3.958-1.928-6.046-1.2-2.777-2.2-5.639-3.27-8.467-1.75-4.627-3.58-9.278-6.423-13.361-3-4.312-7.1-7.274-10.867-10.854a81.464,81.464,0,0,1-11.434-14.156c-.122-.183-.464-.072-.377.16" transform="translate(-15.801 -5.809)" fill="#c6bd67"/>
              <path id="Trazado_898186" data-name="Trazado 898186" d="M178.049,40.3c-1.713,4.381-3.548,8.659-5.582,12.9-1.6,3.329-3.772,6.506-5.1,9.932a28.731,28.731,0,0,0-1.41,8.83c-.195,3.608-.576,7.306,1.135,10.579.7,1.33,2.395.763,2.87-.375,1.321-3.167.826-6.819,1.021-10.2a24.976,24.976,0,0,1,3.136-11.287c3.3-6.191,4.753-12.928,6.244-19.733a1.2,1.2,0,0,0-2.311-.638" transform="translate(-19.661 -4.681)" fill="#c6bd67"/>
              <path id="Trazado_898187" data-name="Trazado 898187" d="M139.211,37.489a140.5,140.5,0,0,1,2.829,17.746c.405,4.347,3.184,9.34,5.828,12.713.888,1.133,2.585-.115,2.278-1.327a37.033,37.033,0,0,0-2.693-6.387c-1.514-3.281-1.847-5.951-2.287-9.424-.62-4.875-3.014-9.1-4.441-13.74a.786.786,0,0,0-1.514.418" transform="translate(-16.508 -4.331)" fill="#c6bd67"/>
              <path id="Trazado_898188" data-name="Trazado 898188" d="M133.224,77.372c2.627,4.946,6.982,7.7,11.989,9.882,3.144,1.372,6.437,2.546,9.3,4.476,3.162,2.129,4.706,5.035,7.14,7.814.993,1.133,2.746-.082,2.417-1.407-3.286-13.272-22.3-11.909-29.351-21.642a.868.868,0,0,0-1.5.876" transform="translate(-15.786 -9.026)" fill="#c6bd67"/>
              <path id="Trazado_898189" data-name="Trazado 898189" d="M144.224,106.154c5.2.317,10.682.6,15.437,2.969,4.351,2.169,5.826,5.8,9.062,8.979.8.786,2.523.271,2.4-.993-.469-4.718-4.89-8.891-8.988-10.844-5.578-2.659-11.859-2.7-17.909-2.672a1.281,1.281,0,0,0,0,2.561" transform="translate(-16.958 -12.286)" fill="#c6bd67"/>
              <path id="Trazado_898190" data-name="Trazado 898190" d="M192.493,60.293c-3.048,8.851-11.16,15.266-15.215,23.743-3.471,7.257-6.1,16.448-4.994,24.542.227,1.659,3.114,1.655,3.347,0,.624-4.438.648-8.84,1.725-13.234a55.336,55.336,0,0,1,5.176-13.4c3.942-7.186,9.848-12.947,11.793-21.141a.951.951,0,0,0-1.832-.505" transform="translate(-20.402 -7.072)" fill="#c6bd67"/>
              <path id="Trazado_898191" data-name="Trazado 898191" d="M185.726,48.509c-2.861,2.645-6.271,4.444-9.374,6.766-2.228,1.668-4.521,4-3.653,7a1.467,1.467,0,0,0,2.417.638c1.095-.875,1.878-1.99,2.89-2.954a32.917,32.917,0,0,1,3.77-2.833A24.99,24.99,0,0,0,188,50.261c.931-1.416-1.1-2.833-2.271-1.752" transform="translate(-20.46 -5.708)" fill="#c6bd67"/>
              <path id="Trazado_898192" data-name="Trazado 898192" d="M197.676,77.462c-5.186,3.629-11.413,5.455-16.492,9.3-3.965,3-8.439,7.919-8.313,13.175a1.421,1.421,0,0,0,2.4.993c1.654-1.884,2.576-4.127,4.037-6.143a23.686,23.686,0,0,1,7.5-6.462c4.584-2.657,9-4.627,12.524-8.727.94-1.094-.3-3.087-1.653-2.141" transform="translate(-20.502 -9.158)" fill="#c6bd67"/>
              <path id="Trazado_898193" data-name="Trazado 898193" d="M180.631,67.24c-1.363,2.976-2.973,6.142-3.189,9.46-.2,3.155-.405,7.537.48,10.537a1.382,1.382,0,0,0,2.278.6c2.4-2.027,1.854-5.041,1.532-7.9a37.682,37.682,0,0,1,.56-11.993c.19-.942-1.206-1.7-1.661-.7" transform="translate(-21.024 -7.919)" fill="#c6bd67"/>
              <path id="Trazado_898194" data-name="Trazado 898194" d="M143.411,30.5c1.684,4.3,2.627,9.642,5.972,13.039,1.748,1.775,4.438,2.36,5.994,4.32,1.2,1.514,1.476,2.92,3.077,4.128,1.3.981,2.9-.888,2.148-2.148-2.015-3.362-3.162-5.535-6.754-7.316-4.409-2.186-7.39-8.121-9.833-12.279-.182-.311-.745-.1-.6.255" transform="translate(-17.006 -3.569)" fill="#c6bd67"/>
              <path id="Trazado_898195" data-name="Trazado 898195" d="M183.883,70.356a19.443,19.443,0,0,1-10.661,1.635c-3.682-.459-7.32-1.339-11.029-1.446s-7.62.658-10.428,3.082c-2.343,2.023-3.309,4.894-1.864,7.741,2.622,5.165,11.636,6.825,16.7,6.755a32.054,32.054,0,0,0,14.563-3.184,25.564,25.564,0,0,0,8.645-6.856c1.014-1.178,2.192-2.155,3.2-3.311,1.308-1.506,2.265-3.255,3.679-4.7a12.926,12.926,0,0,1,5.623-3.521.923.923,0,0,0,.411-.193c.744-.74-1.006-1.676-1.533-1.825a14.311,14.311,0,0,0-11.874,2c-1.313.913-2.466,2.047-3.809,2.916a15.013,15.013,0,0,1-1.616.908" transform="translate(-17.698 -7.593)" fill="#aa2b1d"/>
              <path id="Trazado_898196" data-name="Trazado 898196" d="M146.963,80.093a4.875,4.875,0,0,0-2.4-2.607,8.385,8.385,0,0,1-2.625-1.78,3.093,3.093,0,0,1,.241-3.973,13.653,13.653,0,0,0,3.975,4.021,2.171,2.171,0,0,0,.877.393c.911.125,1.593-.769,2.143-1.507s1.506-1.483,2.294-1.007c2.337,1.408-.354,7.458-1.362,8.913a2.534,2.534,0,0,1-1.234,1.083c-1.95.6-1.613-2.558-1.913-3.534" transform="translate(-16.762 -8.507)" fill="#493520"/>
              <path id="Trazado_898197" data-name="Trazado 898197" d="M183.476,74.448c-2.778.618-5.607,1.364-8.465,1.115-2.47-.214-4.532-1.359-6.892-2a14.848,14.848,0,0,0-10.19.935c-2.91,1.283-.393,5.566,2.5,4.281,4.7-2.087,8.151.1,12.771.672,4.022.5,7.783-.687,11.388-2.363,1.546-.719.414-2.983-1.114-2.643" transform="translate(-18.577 -8.665)" fill="#b7392c"/>
              <path id="Trazado_898198" data-name="Trazado 898198" d="M0,21.375a16.366,16.366,0,0,1,1.389-1.59,4.088,4.088,0,0,1,1.921.776,32.291,32.291,0,0,1,4.544,3.524c.753.666,1.495,1.349,2.3,1.954.552.415,2.237,1.014,2.557,1.521A63.769,63.769,0,0,0,2.8,15.415l3.668-1.188,10.2,11.394A24.4,24.4,0,0,1,13.4,12.036l1.429-.17A30.271,30.271,0,0,0,19.4,24.776q-.422-5.821-.844-11.643l2.422.192A31.174,31.174,0,0,0,26.732,34.1c.565.779,1.192,1.781.729,2.625-1.042,1.9-7.971,2.486-9.918,2.183-2.407-.375-3.036-2.231-4.144-4.125C11.72,31.907,9.16,29.694,6.721,27.47,4.5,25.452,2.47,23.07,0,21.375" transform="translate(0 -1.407)" fill="#5b6031"/>
              <path id="Trazado_898199" data-name="Trazado 898199" d="M71.583,66.49C77.516,78.153,84.3,89.35,89.874,101.212a205.321,205.321,0,0,1,10.8,28.29c2.47,8.215,4.951,12.776,3.507,21.786-.393,2.456-1.037,5.078-2.939,6.68-3.321,2.8-8.463,1-11.917-1.635-5.577-4.247-9.546-10.2-13.732-15.825-10.281-13.81-22.367-26.134-34.554-38.247C29.11,90.407,21.563,77.59,11.537,64.054,6.181,56.822-.233,46.568,7.071,38.6c3.245-3.541,8.262-6.237,12.481-8.479,4.885-2.6,10.319-4.468,15.922-3.966,5.808.52,11.163,3.543,15.484,7.458,9.224,8.356,14.247,20.1,19.688,31.022q.465.932.937,1.86" transform="translate(-0.449 -3.092)" fill="#d36535"/>
              <path id="Trazado_898200" data-name="Trazado 898200" d="M12.78,48.465A36.4,36.4,0,0,1,18.1,43.136" transform="translate(-1.516 -5.116)" fill="none" stroke="#b74e29" stroke-miterlimit="10" stroke-width="1.5"/>
              <path id="Trazado_898201" data-name="Trazado 898201" d="M26.938,38.227a23.321,23.321,0,0,1,10.386-4.961" transform="translate(-3.195 -3.945)" fill="none" stroke="#b74e29" stroke-miterlimit="10" stroke-width="1.5"/>
              <path id="Trazado_898202" data-name="Trazado 898202" d="M19.072,55.676A39.073,39.073,0,0,1,26.993,49" transform="translate(-2.262 -5.811)" fill="none" stroke="#b74e29" stroke-miterlimit="10" stroke-width="1.5"/>
              <path id="Trazado_898203" data-name="Trazado 898203" d="M48.268,40.056l3.959-1.732" transform="translate(-5.725 -4.545)" fill="none" stroke="#b74e29" stroke-miterlimit="10" stroke-width="1.5"/>
              <path id="Trazado_898204" data-name="Trazado 898204" d="M43.229,52.437A18.672,18.672,0,0,1,49.4,48.71" transform="translate(-5.127 -5.777)" fill="none" stroke="#b74e29" stroke-miterlimit="10" stroke-width="1.5"/>
              <path id="Trazado_898205" data-name="Trazado 898205" d="M28.325,76.838a36.01,36.01,0,0,1,8.424-7.91" transform="translate(-3.359 -8.175)" fill="none" stroke="#b74e29" stroke-miterlimit="10" stroke-width="1.5"/>
              <path id="Trazado_898206" data-name="Trazado 898206" d="M53.326,62.186a32.014,32.014,0,0,1,7.909-4.227" transform="translate(-6.324 -6.874)" fill="none" stroke="#b74e29" stroke-miterlimit="10" stroke-width="1.5"/>
              <path id="Trazado_898207" data-name="Trazado 898207" d="M39.236,83.921a100.513,100.513,0,0,1,9.485-7.066" transform="translate(-4.653 -9.115)" fill="none" stroke="#b74e29" stroke-miterlimit="10" stroke-width="1.5"/>
              <path id="Trazado_898208" data-name="Trazado 898208" d="M62.334,75.365A19.974,19.974,0,0,1,71.7,70.814" transform="translate(-7.393 -8.398)" fill="none" stroke="#b74e29" stroke-miterlimit="10" stroke-width="1.5"/>
              <path id="Trazado_898209" data-name="Trazado 898209" d="M47.929,102.1a31.648,31.648,0,0,1,12.2-9.807" transform="translate(-5.684 -10.945)" fill="none" stroke="#b74e29" stroke-miterlimit="10" stroke-width="1.5"/>
              <path id="Trazado_898210" data-name="Trazado 898210" d="M75.238,92.342a24.919,24.919,0,0,1,6.906-3.511" transform="translate(-8.923 -10.535)" fill="none" stroke="#b74e29" stroke-miterlimit="10" stroke-width="1.5"/>
              <path id="Trazado_898211" data-name="Trazado 898211" d="M64.281,106.6a26.02,26.02,0,0,1,8.9-5.956" transform="translate(-7.624 -11.936)" fill="none" stroke="#b74e29" stroke-miterlimit="10" stroke-width="1.5"/>
              <path id="Trazado_898212" data-name="Trazado 898212" d="M80.865,104.92a16.267,16.267,0,0,1,6.908-3.97" transform="translate(-9.591 -11.973)" fill="none" stroke="#b74e29" stroke-miterlimit="10" stroke-width="1.5"/>
              <path id="Trazado_898213" data-name="Trazado 898213" d="M71.854,120.615a28.991,28.991,0,0,1,13.368-8.14" transform="translate(-8.522 -13.339)" fill="none" stroke="#b74e29" stroke-miterlimit="10" stroke-width="1.5"/>
              <path id="Trazado_898214" data-name="Trazado 898214" d="M83.962,122.9a23.808,23.808,0,0,1,9.857-6" transform="translate(-9.958 -13.865)" fill="none" stroke="#b74e29" stroke-miterlimit="10" stroke-width="1.5"/>
              <path id="Trazado_898215" data-name="Trazado 898215" d="M94.045,125.881a17.737,17.737,0,0,1,6.663-2.533" transform="translate(-11.154 -14.629)" fill="none" stroke="#b74e29" stroke-miterlimit="10" stroke-width="1.5"/>
              <path id="Trazado_898216" data-name="Trazado 898216" d="M95.176,138.767a14.468,14.468,0,0,1,5.911-2.787" transform="translate(-11.288 -16.127)" fill="none" stroke="#b74e29" stroke-miterlimit="10" stroke-width="1.5"/>
              <path id="Trazado_898217" data-name="Trazado 898217" d="M95.167,151.868a23.421,23.421,0,0,1,9.139-5.471" transform="translate(-11.287 -17.363)" fill="none" stroke="#b74e29" stroke-miterlimit="10" stroke-width="1.5"/>
              <path id="Trazado_898218" data-name="Trazado 898218" d="M104.432,158.876a15.785,15.785,0,0,1,7.413-3.475" transform="translate(-12.386 -18.43)" fill="none" stroke="#b74e29" stroke-miterlimit="10" stroke-width="1.5"/>
              <path id="Trazado_898219" data-name="Trazado 898219" d="M108.635,164.863a25.5,25.5,0,0,1,5.188-2.74" transform="translate(-12.884 -19.228)" fill="none" stroke="#b74e29" stroke-miterlimit="10" stroke-width="1.5"/>
              <path id="Trazado_898220" data-name="Trazado 898220" d="M82.777,134.691l3.708-3.468" transform="translate(-9.817 -15.563)" fill="none" stroke="#b74e29" stroke-miterlimit="10" stroke-width="1.5"/>
              <path id="Trazado_898221" data-name="Trazado 898221" d="M84.215,95.551A62.079,62.079,0,0,0,74.19,78.443c-2.643-3.2-5.6-6.124-8.217-9.347a1.128,1.128,0,0,1-.345-.772,1.08,1.08,0,0,1,.35-.6,10.282,10.282,0,0,1,4.537-2.758,2.274,2.274,0,0,1,1.16-.107,2.5,2.5,0,0,1,1,.613A64.172,64.172,0,0,1,91.9,94.545" transform="translate(-7.783 -7.688)" fill="#50562b"/>
              <path id="Trazado_898222" data-name="Trazado 898222" d="M82.992,85.14c-1.991-6.9-6.354-14.97-12.364-19.17-2.605-1.821-5.382,2.113-3.3,4.283,2.415,2.523,5.229,4.589,7.306,7.44,2,2.744,3.622,5.8,5.342,8.721a1.66,1.66,0,0,0,3.021-1.274" transform="translate(-7.898 -7.768)" fill="#5b6031"/>
              <path id="Trazado_898223" data-name="Trazado 898223" d="M99.955,92.766a95.3,95.3,0,0,1,2.861-17.793,85.52,85.52,0,0,1,3.932-11.516c.583-1.374,3.18-4.468,1.428-5.683-1.4-.97-3.544-.717-5.127-1.178a1.424,1.424,0,0,0-.942-.052,1.734,1.734,0,0,0-.727.825c-3.315,5.987-5.063,12.846-6.31,19.684a155.188,155.188,0,0,0-2.274,19.123" transform="translate(-11.005 -6.699)" fill="#50562b"/>
              <path id="Trazado_898224" data-name="Trazado 898224" d="M86.169,91A148.755,148.755,0,0,0,65.344,60.185c-.6-.68-1.234-1.625-.778-2.406a2.193,2.193,0,0,1,1.276-.808l3.84-1.3a2.58,2.58,0,0,1,1.274-.2,2.55,2.55,0,0,1,1.258.836A76.747,76.747,0,0,1,92.834,95.639" transform="translate(-7.639 -6.576)" fill="#7c7f3b"/>
              <path id="Trazado_898225" data-name="Trazado 898225" d="M90.532,88.395a115.37,115.37,0,0,1-1.869-35.923c.111-1.049-.047-3.089.554-3.956.758-1.094,2.437-.678,3.767-.732a13.019,13.019,0,0,1,3.925.65c-2.129,14.641-1.117,29.535-.1,44.3" transform="translate(-10.441 -5.663)" fill="#50562b"/>
              <path id="Trazado_898226" data-name="Trazado 898226" d="M102.408,75.051c.673-2.409,2.03-4.76,2.976-7.1,1-2.486,2.024-4.976,3.185-7.392,1.55-3.221-3.337-6.016-4.78-2.794a47.04,47.04,0,0,0-3.052,8.339c-.691,2.917-.536,5.664-.844,8.61-.154,1.464,2.137,1.694,2.516.34" transform="translate(-11.846 -6.681)" fill="#5b6031"/>
              <path id="Trazado_898227" data-name="Trazado 898227" d="M92.063,57.57a14.493,14.493,0,0,0-.043-3.832c-.11-1.249.171-2.521-.441-3.653a1.538,1.538,0,0,0-2.4-.309c-1.626,1.982-.253,4.534-.7,6.806-.465,2.354,3.192,3.327,3.586.988" transform="translate(-10.479 -5.85)" fill="#5b6031"/>
              <path id="Trazado_898228" data-name="Trazado 898228" d="M83.713,73.9c-1.532-6.458-5.244-12.2-7.079-18.583a66.768,66.768,0,0,1-1.872-11.04c-.4-3.553-.8-7.183-.031-10.676a13.842,13.842,0,0,1,4.581-.359,1.519,1.519,0,0,1,.758.214,1.61,1.61,0,0,1,.494,1.126c.5,3.342.979,6.691,1.711,9.989C83.282,49.117,84.76,53.54,86.1,58c2.834,9.428,5.07,19.17,4.812,29.011" transform="translate(-8.811 -3.936)" fill="#7c7f3b"/>
              <path id="Trazado_898229" data-name="Trazado 898229" d="M93.351,88.811A92.453,92.453,0,0,1,91.16,72.757c-.479-9.977,1.992-19.862,1.219-29.816-.29-3.746-1.025-7.449-1.257-11.2a15.023,15.023,0,0,1,6.078.574,2.685,2.685,0,0,1,1.254.678,2.838,2.838,0,0,1,.528,1.114c2.656,8.9,1.868,18.423.757,27.642s-2.523,18.569-1.044,27.737" transform="translate(-10.804 -3.754)" fill="#7c7f3b"/>
              <path id="Trazado_898230" data-name="Trazado 898230" d="M77.892,61.511c3.177,9.6,7.533,17.759,9.012,27.659" transform="translate(-9.238 -7.295)" fill="none" stroke="#50562b" stroke-miterlimit="10" stroke-width="1"/>
              <path id="Trazado_898231" data-name="Trazado 898231" d="M91.064,72.4a49.834,49.834,0,0,0,1.972,19.72" transform="translate(-10.77 -8.586)" fill="none" stroke="#50562b" stroke-miterlimit="10" stroke-width="1"/>
              <path id="Trazado_898232" data-name="Trazado 898232" d="M100.119,88.754c-1.072,9.212.346,18.684,1.677,27.8,1,6.87,2.247,13.7,3.515,20.526.608,3.271,1.36,6.518,1.794,9.819.343,2.611.609,5.889-1.514,7.876a8.794,8.794,0,0,1-8.087,1.75c-3.668-1.019-4.622-4.222-5.081-7.658-1.755-13.133-2.42-44.177-8.665-56.643a14.817,14.817,0,0,1,1.178-1.014c.271-.213,1.032-.582,1.1-.918.078-.36-.427-1.133-.583-1.45-.249-.5-.519-1-.743-1.51a.213.213,0,0,1-.026-.149.218.218,0,0,1,.115-.107,17.637,17.637,0,0,1,1.708-.8q.178.633.358,1.267a.283.283,0,0,0,.052.115c.074.085.209.054.316.019a12.786,12.786,0,0,1,3.527-.647,4.305,4.305,0,0,1-.286-1.969q3.355-.124,6.715,0l.056,1.863a19.754,19.754,0,0,1,3.085.4c-.088.475-.159.955-.215,1.436" transform="translate(-9.934 -10.08)" fill="#fbffe1"/>
              <path id="Trazado_898233" data-name="Trazado 898233" d="M94.737,105.351c.593,7.173,4.332,31.818,4.925,38.991a23.471,23.471,0,0,0,1.023,5.992,7.906,7.906,0,0,0,3.779,4.584" transform="translate(-11.236 -12.495)" fill="none" stroke="#e0e0a9" stroke-miterlimit="10" stroke-width="1"/>
              <path id="Trazado_898234" data-name="Trazado 898234" d="M86.351,90.336a88.263,88.263,0,0,1,4.527,18.056" transform="translate(-10.241 -10.714)" fill="none" stroke="#e0e0a9" stroke-miterlimit="10" stroke-width="1"/>
              <path id="Trazado_898235" data-name="Trazado 898235" d="M83.576,62.03c-1.07-5.06-3-9.911-3.9-15.006-.705-3.977-.006-8.929-1.9-12.512-.722-1.361-2.454-.785-2.946.385-1.467,3.5.194,8.852,1.038,12.438,1.243,5.278,3.587,10.212,5.006,15.441a1.406,1.406,0,0,0,2.709-.747" transform="translate(-8.805 -3.999)" fill="#8e8c42"/>
              <path id="Trazado_898236" data-name="Trazado 898236" d="M95.1,75.483c-.812-14.012,4.185-27.6.643-41.614-.8-3.157-5.9-1.729-4.86,1.34,2.346,6.907,2.69,13.678,2.02,20.906-.629,6.782-1.767,12.965.086,19.654.316,1.138,2.181.953,2.11-.286" transform="translate(-10.762 -3.806)" fill="#8e8c42"/>
              <path id="Trazado_898237" data-name="Trazado 898237" d="M68.15,59.629a19.079,19.079,0,0,0,3.032,5.553A27.4,27.4,0,0,0,75.405,70.1a1.038,1.038,0,0,0,1.623-1.252,35.562,35.562,0,0,0-3.6-5.421A23.546,23.546,0,0,0,69.392,58.9c-.529-.428-1.49-.05-1.243.724" transform="translate(-8.078 -6.965)" fill="#8e8c42"/>
              <path id="Trazado_898238" data-name="Trazado 898238" d="M87.268,87.717a33.055,33.055,0,0,1,2.265,7.019" transform="translate(-10.35 -10.403)" fill="none" stroke="#e0e0a9" stroke-miterlimit="10" stroke-width="1"/>
              <path id="Trazado_898239" data-name="Trazado 898239" d="M91.6,87.016a46.909,46.909,0,0,1,1.986,9.7" transform="translate(-10.863 -10.32)" fill="none" stroke="#e0e0a9" stroke-miterlimit="10" stroke-width="1"/>
              <path id="Trazado_898240" data-name="Trazado 898240" d="M99.144,86.771c-.975,5.765-.664,11.383,2.334,34.36" transform="translate(-11.7 -10.291)" fill="none" stroke="#e0e0a9" stroke-miterlimit="10" stroke-width="1"/>
              <path id="Trazado_898241" data-name="Trazado 898241" d="M92.508,118.507q1.645,11.841,2.436,23.78c.356,5.379.717,11.145,4.024,15.4" transform="translate(-10.971 -14.055)" fill="none" stroke="#e0e0a9" stroke-miterlimit="10" stroke-width="1"/>
              <path id="Trazado_898242" data-name="Trazado 898242" d="M105.418,144.06a47.17,47.17,0,0,1,.924,13.806" transform="translate(-12.503 -17.085)" fill="none" stroke="#e0e0a9" stroke-miterlimit="10" stroke-width="1"/>
              <path id="Trazado_898243" data-name="Trazado 898243" d="M161.589,58.611c-4.89-1.725-10.305-2.231-15.235-4.088-3.2-1.2-6.108-5.163-9.9-3.995-2.5.771-3.723,3.611-4.082,6.2s-.2,5.332-1.326,7.7c-2.011,4.227-5.534,6.463-6.462,11.468-1.495,8.063-1.488,19.033,4.5,25.621,5.86,6.448,15.994,5.414,23.547,8.354,3.657,1.423,7.333,4.328,11.047,3.06,2.563-.875,4.062-3.467,5.332-5.859,4.284-8.058,8.7-16.7,7.891-25.8-.571-6.457-2.949-13.468-7.782-18.183a19.956,19.956,0,0,0-7.529-4.482" transform="translate(-14.677 -5.967)" fill="#f9dc62"/>
              <path id="Trazado_898244" data-name="Trazado 898244" d="M144.229,59.186a1.819,1.819,0,0,0,0-3.636,1.819,1.819,0,0,0,0,3.636" transform="translate(-16.897 -6.588)" fill="#f9e17a"/>
              <path id="Trazado_898245" data-name="Trazado 898245" d="M150.511,62.442c2.5,0,2.5-3.883,0-3.883s-2.5,3.883,0,3.883" transform="translate(-17.628 -6.945)" fill="#f9e17a"/>
              <path id="Trazado_898246" data-name="Trazado 898246" d="M143.351,69.388a1.654,1.654,0,0,0,0-3.305,1.654,1.654,0,0,0,0,3.305" transform="translate(-16.812 -7.837)" fill="#f9e17a"/>
              <path id="Trazado_898247" data-name="Trazado 898247" d="M136.02,79.351a.951.951,0,0,0,0-1.9.951.951,0,0,0,0,1.9" transform="translate(-16.023 -9.186)" fill="#f9e17a"/>
              <path id="Trazado_898248" data-name="Trazado 898248" d="M153.028,72.951a1.612,1.612,0,0,0,0-3.222,1.612,1.612,0,0,0,0,3.222" transform="translate(-17.964 -8.27)" fill="#f9e17a"/>
              <path id="Trazado_898249" data-name="Trazado 898249" d="M164.262,67.175a1.7,1.7,0,0,0,0-3.388,1.7,1.7,0,0,0,0,3.388" transform="translate(-19.287 -7.565)" fill="#f9e17a"/>
              <path id="Trazado_898250" data-name="Trazado 898250" d="M174.837,82.208a1.654,1.654,0,0,0,0-3.305,1.654,1.654,0,0,0,0,3.305" transform="translate(-20.546 -9.358)" fill="#f9e17a"/>
              <path id="Trazado_898251" data-name="Trazado 898251" d="M164.792,90.029a1.075,1.075,0,0,0,0-2.149,1.075,1.075,0,0,0,0,2.149" transform="translate(-19.421 -10.423)" fill="#f9e17a"/>
              <path id="Trazado_898252" data-name="Trazado 898252" d="M175.271,96.935a1.778,1.778,0,0,0,0-3.553,1.778,1.778,0,0,0,0,3.553" transform="translate(-20.584 -11.075)" fill="#f9e17a"/>
              <path id="Trazado_898253" data-name="Trazado 898253" d="M168.267,113.342c2.605,0,2.61-4.049,0-4.049s-2.61,4.049,0,4.049" transform="translate(-19.724 -12.962)" fill="#f9e17a"/>
              <path id="Trazado_898254" data-name="Trazado 898254" d="M164.739,102.532a1.488,1.488,0,0,0,0-2.975,1.488,1.488,0,0,0,0,2.975" transform="translate(-19.367 -11.807)" fill="#f9e17a"/>
              <path id="Trazado_898255" data-name="Trazado 898255" d="M156.47,108.247a1.075,1.075,0,0,0,0-2.149,1.075,1.075,0,0,0,0,2.149" transform="translate(-18.434 -12.583)" fill="#f9e17a"/>
              <path id="Trazado_898256" data-name="Trazado 898256" d="M149,90.306l-.056.084a1.818,1.818,0,0,0,0,1.835l.056.083a1.507,1.507,0,0,0,.51.557,1,1,0,0,0,.438.255,1.5,1.5,0,0,0,.764.171l.527-.071.473-.2a1.493,1.493,0,0,0,.557-.51.99.99,0,0,0,.255-.437,1.5,1.5,0,0,0,.171-.764l-.071-.528-.2-.473a1.5,1.5,0,0,0-.511-.556.991.991,0,0,0-.437-.256,1.5,1.5,0,0,0-.764-.17l-.527.071-.474.2a1.993,1.993,0,0,0-.711.711" transform="translate(-17.636 -10.594)" fill="#f9e17a"/>
              <path id="Trazado_898257" data-name="Trazado 898257" d="M139.271,102.215a1.9,1.9,0,0,0,0-3.8,1.9,1.9,0,0,0,0,3.8" transform="translate(-16.3 -11.672)" fill="#f9e17a"/>
              <path id="Trazado_898258" data-name="Trazado 898258" d="M130.976,92.14a1.7,1.7,0,0,0,0-3.388,1.7,1.7,0,0,0,0,3.388" transform="translate(-15.34 -10.526)" fill="#f9e17a"/>
              <path id="Trazado_898259" data-name="Trazado 898259" d="M142.1,77.584c1.414-1.96,4.091-3.1,6.158-2.25a1.776,1.776,0,0,0,.585.179,1.174,1.174,0,0,0,1.033-1.237,2.269,2.269,0,0,0-.8-1.46,6.611,6.611,0,0,0-7.993-1.087c-1.824,1.15-2.907,3.172-4.1,4.983s-2.835,3.648-4.9,3.9c-1.274.153-2.9-.145-3.558,1.014a1.717,1.717,0,0,0,.207,1.857,4.278,4.278,0,0,0,1.544,1.1,56.339,56.339,0,0,0,7.846,3.2,3.714,3.714,0,0,0,2.659.139,2.249,2.249,0,0,0,1.3-2.071c-.071-1.371-1.373-1.862-1.409-3.416a8.03,8.03,0,0,1,1.431-4.841" transform="translate(-15.221 -8.401)" fill="#50562b"/>
              <path id="Trazado_898260" data-name="Trazado 898260" d="M115.336,83.265c4.195-4.707,11.709-7.829,14.731-1.295a2.7,2.7,0,0,0,.993,1.424,2.745,2.745,0,0,0,1.619.046,10.26,10.26,0,0,1,11.468,8.3c1.782-.182,2.881.778,4.042,1.861,3.129,2.917,3.322,8.1,1.884,12.469s-4.21,8.243-6.51,12.287a60.623,60.623,0,0,0-5.275,11.91,15.4,15.4,0,0,1-6.894,9.155c-1.2.73-2.68,1.332-3.865.779a1.45,1.45,0,0,0-.905-.265c-.32.072-.539.383-.742.655-1.777,2.368-5.439,3.779-8.086,2.925a8.934,8.934,0,0,1-4.733-3.973,6.8,6.8,0,0,1-.9-.092,10.837,10.837,0,0,1-4.887-2.493c-.872-.715-1.752-1.695-1.549-2.879a3.187,3.187,0,0,1-3.065-.4,6.917,6.917,0,0,1-1.963-2.434c-3.26-5.932-2.967-11.787-1.862-18.583a102.8,102.8,0,0,0,1.127-10.517c.175-3,.445-6.46,1.744-9.318,2.008-4.416,7.093-7.361,11.642-6.744a14.352,14.352,0,0,1,1.988-2.82" transform="translate(-11.631 -9.28)" fill="#eda532"/>
              <path id="Trazado_898261" data-name="Trazado 898261" d="M106.448,141.463a10.486,10.486,0,0,0,4.248-1.941" transform="translate(-12.625 -16.547)" fill="none" stroke="#d8822b" stroke-miterlimit="10" stroke-width="2"/>
              <path id="Trazado_898262" data-name="Trazado 898262" d="M115.191,148.024a12.454,12.454,0,0,0,2.278-2.225" transform="translate(-13.662 -17.292)" fill="none" stroke="#d8822b" stroke-miterlimit="10" stroke-width="2"/>
              <path id="Trazado_898263" data-name="Trazado 898263" d="M117.8,134.849c-2.944-1.085-4.9-4.032-5.6-7.083a26.018,26.018,0,0,1,.066-9.326,34.165,34.165,0,0,0,.472-9.332" transform="translate(-13.259 -12.94)" fill="none" stroke="#d8822b" stroke-miterlimit="10" stroke-width="2"/>
              <path id="Trazado_898264" data-name="Trazado 898264" d="M113.5,100.809c.1-2.34.118-4.678.3-7.02.152-2.009.116-4.894,1.378-6.648" transform="translate(-13.461 -10.335)" fill="none" stroke="#d8822b" stroke-miterlimit="10" stroke-width="2"/>
              <path id="Trazado_898265" data-name="Trazado 898265" d="M134.149,84.452c-.089,3.616-2.345,6.952-3.511,10.467-1.99,6-.749,12.268-1.087,18.449-.31,5.666-1.3,14.481-6.535,19.446" transform="translate(-14.59 -10.016)" fill="none" stroke="#d8822b" stroke-miterlimit="10" stroke-width="2"/>
              <path id="Trazado_898266" data-name="Trazado 898266" d="M149.584,93.869a10.228,10.228,0,0,1-.907,4.492c-.983,2.185-2.739,4.149-3,6.477" transform="translate(-17.277 -11.133)" fill="none" stroke="#d8822b" stroke-miterlimit="10" stroke-width="2"/>
              <path id="Trazado_898267" data-name="Trazado 898267" d="M140.779,115.49c-2.976,7.041-3.164,15.215-7.914,21.29-1.35,1.728-3.3,3.308-5.366,3.168" transform="translate(-15.121 -13.697)" fill="none" stroke="#d8822b" stroke-miterlimit="10" stroke-width="2"/>
              <path id="Trazado_898268" data-name="Trazado 898268" d="M130.224,148.162q-.561-.81-1.122-1.622" transform="translate(-15.311 -17.38)" fill="none" stroke="#d8822b" stroke-miterlimit="10" stroke-width="2"/>
              <path id="Trazado_898269" data-name="Trazado 898269" d="M71.66,91.922A95.254,95.254,0,0,1,68.1,74.256a85.547,85.547,0,0,1-.359-12.162c.063-1.492,1.409-5.3-.658-5.823-1.649-.418-3.57.572-5.214.7a1.416,1.416,0,0,0-.9.282,1.735,1.735,0,0,0-.392,1.028c-1,6.77-.234,13.8,1,20.647a155.257,155.257,0,0,0,4.581,18.7" transform="translate(-7.129 -6.661)" fill="#50562b"/>
              <path id="Trazado_898270" data-name="Trazado 898270" d="M57.2,95.371A148.763,148.763,0,0,0,26.884,73.826c-.8-.427-1.726-1.089-1.572-1.981a2.183,2.183,0,0,1,.911-1.2l3.139-2.566a2.57,2.57,0,0,1,1.122-.636,2.541,2.541,0,0,1,1.471.341,76.741,76.741,0,0,1,33.111,29.6" transform="translate(-3 -7.996)" fill="#50562b"/>
              <path id="Trazado_898271" data-name="Trazado 898271" d="M60.42,91.381A115.375,115.375,0,0,1,46.067,58.4c-.264-1.021-1.127-2.876-.869-3.9.326-1.291,2.044-1.49,3.271-2.009a13.05,13.05,0,0,1,3.9-.768c3.145,14.458,9.318,28.05,15.449,41.514" transform="translate(-5.355 -6.134)" fill="#50562b"/>
              <path id="Trazado_898272" data-name="Trazado 898272" d="M67.221,74.866c-.227-2.668.232-5.455.316-8.134.087-2.732.16-5.462.4-8.186.312-3.525-5.318-3.566-5.537,0a45.663,45.663,0,0,0,.179,8.815c.364,2.775,1.43,5.161,2.124,7.845.352,1.362,2.641,1.129,2.516-.34" transform="translate(-7.386 -6.628)" fill="#5b6031"/>
              <path id="Trazado_898273" data-name="Trazado 898273" d="M50.892,61.883a13.016,13.016,0,0,0-1.363-3.325c-.5-1.011-.666-2.33-1.542-3.081a1.552,1.552,0,0,0-2.555.674c-.786,2.206,1.537,4.595,1.874,6.721.369,2.336,4.028,1.373,3.586-.989" transform="translate(-5.369 -6.529)" fill="#5b6031"/>
              <path id="Trazado_898274" data-name="Trazado 898274" d="M27.322,73.295c.123.112.242.227.356.347.056.059.373.487.163.17q-.172-.227-.02-.023a1.777,1.777,0,0,0,.452.543c-.114-.107,1.2.906.438.317a2.484,2.484,0,0,0,1.607.665,2.313,2.313,0,0,0,1.607-.665,2.284,2.284,0,0,0,.665-1.607,2.188,2.188,0,0,0-.665-1.607,3.892,3.892,0,0,0-1.819-1,8.307,8.307,0,0,0-1.557-.108A1.754,1.754,0,0,0,26.964,71.4a1.725,1.725,0,0,0,.359,1.9" transform="translate(-3.182 -8.341)" fill="#5b6031"/>
              <path id="Trazado_898275" data-name="Trazado 898275" d="M57,100.349a62.082,62.082,0,0,0-15.391-12.5c-3.6-2.067-7.4-3.769-10.975-5.87a1.131,1.131,0,0,1-.593-.6,1.073,1.073,0,0,1,.118-.682,10.28,10.28,0,0,1,3.28-4.174,2.291,2.291,0,0,1,1.049-.508,2.509,2.509,0,0,1,1.153.223,64.167,64.167,0,0,1,28.2,20.477" transform="translate(-3.56 -9.014)" fill="#7c7f3b"/>
              <path id="Trazado_898276" data-name="Trazado 898276" d="M48.844,80.289c-3.7-5.51-9.194-9.589-13.15-14.918a66.751,66.751,0,0,1-5.626-9.68C28.446,52.5,26.8,49.244,26.292,45.7a13.852,13.852,0,0,1,4.163-1.943,1.508,1.508,0,0,1,.785-.064c.407.109.653.512.858.881,1.639,2.955,3.265,5.922,5.108,8.754,2.538,3.9,5.475,7.526,8.294,11.231C51.461,72.4,56.973,80.734,60.185,90.04" transform="translate(-3.118 -5.179)" fill="#7c7f3b"/>
              <path id="Trazado_898277" data-name="Trazado 898277" d="M63.034,90.907a92.477,92.477,0,0,1-7.685-14.264c-3.949-9.175-5.1-19.3-9.321-28.348-1.587-3.406-3.574-6.616-5.106-10.045a15.008,15.008,0,0,1,5.892-1.6,2.694,2.694,0,0,1,1.413.195,2.838,2.838,0,0,1,.884.858c5.609,7.4,8.215,16.6,10.409,25.62s4.154,18.274,8.755,26.34" transform="translate(-4.853 -4.346)" fill="#7c7f3b"/>
              <path id="Trazado_898278" data-name="Trazado 898278" d="M50.113,82.767c2.024,1.841,4.136,3.593,6.052,5.549a50.906,50.906,0,0,1,4.514,5.29" transform="translate(-5.943 -9.816)" fill="none" stroke="#50562b" stroke-miterlimit="10" stroke-width="1"/>
              <path id="Trazado_898279" data-name="Trazado 898279" d="M55.75,78.148A42.586,42.586,0,0,0,63.995,94.5" transform="translate(-6.612 -9.268)" fill="none" stroke="#50562b" stroke-miterlimit="10" stroke-width="1"/>
              <path id="Trazado_898280" data-name="Trazado 898280" d="M69.673,88.39c4.752,16.419,18.28,37.235,24.329,47.484,1.815,3.074,5.829,8.673,3.974,12.416-1.531,3.09-7.018,5.657-10.127,4.08-1.986-1.007-3.225-3.028-4.276-4.99-6.252-11.683-17.768-40.519-27.99-50a38.393,38.393,0,0,1,3.786-5.641L64.1,93.105s-.849-3.1-.062-3.811c.279-.251,4.255-.517,5.639-.9" transform="translate(-6.592 -10.483)" fill="#fbffe1"/>
              <path id="Trazado_898281" data-name="Trazado 898281" d="M72.229,105.328c3.072,6.509,15.222,28.274,18.293,34.784a23.466,23.466,0,0,0,3.06,5.25,7.9,7.9,0,0,0,5.147,2.968" transform="translate(-8.566 -12.492)" fill="none" stroke="#e0e0a9" stroke-miterlimit="10" stroke-width="1"/>
              <path id="Trazado_898282" data-name="Trazado 898282" d="M69.979,102.095a40,40,0,0,1-4.616-8.832" transform="translate(-7.752 -11.061)" fill="none" stroke="#e0e0a9" stroke-miterlimit="10" stroke-width="1"/>
              <path id="Trazado_898283" data-name="Trazado 898283" d="M60.041,92.584A88.3,88.3,0,0,1,70.617,107.9" transform="translate(-7.121 -10.98)" fill="none" stroke="#e0e0a9" stroke-miterlimit="10" stroke-width="1"/>
              <path id="Trazado_898284" data-name="Trazado 898284" d="M44.68,69.47c-2.636-4.158-5.936-7.848-8.53-12.031-2.221-3.581-3.4-8.934-6.519-11.7a1.632,1.632,0,0,0-2.751,1.139c-.172,4.083,3.407,8.619,5.644,11.858,2.957,4.278,6.7,7.929,9.729,12.156,1.033,1.443,3.41.135,2.426-1.418" transform="translate(-3.187 -5.372)" fill="#8e8c42"/>
              <path id="Trazado_898285" data-name="Trazado 898285" d="M60.013,77.711C54.351,65.03,54.4,50.646,46.227,38.89a2.51,2.51,0,1,0-3.958,3.054c4.693,5.716,7.279,12.187,9.155,19.285,1.673,6.328,2.8,12.184,6.734,17.566a1.075,1.075,0,0,0,1.855-1.084" transform="translate(-4.932 -4.471)" fill="#8e8c42"/>
              <path id="Trazado_898286" data-name="Trazado 898286" d="M52.226,91.312C48.01,85.651,41.1,79.42,34.094,77.622c-2.886-.741-4.976,3.6-2.1,4.983,2.988,1.438,6.191,2.369,9.041,4.106a82.367,82.367,0,0,1,8.6,6.6c1.321,1.07,3.814-.368,2.6-2" transform="translate(-3.631 -9.196)" fill="#8e8c42"/>
              <path id="Trazado_898287" data-name="Trazado 898287" d="M224.062,102.744c6.2-7.379,12.143-15.251,15.757-24.26,1.514-3.775,3.5-8.394,2.933-12.472A26.379,26.379,0,0,0,222.464,43.9c-10.738-2.441-16.8,5.246-22.9,12.868a241.464,241.464,0,0,0-28.683,45.41A124.074,124.074,0,0,0,164.656,117a137.949,137.949,0,0,0-4.357,17.665c-2.074,10.783-3.7,21.648-5.223,32.522-.881,6.278-1.719,12.755-.111,18.888a2.951,2.951,0,0,0,1.187,1.967,2.841,2.841,0,0,0,1.914.1,19.082,19.082,0,0,0,7.779-3.738c8.578-6.619,12.012-17.709,16.726-27.464,9.933-20.55,26.814-36.716,41.491-54.2" transform="translate(-18.271 -5.151)" fill="#fff"/>
              <path id="Trazado_898288" data-name="Trazado 898288" d="M242.826,28.471c.04-.787.042-1.577.009-2.365a1.066,1.066,0,0,1,.156-.759,1.04,1.04,0,0,1,.555-.266l2-.5c.127,1.376.509,2.8.537,4.158.037,1.8-.987,3.7-.831,5.486a41.913,41.913,0,0,1,5.042-8.637,29.665,29.665,0,0,0,1.774-3.105s2.716.39,3.522,1.083a83.349,83.349,0,0,0-7.211,13.583l6.188-7.541c.811-.988,3.237-4.128,3.237-4.128a18.111,18.111,0,0,1,3.162,1.316,139.643,139.643,0,0,0-12.587,18.457c3.58-4,15.932-13.194,15.932-13.194a2.238,2.238,0,0,1,1.724,1.988C259.3,40.282,252.5,44.8,246.3,53.252a3.239,3.239,0,0,1-1.176.962,3.681,3.681,0,0,1-1.4.316c-4,.268-14.189-5.93-7.95-9.323,2.425-1.318,4.086-5.55,5.093-8a26.494,26.494,0,0,0,1.962-8.74" transform="translate(-27.728 -2.666)" fill="#7c7f3b"/>
              <path id="Trazado_898289" data-name="Trazado 898289" d="M243.693,54.474a30.238,30.238,0,0,1,6.119-7.369" transform="translate(-28.902 -5.587)" fill="none" stroke="#50562b" stroke-miterlimit="10" stroke-width="1.5"/>
              <path id="Trazado_898290" data-name="Trazado 898290" d="M249.82,37.582q-.824,1.682-1.648,3.365c-1.444,2.947-2.973,6-5.567,8.012" transform="translate(-28.773 -4.457)" fill="none" stroke="#50562b" stroke-miterlimit="10" stroke-width="1.5"/>
              <path id="Trazado_898291" data-name="Trazado 898291" d="M245.685,35.388A36.041,36.041,0,0,1,238,52.318" transform="translate(-28.226 -4.197)" fill="none" stroke="#50562b" stroke-miterlimit="10" stroke-width="1.5"/>
              <path id="Trazado_898292" data-name="Trazado 898292" d="M221.116,49.466a10.385,10.385,0,0,0,2.768,8.305,23.511,23.511,0,0,0,7.347,5.182" transform="translate(-26.212 -5.867)" fill="none" stroke="#f2eec4" stroke-miterlimit="10" stroke-width="1.5"/>
              <path id="Trazado_898293" data-name="Trazado 898293" d="M236.188,66.465a22.553,22.553,0,0,0,13.129,2.052" transform="translate(-28.012 -7.883)" fill="none" stroke="#f2eec4" stroke-miterlimit="10" stroke-width="1.5"/>
              <path id="Trazado_898294" data-name="Trazado 898294" d="M222.268,67.543a36.16,36.16,0,0,0,15.182,7.015" transform="translate(-26.361 -8.011)" fill="none" stroke="#f2eec4" stroke-miterlimit="10" stroke-width="1.5"/>
              <path id="Trazado_898295" data-name="Trazado 898295" d="M205.36,70.809a13.516,13.516,0,0,0,5.093,7.807,36.62,36.62,0,0,0,8.3,4.608" transform="translate(-24.356 -8.398)" fill="none" stroke="#f2eec4" stroke-miterlimit="10" stroke-width="1.5"/>
              <path id="Trazado_898296" data-name="Trazado 898296" d="M227.1,87.246a27.337,27.337,0,0,0,12.333,2" transform="translate(-26.934 -10.347)" fill="none" stroke="#f2eec4" stroke-miterlimit="10" stroke-width="1.5"/>
              <path id="Trazado_898297" data-name="Trazado 898297" d="M225.482,81.221A12.472,12.472,0,0,0,232,82.566" transform="translate(-26.742 -9.633)" fill="none" stroke="#f2eec4" stroke-miterlimit="10" stroke-width="1.5"/>
              <path id="Trazado_898298" data-name="Trazado 898298" d="M197.975,86.936a22.723,22.723,0,0,0,7.005,4.435" transform="translate(-23.48 -10.311)" fill="none" stroke="#f2eec4" stroke-miterlimit="10" stroke-width="1.5"/>
              <path id="Trazado_898299" data-name="Trazado 898299" d="M218.154,92.738a16.68,16.68,0,0,0,9.2,2.917" transform="translate(-25.873 -10.999)" fill="none" stroke="#f2eec4" stroke-miterlimit="10" stroke-width="1.5"/>
              <path id="Trazado_898300" data-name="Trazado 898300" d="M205.482,99.88a17.765,17.765,0,0,0,12.943,5.016" transform="translate(-24.37 -11.846)" fill="none" stroke="#f2eec4" stroke-miterlimit="10" stroke-width="1.5"/>
              <path id="Trazado_898301" data-name="Trazado 898301" d="M206.286,117.031a18.118,18.118,0,0,0,9.551,3.177" transform="translate(-24.465 -13.88)" fill="none" stroke="#f2eec4" stroke-miterlimit="10" stroke-width="1.5"/>
              <path id="Trazado_898302" data-name="Trazado 898302" d="M189.365,108.337c2.319,2.012,5.384,2.89,8.342,3.711" transform="translate(-22.459 -12.849)" fill="none" stroke="#f2eec4" stroke-miterlimit="10" stroke-width="1.5"/>
              <path id="Trazado_898303" data-name="Trazado 898303" d="M180.07,120.419a25.2,25.2,0,0,0,9.175,6.257" transform="translate(-21.356 -14.282)" fill="none" stroke="#f2eec4" stroke-miterlimit="10" stroke-width="1.5"/>
              <path id="Trazado_898304" data-name="Trazado 898304" d="M175.941,141.26a23.606,23.606,0,0,0,12.457,5.912" transform="translate(-20.866 -16.753)" fill="none" stroke="#f2eec4" stroke-miterlimit="10" stroke-width="1.5"/>
              <path id="Trazado_898305" data-name="Trazado 898305" d="M177.8,105.2a14.9,14.9,0,0,0,7.019,4.957" transform="translate(-21.087 -12.477)" fill="none" stroke="#f2eec4" stroke-miterlimit="10" stroke-width="1.5"/>
              <path id="Trazado_898306" data-name="Trazado 898306" d="M189.957,89.313a57.448,57.448,0,0,0,6.873,6.031" transform="translate(-22.529 -10.592)" fill="none" stroke="#f2eec4" stroke-miterlimit="10" stroke-width="1.5"/>
              <path id="Trazado_898307" data-name="Trazado 898307" d="M200.364,126.079a27.076,27.076,0,0,0,8.192,4.286" transform="translate(-23.763 -14.953)" fill="none" stroke="#f2eec4" stroke-miterlimit="10" stroke-width="1.5"/>
              <path id="Trazado_898308" data-name="Trazado 898308" d="M191.992,136.66a19.078,19.078,0,0,0,5.2,2.366" transform="translate(-22.77 -16.208)" fill="none" stroke="#f2eec4" stroke-miterlimit="10" stroke-width="1.5"/>
              <path id="Trazado_898309" data-name="Trazado 898309" d="M172.437,152.009a23.481,23.481,0,0,0,8.006,3.221" transform="translate(-20.451 -18.028)" fill="none" stroke="#f2eec4" stroke-miterlimit="10" stroke-width="1.5"/>
              <path id="Trazado_898310" data-name="Trazado 898310" d="M170.7,167c2.464,1.493,5.255,3.03,8.071,2.42" transform="translate(-20.245 -19.806)" fill="none" stroke="#f2eec4" stroke-miterlimit="10" stroke-width="1.5"/>
              <path id="Trazado_898311" data-name="Trazado 898311" d="M165.057,154.426a13.445,13.445,0,0,0,4.592,3.122" transform="translate(-19.576 -18.315)" fill="none" stroke="#f2eec4" stroke-miterlimit="10" stroke-width="1.5"/>
              <path id="Trazado_898312" data-name="Trazado 898312" d="M163,171.97a18.213,18.213,0,0,0,6.456,4.2" transform="translate(-19.332 -20.396)" fill="none" stroke="#f2eec4" stroke-miterlimit="10" stroke-width="1.5"/>
              <path id="Trazado_898313" data-name="Trazado 898313" d="M164.129,185.184a15.534,15.534,0,0,0,4.248,2.677A2.683,2.683,0,0,1,169.949,189" transform="translate(-19.466 -21.963)" fill="none" stroke="#f2eec4" stroke-miterlimit="10" stroke-width="1.5"/>
              <path id="Trazado_898314" data-name="Trazado 898314" d="M158.47,193.317a25.645,25.645,0,0,0,8.405,2.79" transform="translate(-18.794 -22.927)" fill="none" stroke="#f2eec4" stroke-miterlimit="10" stroke-width="1.5"/>
              <path id="Trazado_898315" data-name="Trazado 898315" d="M201.19,101.7c-3.946.746-8.016-.261-11.768-1.691s-7.35-3.289-11.22-4.355-8.178-1.268-11.753.559c-2.984,1.524-4.736,4.294-3.95,7.658,1.427,6.1,10.476,10.165,15.813,11.393a34.69,34.69,0,0,0,16.125.4c6.539-1.2,13.211-6.141,17.629-11.033,3.5-3.872,6.428-10.185,6.222-15.4-.033-.821-.449-2.62-1.646-2.341-.9.209-1.378,1.923-1.7,2.642-2.486,5.573-7.476,10.981-13.753,12.169" transform="translate(-19.25 -10.301)" fill="#aa2b1d"/>
              <path id="Trazado_898316" data-name="Trazado 898316" d="M160.18,101.612a5.28,5.28,0,0,0-1.85-3.356,9.122,9.122,0,0,1-2.3-2.546A3.349,3.349,0,0,1,157.3,91.6a14.773,14.773,0,0,0,3.144,5.249,2.372,2.372,0,0,0,.822.639c.925.365,1.87-.4,2.638-1.034s1.965-1.17,2.671-.469c2.093,2.081-2.289,7.747-3.723,9.018a2.746,2.746,0,0,1-1.574.821c-2.205.131-1.037-3.1-1.1-4.207" transform="translate(-18.473 -10.863)" fill="#493520"/>
              <path id="Trazado_898317" data-name="Trazado 898317" d="M200.047,105.388a35.132,35.132,0,0,1-8.316-.607c-2.741-.71-4.7-2.455-7.075-3.853a16.082,16.082,0,0,0-11.413-1.988c-3.134.555-1.81,5.342,1.318,4.781,5.793-1.04,8.983,2.479,14.027,4.236,3.866,1.347,7.9,1.027,11.844.272,1.635-.313,1.207-2.823-.384-2.841" transform="translate(-20.334 -11.699)" fill="#b7392c"/>
              <rect id="Rectángulo_403162" data-name="Rectángulo 403162" width="133.89" height="184.458" transform="translate(39.14 101.869)" fill="#e5ba76"/>
              <path id="Trazado_898318" data-name="Trazado 898318" d="M196.313,298.588l18.7-8.248,22.324-2.5V103.386l-22.324,3.339-18.7,7.406Z" transform="translate(-23.283 -12.262)" fill="#e5ba76"/>
              <line id="Línea_632" data-name="Línea 632" y2="180.45" transform="translate(172.301 105.877)" fill="none" stroke="#cc9c56" stroke-miterlimit="10" stroke-width="2"/>
              <line id="Línea_633" data-name="Línea 633" y2="163.774" transform="translate(191.606 97.678)" fill="none" stroke="#cc9c56" stroke-miterlimit="10" stroke-width="2"/>
              <path id="Trazado_898319" data-name="Trazado 898319" d="M236.1,310.519l-21.309-10.672-19.305,20.887" transform="translate(-23.184 -35.562)" fill="none" stroke="#cc9c56" stroke-miterlimit="10" stroke-width="2"/>
              <path id="Trazado_898320" data-name="Trazado 898320" d="M150.53,135.381l23.78-8.355" transform="translate(-17.853 -15.065)" fill="none" stroke="#cc9c56" stroke-miterlimit="10" stroke-width="2"/>
              <path id="Trazado_898321" data-name="Trazado 898321" d="M61.171,129.754a144.481,144.481,0,0,0,43.493,18.735" transform="translate(-7.255 -15.389)" fill="none" stroke="#cc9c56" stroke-miterlimit="10" stroke-width="2"/>
              <path id="Trazado_898322" data-name="Trazado 898322" d="M59.854,143.1a64.183,64.183,0,0,0,24.989,19.656" transform="translate(-7.099 -16.971)" fill="none" stroke="#cc9c56" stroke-miterlimit="10" stroke-width="2"/>
              <path id="Trazado_898323" data-name="Trazado 898323" d="M181.274,141.164q-3.62,10.294-6.7,20.768" transform="translate(-20.705 -16.742)" fill="none" stroke="#cc9c56" stroke-miterlimit="10" stroke-width="2"/>
              <path id="Trazado_898324" data-name="Trazado 898324" d="M205.51,208.443V311.684c0,5.113,16.272,9.258,36.343,9.258S278.2,316.8,278.2,311.684V208.443Z" transform="translate(-24.373 -24.721)" fill="#f4aed0"/>
              <path id="Trazado_898325" data-name="Trazado 898325" d="M219.523,276.313c.038,3.788,2.936,7.7,6.724,7.748,2.65.032,5.169-1.729,7.785-1.3a7.062,7.062,0,0,1,4.3,3c1.066,1.442,1.823,3.088,2.8,4.589,2.236,3.425,5.892,6.133,9.977,6.342s8.372-2.619,9-6.66a22.549,22.549,0,0,0-.25-5.266,6.837,6.837,0,0,1,1.156-5.018c2.03-2.389,5.789-1.718,8.857-2.364a9.631,9.631,0,0,0,5.121-2.942c1.386-1.532,2.257-3.786,1.434-5.681-1.226-2.82-5.487-3.516-6.321-6.477-.513-1.822.535-3.679,1.526-5.291,1.809-2.945,3.572-6.9,2.194-10.421-1.09-2.788-4.433-4.2-7.406-3.839s-5.593,2.116-7.829,4.107-4.225,4.27-6.65,6.025a19.927,19.927,0,0,1-14.84,3.457c-2.343-.4-4.682-1.224-7.034-.892s-4.71,2.434-4.193,4.753c.115.517.362,1,.469,1.516.55,2.678-2.45,4.624-3.831,6.524a13.783,13.783,0,0,0-3,8.09" transform="translate(-26.035 -28.781)" fill="#fceed2"/>
              <path id="Trazado_898326" data-name="Trazado 898326" d="M278.2,207.2c0,5.114-16.272,9.259-36.343,9.259s-36.343-4.145-36.343-9.259,16.271-9.259,36.343-9.259S278.2,202.084,278.2,207.2" transform="translate(-24.373 -23.475)" fill="#ffcce9"/>
              <path id="Trazado_898327" data-name="Trazado 898327" d="M207.205,211.032c0-4.9,15.6-8.878,34.849-8.878s34.85,3.975,34.85,8.878" transform="translate(-24.574 -23.975)" fill="none" stroke="#f4aed0" stroke-miterlimit="10" stroke-width="2"/>
              <path id="Trazado_898328" data-name="Trazado 898328" d="M278.2,215.684c0,5.114-16.272,9.259-36.343,9.259s-36.343-4.145-36.343-9.259" transform="translate(-24.373 -25.58)" fill="none" stroke="#c4749e" stroke-linejoin="round" stroke-width="2"/>
              <path id="Trazado_898329" data-name="Trazado 898329" d="M235.083,214.061c7.706,0,13.953-1.592,13.953-3.555s-6.246-3.555-13.953-3.555-13.953,1.592-13.953,3.555,6.246,3.555,13.953,3.555m0-5.121c4.782,0,8.66.571,8.66,1.275s-3.877,1.276-8.66,1.276-4.782-2.552,0-2.552" transform="translate(-26.226 -24.544)" fill="#f490c5"/>
              <path id="Trazado_898330" data-name="Trazado 898330" d="M244.619,261.363a10.976,10.976,0,0,0,1.264,8.751c2.029,3.471,5.526,7.048,9.694,7.35,9.829.711,21.294-4.073,20.875-15.565a25.082,25.082,0,0,0-1.605-7.951,9.233,9.233,0,0,0-1.692-3.016c-2.342-2.56-6.247-3.311-9.553-3.192a10.044,10.044,0,0,0-5.705,1.836c-4.7,3.547-11.276,5.608-13.277,11.788" transform="translate(-28.961 -29.38)" fill="#aa2b1d"/>
              <path id="Trazado_898331" data-name="Trazado 898331" d="M249.67,248.079a22.219,22.219,0,0,1,2.895,2.139c1.034,1.093.918,1.674-.256,2.657a7.642,7.642,0,0,0-2.53,4.16l2.436-1.735a7.471,7.471,0,0,0,1.41,3.941,46.519,46.519,0,0,1,1.935-4.37,34,34,0,0,1,5.2,2.992c-.325-1.889-1.929-3.252-3.428-4.447a24.953,24.953,0,0,1,4.308-.908,7.273,7.273,0,0,0-3.959-1.281,9.142,9.142,0,0,0,3.733-2.345c-.123.127-1.854.026-2.265.244-.711.379-1.113.988-2.062.859a3.074,3.074,0,0,1-.944-.348c-1.308-.653-2.441-1.54-3.7-2.184-1.082-.552-2.226-.649-2.772.625" transform="translate(-29.611 -29.302)" fill="#493520"/>
              <path id="Trazado_898332" data-name="Trazado 898332" d="M269.747,253.761a1.944,1.944,0,0,1,1.273.98,2.49,2.49,0,0,1,.133.581,1.69,1.69,0,0,0,.858,1.247,1.333,1.333,0,0,0,1.942-.79,1.721,1.721,0,0,0-.847-1.924,3.987,3.987,0,0,0-1.1-.434,5.2,5.2,0,0,0-2.262-.138c-.255.053-.217.405,0,.478" transform="translate(-31.971 -30.03)" fill="#b7392c"/>
              <path id="Trazado_898333" data-name="Trazado 898333" d="M265.537,260.492a7.537,7.537,0,0,1,2.116,4.764c.246,1.611,2.272,2.5,3.711,2.107a3.039,3.039,0,0,0,2.107-3.71,10.574,10.574,0,0,0-5.78-5.951,1.811,1.811,0,0,0-2.293.457,1.776,1.776,0,0,0,.139,2.333" transform="translate(-31.432 -30.538)" fill="#b7392c"/>
              <path id="Trazado_898334" data-name="Trazado 898334" d="M257.267,262.413a3.438,3.438,0,0,0,.07,2.19,1.612,1.612,0,0,0,3.108,0,1.692,1.692,0,0,0-.414-1.568c.289.367.1.13.048.029-.029-.052-.056-.1-.08-.159q.131.321.074.155c-.018-.086-.044-.173-.065-.258q-.03-.169.023.163c0-.06-.005-.119,0-.179a1.407,1.407,0,0,0-2.76-.374" transform="translate(-30.494 -31.001)" fill="#b7392c"/>
              <path id="Trazado_898335" data-name="Trazado 898335" d="M249.332,262.718l-.047.019a1.534,1.534,0,0,0-1.066,1.4,6.188,6.188,0,0,0,.19,1.962,2.449,2.449,0,0,0,1.59,1.993,1.579,1.579,0,0,0,1.933-1.1,2.3,2.3,0,0,0-.36-1.735,2.583,2.583,0,0,1-.332-.707,5.166,5.166,0,0,0-.315-1.149,1.461,1.461,0,0,0-1.594-.687" transform="translate(-29.437 -31.151)" fill="#b7392c"/>
              <path id="Trazado_898336" data-name="Trazado 898336" d="M256.065,278.117a3.469,3.469,0,0,0,1.851,1.4" transform="translate(-30.369 -32.984)" fill="none" stroke="#93251d" stroke-miterlimit="10" stroke-width="1"/>
              <path id="Trazado_898337" data-name="Trazado 898337" d="M261.386,273.582a7.266,7.266,0,0,0,4.426,3.149" transform="translate(-31 -32.447)" fill="none" stroke="#93251d" stroke-miterlimit="10" stroke-width="1"/>
              <path id="Trazado_898338" data-name="Trazado 898338" d="M274.475,269.448l.534,2.734" transform="translate(-32.553 -31.956)" fill="none" stroke="#93251d" stroke-miterlimit="10" stroke-width="1"/>
              <path id="Trazado_898339" data-name="Trazado 898339" d="M275.293,263.445a5.326,5.326,0,0,1,.572,2.23" transform="translate(-32.65 -31.244)" fill="none" stroke="#93251d" stroke-miterlimit="10" stroke-width="1"/>
              <path id="Trazado_898340" data-name="Trazado 898340" d="M257.75,270.664a2.189,2.189,0,0,0,.92,1.058" transform="translate(-30.569 -32.101)" fill="none" stroke="#93251d" stroke-miterlimit="10" stroke-width="1"/>
              <path id="Trazado_898341" data-name="Trazado 898341" d="M262.863,251.644a8.4,8.4,0,0,1,2.06-.04,2.818,2.818,0,0,1,1.8.921" transform="translate(-31.175 -29.834)" fill="none" stroke="#93251d" stroke-miterlimit="10" stroke-width="1"/>
              <path id="Trazado_898342" data-name="Trazado 898342" d="M251.732,259.327a4.578,4.578,0,0,0,.959,3.181" transform="translate(-29.853 -30.756)" fill="none" stroke="#93251d" stroke-miterlimit="10" stroke-width="1"/>
              <path id="Trazado_898343" data-name="Trazado 898343" d="M232.825,264.666a13.933,13.933,0,0,1-7.476,1.4,12.608,12.608,0,0,1-6.855-2.568,26.327,26.327,0,0,1-3.479-3.776c-4.663-5.774-1.87-14.616,4.168-18.3q.3-.181.606-.346c2.44-1.29,6.092-2.076,8.742-1.016a6.288,6.288,0,0,1,2.059,1.6,4.006,4.006,0,0,0,1.8,1.057A5.637,5.637,0,0,1,235,245.714a1.818,1.818,0,0,0,.54.782,2.136,2.136,0,0,0,.72.248c2.016.488,3.522,2.588,4.1,4.489a10.065,10.065,0,0,1-1.235,8.056,14.615,14.615,0,0,1-6.3,5.377" transform="translate(-25.224 -28.413)" fill="#d1473d"/>
              <path id="Trazado_898344" data-name="Trazado 898344" d="M238.334,250.623a5.246,5.246,0,0,0-1.93-2.948l-.49-.4a3.912,3.912,0,0,1-2.076,3.548A15.448,15.448,0,0,0,235,246.51a.679.679,0,0,0-.12-.412.831.831,0,0,0-.307-.211,12.122,12.122,0,0,0-5.11-1.167,4.7,4.7,0,0,1,4.027-.484,7.318,7.318,0,0,0-2.267-1.488,4.155,4.155,0,0,1,4.223,1.229,7.222,7.222,0,0,1,3.77-2.334,3.347,3.347,0,0,1,.916,1.081,11.966,11.966,0,0,0-3.98,1.854,4.48,4.48,0,0,1,3.425.665,3.61,3.61,0,0,0-2.55.271,2.564,2.564,0,0,1,1.9.938,6.221,6.221,0,0,1,1.07,1.848,5.475,5.475,0,0,0-3.058-1.711,8.569,8.569,0,0,1,1.25,1.854,2.88,2.88,0,0,1,.148,2.179" transform="translate(-27.214 -28.659)" fill="#2b2d17"/>
              <path id="Trazado_898345" data-name="Trazado 898345" d="M223.435,242.387a6.084,6.084,0,0,0-4.393,1.5c-1.226,1.034-2.949,2.775-2.253,4.51a1.95,1.95,0,0,0,1.888,1.27,3.051,3.051,0,0,0,2.345-1.628,6.2,6.2,0,0,1,2.863-2.324,1.7,1.7,0,0,0-.45-3.327" transform="translate(-25.692 -28.746)" fill="#e55653"/>
              <path id="Trazado_898346" data-name="Trazado 898346" d="M222.626,249.188a12.2,12.2,0,0,0-5.642,6.506,3.132,3.132,0,1,0,6.157.834,5.944,5.944,0,0,1,1.537-4.68,1.7,1.7,0,0,0-2.053-2.66" transform="translate(-25.716 -29.525)" fill="#e55653"/>
              <path id="Trazado_898347" data-name="Trazado 898347" d="M236.19,252.492a8.929,8.929,0,0,1-1.128,5.1" transform="translate(-27.878 -29.945)" fill="none" stroke="#c13b38" stroke-miterlimit="10" stroke-width="1"/>
              <path id="Trazado_898348" data-name="Trazado 898348" d="M232.077,261.426a8.512,8.512,0,0,1-5.82,3.107" transform="translate(-26.834 -31.005)" fill="none" stroke="#c13b38" stroke-miterlimit="10" stroke-width="1"/>
              <path id="Trazado_898349" data-name="Trazado 898349" d="M226.683,246.665a8.878,8.878,0,0,0-4.619,2.372" transform="translate(-26.337 -29.254)" fill="none" stroke="#c13b38" stroke-miterlimit="10" stroke-width="1"/>
              <path id="Trazado_898350" data-name="Trazado 898350" d="M220.334,251.2a7.9,7.9,0,0,0-2.873,7.458" transform="translate(-25.778 -29.792)" fill="none" stroke="#c13b38" stroke-miterlimit="10" stroke-width="1"/>
              <path id="Trazado_898351" data-name="Trazado 898351" d="M223.893,265.949l-1.162.1" transform="translate(-26.416 -31.541)" fill="none" stroke="#c13b38" stroke-miterlimit="10" stroke-width="1"/>
              <path id="Trazado_898352" data-name="Trazado 898352" d="M228.991,232.925c2.114,1.683,5.147,3.5,7.326,5.1a62.225,62.225,0,0,0,10.224,6.374,32.291,32.291,0,0,0,13.454,2.9,60.337,60.337,0,0,0,6.155-.324c.53-.051,6.424-1.19,6.323-1.375a2.856,2.856,0,0,1,.345,1.269.521.521,0,0,1-.1.376.561.561,0,0,1-.308.133,62.827,62.827,0,0,1-19.237.993,21.45,21.45,0,0,1-5.817-1.4,31.7,31.7,0,0,1-5.388-3.024q-7.4-4.868-14.311-10.427Z" transform="translate(-27 -27.625)" fill="#2b2d17"/>
              <path id="Trazado_898353" data-name="Trazado 898353" d="M238.192,311.291a10.361,10.361,0,0,0,3.316,5.236,5.793,5.793,0,0,0,5.913.863,4.067,4.067,0,0,0,1.959-5.284,6.419,6.419,0,0,0-1.453-1.66c-2.272-2.035-4.762-3.971-6.192-6.665-1.208-2.279-2.915-2.94-3.8-.083a13.193,13.193,0,0,0,.251,7.593" transform="translate(-28.166 -35.794)" fill="#fceed2"/>
              <path id="Trazado_898354" data-name="Trazado 898354" d="M264.312,234.93a5.413,5.413,0,0,0-.455-2.4,2.384,2.384,0,0,0-1.906-1.383c-1.268-.061-2.241,1.214-2.462,2.464-.357,2.016.306,3.991-.355,6-.419,1.271-1.681,2.2-.078,2.627,3.391.906,5.273-5.116,5.255-7.3" transform="translate(-30.63 -27.413)" fill="#fceed2"/>
              <path id="Trazado_898355" data-name="Trazado 898355" d="M270.044,302.873a39.187,39.187,0,0,0-5.318,2.369,15.136,15.136,0,0,1-4.6,1.18c-1.319.118-2.913-.392-4.14.035-2.348.818-.821,3.11.441,4.033a15.546,15.546,0,0,0,11.447,2.645c3.57-.583,7.882-3.244,7.654-7.419-.152-2.786-3.283-3.422-5.484-2.844" transform="translate(-30.214 -35.897)" fill="#fceed2"/>
              <path id="Trazado_898356" data-name="Trazado 898356" d="M278.2,318.086c0,5.114-16.272,9.259-36.343,9.259s-36.343-4.145-36.343-9.259" transform="translate(-24.373 -37.725)" fill="none" stroke="#c4749e" stroke-linejoin="round" stroke-width="2"/>
              <path id="Trazado_898357" data-name="Trazado 898357" d="M69.435,278.3l13.9,60.479s9.765,9.142,56.975,9.142,56.974-9.142,56.974-9.142l13.9-60.479Z" transform="translate(-8.235 -33.006)" fill="#ea9642"/>
              <path id="Trazado_898358" data-name="Trazado 898358" d="M81.578,331.14c6.811,2.841,23.232,7.322,59.075,7.322s52.264-4.481,59.074-7.322l9.231-40.166c-6.976,2.5-25.412,7.573-68.305,7.573s-61.33-5.069-68.305-7.573Z" transform="translate(-8.58 -34.509)" fill="#252947"/>
              <path id="Trazado_898359" data-name="Trazado 898359" d="M157.728,312.394c.692,1.918,1.8,1.376,3.443,1.934,2.427.821.861,2.894,2.872,4.119.865.527,1.393.189,2.278.259,1.039.083,1.335-.89,2.036.667.075.167-.22.74-.109.993.652,1.5.811,2.167,2.795,2.25,1.071.044,2.36-.7,3.365-.221,1.608.761.265,1.272.639,2.684a2.08,2.08,0,0,0,2.283,1.856c1.133.027,2.5-1.249,3.489-.8.8.361.238.88.806,1.429,1.724,1.663,5.053,1.144,7.264,1.291,1.864.124,1.877-2.831,0-2.912-.953-.041-4.686.378-5.362-.19.879.74-.161-1.422-.091-1.325-.884-1.208-2.441-1.066-3.72-.8-1.323.273-1.812,1.449-2.444.256-.225-.427.18-1.4.025-1.927A2.42,2.42,0,0,0,175.052,320c-.943-.155-2.055.559-2.922.389-3.576-.7-.563-1.006-1.352-2.477-.715-1.333-.832-1.341-2.212-1.9-1.318-.538-2.026,1.257-3.534-.333-.321-.338.092-1.691-.526-2.343-1.222-1.288-4.761-.011-5.419-1.514-.335-.766-1.645-.219-1.359.573" transform="translate(-18.702 -36.938)" fill="#ffc95c"/>
              <path id="Trazado_898360" data-name="Trazado 898360" d="M166.845,310.3c.876-.126,2.308,3.2,3.038,3.721a6.393,6.393,0,0,0,2.969.752c1.859.31,1.647.333,2.87,1.509.159.152.166.45.357.612,1.217,1.027,1.965.81,3.38,1.252,1.972.616,1.331,1.511,2.239,2.91.654,1.007,1.451.945,2.414,1.252,1.677.535.258-1.108,3.408.616.674.369,1.164,1.271,1.852,1.691a3.212,3.212,0,0,0,3.335.313,1.308,1.308,0,0,0-.346-2.556c-2.016,0-2.693-1.9-4.271-2.645-.949-.447-3.294.021-3.929-.62-.561-.566-.074-2.067-1.037-2.9-.94-.816-2.014-.6-3.11-.864-2.383-.577-1.6-1.609-3.159-2.791-.726-.552-1.526-.406-2.361-.528-2.129-.309-2.98-.874-4.89-2.173-.3-.2-.541-.688-.907-.807-1-.325-1.2-.492-2.23-.114a.713.713,0,0,0,.379,1.374" transform="translate(-19.683 -36.613)" fill="#ffc95c"/>
              <path id="Trazado_898361" data-name="Trazado 898361" d="M174.1,307.764c2.942-.073,2.949,1.892,4.833,3.207,1.1.765,2.4.271,3.66,1.18.824.6.828,1.556,1.836,2.132.616.353,1.364.262,1.968.546,1.558.732.758.907,1.746,1.8,2.1,1.9,5.116,1.962,6.928,4.215,1.517,1.886,4.225-.8,2.673-2.673a8.257,8.257,0,0,0-3.673-2.63,13.36,13.36,0,0,1-2.211-.609c-.894-.561-.711-.866-1.336-1.58a6.129,6.129,0,0,0-1.661-1.556c-.7-.386-1.778-.357-2.531-.72-1.866-.9-.472-.507-1.975-1.517a6.377,6.377,0,0,0-2.3-1.022c-.739-.189-1.4.23-2.071-.27-.264-.2-.173-.844-.411-1.1-1.688-1.824-3.266-1.735-5.71-1.167a.9.9,0,0,0,.239,1.765" transform="translate(-20.543 -36.248)" fill="#ffc95c"/>
              <path id="Trazado_898362" data-name="Trazado 898362" d="M158.553,318c1.871.861,1.471,3.776,3.732,4.8,1.292.585,1.576.294,2.732,1.263,1.181.989.485,1.241,1.556,2.213a4.419,4.419,0,0,0,1.82,1.041c.7.21,1.3-.041,2.04.255,1.5.6.632.755,1.74,1.72.839.731,1.056,1.228,2.188,1.631s2.29-.048,3.415.079c1.827.208,3.013,1.386,4.879,1.3a1.245,1.245,0,0,0,.33-2.434c-1.371-.354-2.575-1.277-3.962-1.528-1.941-.353-3.3.532-4.924-1.154-.669-.7-.851-1.581-1.733-2.115-.965-.583-1.924-.043-2.837-.405-1.168-.463-1.529-2.118-2.536-2.809a8.783,8.783,0,0,0-2.7-.91c-1.088-.347-2.085-.4-2.9-1.364-.331-.389-.353-1.129-.721-1.474-.867-.813-.546-.74-1.682-1.128-.591-.2-1.007.754-.43,1.02" transform="translate(-18.771 -37.59)" fill="#ffc95c"/>
              <path id="Trazado_898363" data-name="Trazado 898363" d="M191,308.6c.772.931.532,2.312,1.393,3.207a2.72,2.72,0,0,0,.851.556c.561.244,1.555.044,2.006.31.667.395.708,1.552,1.549,2.1.537.349,1.181.43,1.648.9.427.433.649,1.037,1.059,1.5a1.41,1.41,0,0,0,2.38-.986,3.714,3.714,0,0,0-1.776-3.121c-.457-.328-1.16-.433-1.567-.762-.368-.3-.447-.869-.8-1.291-.848-1.017-1.931-.764-3.072-.884-1.391-.147-1.783-1.823-2.884-2.557-.656-.436-1.231.489-.789,1.022" transform="translate(-22.634 -36.465)" fill="#ffc95c"/>
              <path id="Trazado_898364" data-name="Trazado 898364" d="M158.427,323.15c-.385,1.97.462,2.5,1.738,3.682,1.366,1.26.6,3.132,2.727,3.945.937.359,2.025-.036,2.917.276s.794,1.118,1.368,1.879a5.439,5.439,0,0,0,5.759,1.731,1.383,1.383,0,0,0,.326-2.492c-.832-.476-2.584-.584-3.178-1.206-.338-.353-.348-.971-.584-1.386a3.679,3.679,0,0,0-2.8-1.79c-.532-.079-1.653.257-2.1.035-.991-.492-.616-1.371-1.075-2.157-.585-1-3.058-1.227-3.151-2.255s-1.717-1.443-1.948-.264" transform="translate(-18.778 -38.24)" fill="#ffc95c"/>
              <path id="Trazado_898365" data-name="Trazado 898365" d="M161.614,337.219a25.232,25.232,0,0,0,4.987.219,10.936,10.936,0,0,0,3.457-.652,5.157,5.157,0,0,0,2.662-2.215c1.08-1.977,1.762-3.952,4.447-3.931a1.574,1.574,0,0,1,.934.256c.691.516.463,1.587.166,2.4-.374,1.016-.886,1.874-1.33,2.826-.156.335-.437.989-.213,1.351.79,1.279,3.632-2.187,4.035-2.905a4.693,4.693,0,0,1,1.354-1.8c.641-.41,1.695-.271,1.916.456.291.957-1.011,2.065-.385,2.845.379.472,1.16.3,1.626-.085a10.325,10.325,0,0,1,1.324-1.234c.862-.487,1.931-.153,2.921-.159,1.825-.008,3.411-1.185,4.849-2.31" transform="translate(-19.167 -39.214)" fill="none" stroke="#aa3a24" stroke-miterlimit="10" stroke-width="1"/>
              <path id="Trazado_898366" data-name="Trazado 898366" d="M206.113,307.2a62.519,62.519,0,0,0,15.093-4.393" transform="translate(-24.445 -35.913)" fill="none" stroke="#393e60" stroke-miterlimit="10" stroke-width="2"/>
              <path id="Trazado_898367" data-name="Trazado 898367" d="M205.03,313.585a62.519,62.519,0,0,0,15.093-4.393" transform="translate(-24.316 -36.67)" fill="none" stroke="#393e60" stroke-miterlimit="10" stroke-width="2"/>
              <path id="Trazado_898368" data-name="Trazado 898368" d="M199.867,331.441a62.52,62.52,0,0,0,15.093-4.393" transform="translate(-23.704 -38.788)" fill="none" stroke="#393e60" stroke-miterlimit="10" stroke-width="2"/>
              <path id="Trazado_898369" data-name="Trazado 898369" d="M82.394,303.569c19.968,4.956,40.529,6.152,63.666,5.845" transform="translate(-9.772 -36.003)" fill="none" stroke="#393e60" stroke-miterlimit="10" stroke-width="2"/>
              <path id="Trazado_898370" data-name="Trazado 898370" d="M84.939,311.448c19.267,4.5,39.152,5.6,61.423,5.305" transform="translate(-10.074 -36.938)" fill="none" stroke="#393e60" stroke-miterlimit="10" stroke-width="2"/>
              <path id="Trazado_898371" data-name="Trazado 898371" d="M85.168,326.573c19.266,4.5,39.151,5.6,61.422,5.305" transform="translate(-10.101 -38.731)" fill="none" stroke="#393e60" stroke-miterlimit="10" stroke-width="2"/>
              <path id="Trazado_898372" data-name="Trazado 898372" d="M211.179,277.238c0,4.356-31.73,7.887-70.873,7.887s-70.872-3.531-70.872-7.887,31.73-7.887,70.872-7.887,70.873,3.531,70.873,7.887" transform="translate(-8.235 -31.945)" fill="#ffc95c"/>
              <path id="Trazado_898373" data-name="Trazado 898373" d="M206.321,276.736c0,2.844-29.218,5.15-65.259,5.15S75.8,279.58,75.8,276.736s29.217-5.151,65.258-5.151S206.321,273.892,206.321,276.736Z" transform="translate(-8.99 -32.21)" fill="none" stroke="#e8a23d" stroke-miterlimit="10" stroke-width="2"/>
              <path id="Trazado_898374" data-name="Trazado 898374" d="M199.311,283.638c3.5-.048,6.881,1.388,9.981,3.179a17.468,17.468,0,0,0,3.741,1.852,4.514,4.514,0,0,0,3.96-.5c1.512-1.119,2.014-3.289,3.117-4.887a12.765,12.765,0,0,1,3.389-3.046" transform="translate(-23.638 -33.235)" fill="#ffc95c"/>
              <path id="Trazado_898375" data-name="Trazado 898375" d="M214.675,285.6l2.734,2.1,1.349-2.765Z" transform="translate(-25.46 -33.793)" fill="#252947"/>
              <path id="Trazado_898376" data-name="Trazado 898376" d="M275.39,337.7a24.549,24.549,0,0,0,3.409-9.288c.393-3.661-.548-7.327-1.63-10.847A3.917,3.917,0,0,0,275.4,314.9a1.355,1.355,0,0,0-1.056-.052,1.953,1.953,0,0,0-.806.821,34.654,34.654,0,0,0-4.143,10.968,48,48,0,0,0-1.439,12.232,24.616,24.616,0,0,0,.827,6.01c.786,2.712,2.285.278,3-1.029,1.146-2.084,2.436-4.084,3.606-6.154" transform="translate(-31.777 -37.331)" fill="#afa856"/>
              <path id="Trazado_898377" data-name="Trazado 898377" d="M275.127,315.049c-.061,4.706-.562,9.394-1.063,14.074-.494,4.624-2.611,12.564-3.982,17.007" transform="translate(-32.032 -37.365)" fill="none" stroke="#86893f" stroke-linejoin="round" stroke-width="1"/>
              <path id="Trazado_898378" data-name="Trazado 898378" d="M287.708,359.789a7.528,7.528,0,0,0-2.668-.459,55.034,55.034,0,0,1-9.729-1.833c-.951-.239-1.909-.487-2.864-.751a43.838,43.838,0,0,1-4.052-5.538c-1.319-2.029-2.638-4.066-3.753-6.217a29.669,29.669,0,0,1-1.478-3.286c-.372-1-.365-2.316-1.713-1.774.549,3.21,2.429,6.625,4.021,9.434a46.505,46.505,0,0,0,4.607,6.679,21.742,21.742,0,0,1-8.015-4.284c-1.272-1.148-2.462-2.579-4.14-2.923q.837,1.346,1.675,2.693a38.586,38.586,0,0,1-10.452-3.552,29.384,29.384,0,0,1-4.953-4.224l-4.209-5.929-1.408.93c3.021,4.164,6.16,8.438,10.552,11.117-3.637.146-9.706,3.775-9.764,4.293s1.112,1.684,1.112,1.684,5.422-3.312,6.273-3.457a7.73,7.73,0,0,1,2.254.048,47.525,47.525,0,0,1,5.841,1.084c5.781,1.477,11.14,4.24,16.734,6.315s11.711,3.473,17.513,2.077a2.18,2.18,0,0,0-1.385-2.128" transform="translate(-28.295 -40.066)" fill="#6d3827"/>
              <path id="Trazado_898379" data-name="Trazado 898379" d="M218.136,318.236a20.793,20.793,0,0,0-5.876-1.784,17.923,17.923,0,0,0-8.634,1.643,1.327,1.327,0,0,0-.737.54,1.232,1.232,0,0,0,.019.9c.777,2.527,2.974,4.317,5.083,5.911,3.732,2.82,7.554,5.526,11.547,7.963a46.11,46.11,0,0,0,7.8,4.081c2.626.972,5.433,1.449,8.125,2.439q9.3,3.424,18.392,7.4c2.032.89,3.118.28,1.729-1.549a54.836,54.836,0,0,0-4.522-4.95,102.48,102.48,0,0,0-32.931-22.6" transform="translate(-24.053 -37.523)" fill="#7c7f3b"/>
              <path id="Trazado_898380" data-name="Trazado 898380" d="M203.279,319.029A121.623,121.623,0,0,1,255.9,347.123" transform="translate(-24.109 -37.837)" fill="none" stroke="#64681e" stroke-linejoin="round" stroke-width="1"/>
              <path id="Trazado_898381" data-name="Trazado 898381" d="M238.414,322.6c-4.2-4.956-12.228-3.842-15.893,1.388-3.155,4.5-.541,10.089,2.159,14.048,4.517,6.625,16.9,3.467,17.362-4.72a16.1,16.1,0,0,0-3.627-10.716" transform="translate(-26.22 -37.882)" fill="#6f6da8"/>
              <path id="Trazado_898382" data-name="Trazado 898382" d="M231.845,332.419a2.78,2.78,0,0,1-2.462.46c.323-.248,2.361-1.685.94-1.977a2.583,2.583,0,0,1-1.717-1.266l1.073-.7c.666-.437-.531-1.565-.58-2.078a26.043,26.043,0,0,1,2.712.109,2.974,2.974,0,0,1,1.487,2.753,3.5,3.5,0,0,1-1.453,2.7" transform="translate(-27.113 -38.765)" fill="#4b4b8c"/>
              <path id="Trazado_898383" data-name="Trazado 898383" d="M258.655,321.7a7.932,7.932,0,0,0-5.85,4.054c-1.245,2.569-.588,5.7.8,8.2a11.062,11.062,0,0,0,4.622,4.664c3.9,1.913,8.921.414,11.781-2.855a7.965,7.965,0,0,0,2.188-6.016c-.727-5.989-8.307-8.952-13.539-8.047" transform="translate(-29.904 -38.135)" fill="#373360"/>
              <path id="Trazado_898384" data-name="Trazado 898384" d="M267.116,324.656a1.53,1.53,0,0,1,.1.117,1.678,1.678,0,0,1-.414,2.257c-2.007,2.077-4.786.413-5.547-1.9a12.268,12.268,0,0,1-.116-2.175,3.971,3.971,0,0,1,1.048.859,2.022,2.022,0,0,0,1.163.661.832.832,0,0,0,.938-.755q.243.561.488,1.12c.353.808,1.4-1.163,2.339-.184" transform="translate(-30.968 -38.302)" fill="#0d0d26"/>
              <path id="Trazado_898385" data-name="Trazado 898385" d="M259.471,358.46c-7.25.419-14.565.853-21.565,2.788s-13.755,5.513-18.255,11.215a3.139,3.139,0,0,0-.886,2.05c.093,1.308,1.588,1.988,2.872,2.256,6.112,1.282,12.433-.416,18.332-2.467A150.588,150.588,0,0,0,261.8,364.71c1.5-.8,4.729-2.682,3.975-4.845-.747-2.143-4.6-1.5-6.308-1.4" transform="translate(-25.945 -42.493)" fill="#afa856"/>
              <path id="Trazado_898386" data-name="Trazado 898386" d="M218.827,375.284c12.4-2.435,24.431-6.431,36.422-10.415,3.752-1.247,7.593-2.541,10.676-5.017" transform="translate(-25.953 -42.678)" fill="none" stroke="#86893f" stroke-linejoin="round" stroke-width="1"/>
              <path id="Trazado_898387" data-name="Trazado 898387" d="M224.639,351.977c-4.1-.821-8.354-1.308-12.442-.437-4.531.965-8.546,3.526-12.331,6.2-1.132.8-2.356,1.783-2.488,3.162a1.7,1.7,0,0,0,.352,1.282,2.461,2.461,0,0,0,1.3.643c4.789,1.224,9.816,1.1,14.738.656a60.345,60.345,0,0,0,15.189-3.073,30.942,30.942,0,0,0,6.863-3.343c2.934-2-.564-2.842-2.408-3.19-2.94-.554-5.838-1.312-8.771-1.9" transform="translate(-23.408 -41.638)" fill="#7c7f3b"/>
              <path id="Trazado_898388" data-name="Trazado 898388" d="M197.767,362.057c5.652-1.772,11.453-3.009,17.245-4.245,5.722-1.22,16.044-1.8,21.895-1.9" transform="translate(-23.455 -42.211)" fill="none" stroke="#64681e" stroke-linejoin="round" stroke-width="1"/>
              <path id="Trazado_898389" data-name="Trazado 898389" d="M242.1,366.111c-3.05,5.194-9.488,5.813-14.15,2.457a11.741,11.741,0,0,1-3.093-3.789,15.053,15.053,0,0,1-2.128-5.477c-.729-5.556,3.5-9.8,8.847-10.036,8.513-.381,15.012,9.2,10.524,16.844" transform="translate(-26.406 -41.421)" fill="#373360"/>
              <path id="Trazado_898390" data-name="Trazado 898390" d="M229.341,362.079a1.333,1.333,0,0,0-.645.814.719.719,0,0,0,.467.844c.332.078.792-.1.953.195.108.2-.044.436-.113.655a.929.929,0,0,0,.511,1.1,1.277,1.277,0,0,0,1.178-.361,16.269,16.269,0,0,1,1.336,1.839,7.3,7.3,0,0,0,.8-1.716,3.276,3.276,0,0,0-.523-2.334c-.807-1.065-2.75-1.787-3.961-1.037" transform="translate(-27.121 -42.906)" fill="#0d0d26"/>
              <path id="Trazado_898391" data-name="Trazado 898391" d="M154.237,381.726c-6.187-1.983-8.231-9.825-4.8-15.215,2.949-4.635,9.113-4.361,13.8-3.383,7.849,1.637,9.67,14.281,2.285,17.846a16.1,16.1,0,0,1-11.288.752" transform="translate(-17.527 -42.997)" fill="#6f6da8"/>
              <path id="Trazado_898392" data-name="Trazado 898392" d="M163.128,370.317a2.782,2.782,0,0,0-.517-2.451c-.106.394-.653,2.828-1.467,1.626a2.581,2.581,0,0,0-1.827-1.1q-.119.631-.24,1.261c-.148.783-1.649.108-2.142.26a26.108,26.108,0,0,0,1.14,2.463,2.974,2.974,0,0,0,3.113.321,3.5,3.5,0,0,0,1.94-2.377" transform="translate(-18.612 -43.629)" fill="#4b4b8c"/>
            </g>
          </g>
        </g>
        <g id="Grupo_1108342" data-name="Grupo 1108342" transform="translate(199.389 10177.387)">
          <g id="Grupo_1108341" data-name="Grupo 1108341" clip-path="url(#clip-path-3)">
            <path id="Trazado_898393" data-name="Trazado 898393" d="M0,10.963V100.4a1.124,1.124,0,0,0,1.132,1.235H68.3a28.484,28.484,0,0,0,9.821-1.748l20.895-7.675c.67-.246.742-.828.742-1.45V1.312Z" transform="translate(0 -0.231)" fill="#7885d1"/>
            <path id="Trazado_898394" data-name="Trazado 898394" d="M1.373,17.748H68.544A28.486,28.486,0,0,0,78.366,16L99.259,8.326" transform="translate(-0.241 -1.464)" fill="none" stroke="#4959b7" stroke-linejoin="round" stroke-width="2"/>
            <path id="Trazado_898395" data-name="Trazado 898395" d="M1.373,114.967H68.544a28.486,28.486,0,0,0,9.821-1.747l20.894-7.676" transform="translate(-0.241 -18.553)" fill="none" stroke="#4959b7" stroke-linejoin="round" stroke-width="2"/>
            <path id="Trazado_898396" data-name="Trazado 898396" d="M68.3,11.614H1.132a1.13,1.13,0,0,1-.39-2.192L21.637,1.747A28.479,28.479,0,0,1,31.458,0H98.629a1.13,1.13,0,0,1,.39,2.192L78.124,9.868A28.479,28.479,0,0,1,68.3,11.614" transform="translate(0)" fill="#373360"/>
            <path id="Trazado_898397" data-name="Trazado 898397" d="M.9,13.352,21.795,5.677A28.479,28.479,0,0,1,31.616,3.93h67.17" transform="translate(-0.158 -0.691)" fill="none" stroke="#7885d1" stroke-miterlimit="10" stroke-width="2"/>
            <path id="Trazado_898398" data-name="Trazado 898398" d="M38.97,10.828c4.981,0,9.019-1.029,9.019-2.3s-4.038-2.3-9.019-2.3-9.019,1.029-9.019,2.3,4.038,2.3,9.019,2.3m0-3.31c3.092,0,5.6.369,5.6.825s-2.506.824-5.6.824-3.092-1.649,0-1.649" transform="translate(-5.265 -1.096)" fill="#e05e58"/>
            <line id="Línea_634" data-name="Línea 634" y2="69.815" transform="translate(72.585 20.8)" fill="none" stroke="#4959b7" stroke-linejoin="round" stroke-width="2"/>
            <path id="Trazado_898399" data-name="Trazado 898399" d="M27.622,30.808a8.832,8.832,0,0,0-4.494,1.4c-2.07,1.53-2.95,4.221-3.226,6.68a13.657,13.657,0,0,0,2.32,8.506c2.588,4.237,5.816,7.218,10.852,7.936,6.258.892,15.984-1.761,13.827-9.891a20.11,20.11,0,0,0-3.749-6.679c-3.928-5.227-8.716-8.586-15.53-7.955" transform="translate(-3.488 -5.402)" fill="#e05e58"/>
            <path id="Trazado_898400" data-name="Trazado 898400" d="M27.622,28.627a8.832,8.832,0,0,0-4.494,1.4c-2.07,1.53-2.95,4.221-3.226,6.68a13.657,13.657,0,0,0,2.32,8.506c2.588,4.237,5.816,7.218,10.852,7.936,6.258.891,15.984-1.761,13.827-9.891a20.11,20.11,0,0,0-3.749-6.679c-3.928-5.227-8.716-8.586-15.53-7.955" transform="translate(-3.488 -5.019)" fill="#ea8075"/>
            <path id="Trazado_898401" data-name="Trazado 898401" d="M33.545,54.238c2.486,0,2.49-3.863,0-3.863s-2.49,3.863,0,3.863" transform="translate(-5.569 -8.855)" fill="#ef8e89"/>
            <path id="Trazado_898402" data-name="Trazado 898402" d="M44.269,52.616a1.315,1.315,0,0,0,0-2.628,1.315,1.315,0,0,0,0,2.628" transform="translate(-7.559 -8.787)" fill="#ef8e89"/>
            <path id="Trazado_898403" data-name="Trazado 898403" d="M42.362,42a1.864,1.864,0,0,0,1.765-1.188,1.453,1.453,0,0,0,.166-.744l-.069-.513a1.921,1.921,0,0,0-.5-.852l-.391-.3a1.921,1.921,0,0,0-.975-.263A1.866,1.866,0,0,0,40.6,39.325a1.457,1.457,0,0,0-.166.744l.069.513a1.928,1.928,0,0,0,.5.853l.391.3a1.922,1.922,0,0,0,.975.264" transform="translate(-7.107 -6.704)" fill="#ef8e89"/>
            <path id="Trazado_898404" data-name="Trazado 898404" d="M34.731,46.309a2.564,2.564,0,0,0,1.31-.293,3.057,3.057,0,0,0,1.8-1.8,2.564,2.564,0,0,0,.293-1.31l-.121-.9a3.4,3.4,0,0,0-.874-1.5l-.688-.532a3.381,3.381,0,0,0-1.716-.464,2.564,2.564,0,0,0-1.31.293,3.057,3.057,0,0,0-1.8,1.8,2.564,2.564,0,0,0-.293,1.31l.121.9a3.4,3.4,0,0,0,.874,1.5l.688.532a3.381,3.381,0,0,0,1.716.464" transform="translate(-5.507 -6.945)" fill="#ef8e89"/>
            <path id="Trazado_898405" data-name="Trazado 898405" d="M25.339,45.077a1.353,1.353,0,0,0,0-2.7,1.353,1.353,0,0,0,0,2.7" transform="translate(-4.225 -7.448)" fill="#ef8e89"/>
            <path id="Trazado_898406" data-name="Trazado 898406" d="M28.392,35.951a1.979,1.979,0,0,0,1.257-.521,1.967,1.967,0,0,0,.52-1.256l-.063-.472a1.771,1.771,0,0,0-.457-.785l-.36-.278a1.766,1.766,0,0,0-.9-.242,1.972,1.972,0,0,0-1.257.52,1.972,1.972,0,0,0-.52,1.257q.031.236.063.472a1.773,1.773,0,0,0,.457.784l.36.279a1.766,1.766,0,0,0,.9.242" transform="translate(-4.678 -5.695)" fill="#ef8e89"/>
            <path id="Trazado_898407" data-name="Trazado 898407" d="M47.248,46.916a2.144,2.144,0,0,0,2.086-2.086l-.074-.555a2.08,2.08,0,0,0-.537-.921l-.422-.326a2.074,2.074,0,0,0-1.053-.284,2.012,2.012,0,0,0-1.906,1.282,1.565,1.565,0,0,0-.18.8l.074.555a2.085,2.085,0,0,0,.537.921l.422.326a2.075,2.075,0,0,0,1.053.285" transform="translate(-7.938 -7.513)" fill="#ef8e89"/>
            <path id="Trazado_898408" data-name="Trazado 898408" d="M48.194,50.014a1.856,1.856,0,0,0,0-3.709,1.856,1.856,0,0,0,0,3.709" transform="translate(-8.157 -8.14)" fill="#e57670"/>
            <path id="Trazado_898409" data-name="Trazado 898409" d="M39.2,49.173a2.834,2.834,0,0,0,1.8-.747,2.846,2.846,0,0,0,.747-1.8l-.091-.678a2.55,2.55,0,0,0-.655-1.125l-.517-.4a2.529,2.529,0,0,0-1.287-.348,2.834,2.834,0,0,0-1.8.747,2.841,2.841,0,0,0-.747,1.8l.091.678a2.55,2.55,0,0,0,.655,1.125l.517.4a2.546,2.546,0,0,0,1.287.348" transform="translate(-6.442 -7.747)" fill="#e57670"/>
            <path id="Trazado_898410" data-name="Trazado 898410" d="M31.084,50.888a2.406,2.406,0,0,0,1.53-.634,2.406,2.406,0,0,0,.634-1.53c-.026-.192-.051-.383-.077-.575a2.154,2.154,0,0,0-.556-.954l-.438-.339a2.154,2.154,0,0,0-1.092-.3,2.406,2.406,0,0,0-1.53.634,2.406,2.406,0,0,0-.634,1.53c.026.192.052.383.077.575a2.154,2.154,0,0,0,.556.954l.438.339a2.154,2.154,0,0,0,1.092.3" transform="translate(-5.084 -8.184)" fill="#e57670"/>
            <path id="Trazado_898411" data-name="Trazado 898411" d="M29.974,42.355a2.878,2.878,0,0,0,1.474-.33A3.439,3.439,0,0,0,33.469,40a2.878,2.878,0,0,0,.33-1.474q-.069-.508-.137-1.016a3.821,3.821,0,0,0-.984-1.688l-.774-.6a3.807,3.807,0,0,0-1.93-.522,2.886,2.886,0,0,0-1.474.329,3.445,3.445,0,0,0-2.022,2.022,2.886,2.886,0,0,0-.33,1.474q.069.509.137,1.017a3.821,3.821,0,0,0,.984,1.688l.774.6a3.808,3.808,0,0,0,1.93.523" transform="translate(-4.596 -6.1)" fill="#e57670"/>
            <path id="Trazado_898412" data-name="Trazado 898412" d="M36.383,34.615a2.089,2.089,0,0,0,1.977-1.33,1.627,1.627,0,0,0,.186-.833c-.026-.192-.052-.383-.077-.575a2.154,2.154,0,0,0-.556-.954l-.438-.339a2.154,2.154,0,0,0-1.092-.3,2.089,2.089,0,0,0-1.977,1.33,1.627,1.627,0,0,0-.186.833c.026.192.051.383.077.575a2.154,2.154,0,0,0,.556.954l.438.339a2.154,2.154,0,0,0,1.092.3" transform="translate(-6.015 -5.324)" fill="#e57670"/>
            <path id="Trazado_898413" data-name="Trazado 898413" d="M24.018,39.089a2.536,2.536,0,0,0,1.295-.289,3.019,3.019,0,0,0,1.777-1.777,2.536,2.536,0,0,0,.289-1.295q-.059-.448-.12-.893a3.356,3.356,0,0,0-.864-1.484l-.681-.525a3.342,3.342,0,0,0-1.7-.459,2.536,2.536,0,0,0-1.295.289,3.019,3.019,0,0,0-1.777,1.777,2.534,2.534,0,0,0-.289,1.295q.059.446.12.893a3.356,3.356,0,0,0,.864,1.484l.681.525a3.342,3.342,0,0,0,1.7.459" transform="translate(-3.631 -5.689)" fill="#e57670"/>
            <path id="Trazado_898414" data-name="Trazado 898414" d="M39.536,55.555a2.089,2.089,0,0,0,1.977-1.33,1.627,1.627,0,0,0,.186-.833c-.026-.192-.051-.383-.077-.575a2.154,2.154,0,0,0-.556-.954l-.438-.339a2.154,2.154,0,0,0-1.092-.3,2.089,2.089,0,0,0-1.977,1.33,1.627,1.627,0,0,0-.186.833c.026.192.052.383.077.575a2.154,2.154,0,0,0,.556.954l.438.339a2.154,2.154,0,0,0,1.092.3" transform="translate(-6.569 -9.005)" fill="#e57670"/>
            <path id="Trazado_898415" data-name="Trazado 898415" d="M47.208,34.454a8.829,8.829,0,0,0-4.691.386c-2.355,1.04-3.8,3.474-4.609,5.814a13.662,13.662,0,0,0,.4,8.808c1.6,4.7,4.1,8.315,8.855,10.116,5.912,2.238,15.982,1.775,15.654-6.63a20.1,20.1,0,0,0-2.2-7.336C57.933,39.651,54,35.327,47.208,34.454" transform="translate(-6.565 -6.032)" fill="#e05e58"/>
            <path id="Trazado_898416" data-name="Trazado 898416" d="M47.685,32.326a8.829,8.829,0,0,0-4.691.386c-2.355,1.04-3.8,3.474-4.609,5.814a13.662,13.662,0,0,0,.4,8.808c1.6,4.7,4.1,8.315,8.855,10.116,5.912,2.238,15.982,1.775,15.654-6.629a20.1,20.1,0,0,0-2.2-7.337C58.41,37.523,54.472,33.2,47.685,32.326" transform="translate(-6.649 -5.658)" fill="#ea8075"/>
            <path id="Trazado_898417" data-name="Trazado 898417" d="M48.676,58.386c2.486,0,2.49-3.863,0-3.863s-2.49,3.863,0,3.863" transform="translate(-8.228 -9.584)" fill="#ef8e89"/>
            <path id="Trazado_898418" data-name="Trazado 898418" d="M59.392,59.108a1.315,1.315,0,0,0,0-2.628,1.315,1.315,0,0,0,0,2.628" transform="translate(-10.217 -9.928)" fill="#ef8e89"/>
            <path id="Trazado_898419" data-name="Trazado 898419" d="M59.954,48.375a1.457,1.457,0,0,0,.744-.166,1.987,1.987,0,0,0,1.187-1.765l-.069-.513a1.921,1.921,0,0,0-.5-.852l-.39-.3a1.925,1.925,0,0,0-.975-.263,1.985,1.985,0,0,0-1.933,1.931l.069.513a1.928,1.928,0,0,0,.5.853l.391.3a1.927,1.927,0,0,0,.976.264" transform="translate(-10.199 -7.824)" fill="#ef8e89"/>
            <path id="Trazado_898420" data-name="Trazado 898420" d="M51.81,51.008a3.783,3.783,0,0,0,2.4-1,3.783,3.783,0,0,0,1-2.4l-.121-.9a3.4,3.4,0,0,0-.874-1.5l-.688-.532a3.381,3.381,0,0,0-1.716-.464,3.782,3.782,0,0,0-2.4,1,3.783,3.783,0,0,0-1,2.4l.121.9a3.4,3.4,0,0,0,.874,1.5l.688.532a3.381,3.381,0,0,0,1.716.464" transform="translate(-8.509 -7.771)" fill="#ef8e89"/>
            <path id="Trazado_898421" data-name="Trazado 898421" d="M42.573,47.616a1.353,1.353,0,0,0,0-2.7,1.353,1.353,0,0,0,0,2.7" transform="translate(-7.254 -7.895)" fill="#ef8e89"/>
            <path id="Trazado_898422" data-name="Trazado 898422" d="M47.619,39.408a1.979,1.979,0,0,0,1.256-.521,1.972,1.972,0,0,0,.52-1.256c-.021-.157-.041-.315-.063-.472a1.763,1.763,0,0,0-.457-.785l-.36-.278a1.761,1.761,0,0,0-.9-.242,1.712,1.712,0,0,0-1.625,1.092,1.332,1.332,0,0,0-.153.685c.021.157.042.315.063.472a1.781,1.781,0,0,0,.457.784l.361.279a1.762,1.762,0,0,0,.9.242" transform="translate(-8.058 -6.302)" fill="#ef8e89"/>
            <path id="Trazado_898423" data-name="Trazado 898423" d="M63.674,54.25a2.144,2.144,0,0,0,2.086-2.086l-.074-.555a2.08,2.08,0,0,0-.537-.921l-.422-.326a2.074,2.074,0,0,0-1.053-.284,2.144,2.144,0,0,0-2.086,2.086l.074.555a2.085,2.085,0,0,0,.537.921l.422.326a2.075,2.075,0,0,0,1.053.285" transform="translate(-10.826 -8.803)" fill="#ef8e89"/>
            <path id="Trazado_898424" data-name="Trazado 898424" d="M63.881,57.461a1.856,1.856,0,0,0,0-3.709,1.856,1.856,0,0,0,0,3.709" transform="translate(-10.914 -9.449)" fill="#e57670"/>
            <path id="Trazado_898425" data-name="Trazado 898425" d="M55.406,54.724a2.834,2.834,0,0,0,1.8-.747,2.846,2.846,0,0,0,.747-1.8l-.091-.678a2.55,2.55,0,0,0-.655-1.125l-.517-.4a2.529,2.529,0,0,0-1.287-.348,2.46,2.46,0,0,0-2.33,1.567,1.919,1.919,0,0,0-.22.982l.091.678a2.55,2.55,0,0,0,.655,1.125l.517.4a2.545,2.545,0,0,0,1.287.348" transform="translate(-9.291 -8.723)" fill="#e57670"/>
            <path id="Trazado_898426" data-name="Trazado 898426" d="M47.045,54.6a2.224,2.224,0,0,0,2.164-2.164c-.026-.192-.052-.383-.077-.575a2.154,2.154,0,0,0-.556-.954l-.438-.339a2.154,2.154,0,0,0-1.092-.3,2.224,2.224,0,0,0-2.164,2.164c.026.192.052.383.077.575a2.154,2.154,0,0,0,.556.954l.438.339a2.154,2.154,0,0,0,1.092.3" transform="translate(-7.889 -8.837)" fill="#e57670"/>
            <path id="Trazado_898427" data-name="Trazado 898427" d="M48.1,46.137a4.258,4.258,0,0,0,2.7-1.12,2.864,2.864,0,0,0,.791-1.231,2.878,2.878,0,0,0,.33-1.474q-.069-.508-.137-1.016a3.821,3.821,0,0,0-.984-1.688l-.774-.6a3.807,3.807,0,0,0-1.93-.522,4.246,4.246,0,0,0-2.7,1.12,2.862,2.862,0,0,0-.791,1.231,2.886,2.886,0,0,0-.33,1.474q.069.509.137,1.017a3.821,3.821,0,0,0,.984,1.688l.774.6a3.808,3.808,0,0,0,1.93.523" transform="translate(-7.783 -6.765)" fill="#e57670"/>
            <path id="Trazado_898428" data-name="Trazado 898428" d="M55.772,39.876a2.089,2.089,0,0,0,1.977-1.33,1.627,1.627,0,0,0,.186-.833c-.026-.192-.052-.383-.077-.575a2.154,2.154,0,0,0-.556-.954l-.438-.339a2.154,2.154,0,0,0-1.092-.3,2.089,2.089,0,0,0-1.977,1.33,1.627,1.627,0,0,0-.186.833c.026.192.052.383.077.575a2.154,2.154,0,0,0,.556.954l.438.339a2.154,2.154,0,0,0,1.092.3" transform="translate(-9.423 -6.249)" fill="#e57670"/>
            <path id="Trazado_898429" data-name="Trazado 898429" d="M42.928,41.618a3.742,3.742,0,0,0,2.377-.984A2.531,2.531,0,0,0,46,39.552a2.536,2.536,0,0,0,.289-1.295q-.059-.448-.12-.893A3.356,3.356,0,0,0,45.3,35.88l-.681-.525a3.342,3.342,0,0,0-1.7-.459,3.742,3.742,0,0,0-2.377.984,2.531,2.531,0,0,0-.695,1.082,2.534,2.534,0,0,0-.289,1.295q.059.446.12.893a3.356,3.356,0,0,0,.864,1.484l.681.525a3.342,3.342,0,0,0,1.7.459" transform="translate(-6.955 -6.134)" fill="#e57670"/>
            <path id="Trazado_898430" data-name="Trazado 898430" d="M54.273,61a2.224,2.224,0,0,0,2.164-2.164c-.026-.192-.052-.383-.077-.575a2.154,2.154,0,0,0-.556-.954l-.438-.339a2.154,2.154,0,0,0-1.092-.3,2.224,2.224,0,0,0-2.164,2.164c.026.192.052.383.077.575a2.154,2.154,0,0,0,.556.954l.438.339a2.154,2.154,0,0,0,1.092.3" transform="translate(-9.16 -9.962)" fill="#e57670"/>
            <path id="Trazado_898431" data-name="Trazado 898431" d="M37.717,44.724c-.852-3.707.935-10.09,4.835-11.454" transform="translate(-6.593 -5.848)" fill="none" stroke="#e05e58" stroke-miterlimit="10" stroke-width="1"/>
            <line id="Línea_635" data-name="Línea 635" y1="5.829" x2="15.866" transform="translate(79.86 19.39)" fill="none" stroke="#6879c1" stroke-miterlimit="10" stroke-width="2"/>
            <line id="Línea_636" data-name="Línea 636" y1="7.104" x2="19.338" transform="translate(78.124 26.288)" fill="none" stroke="#6879c1" stroke-miterlimit="10" stroke-width="2"/>
            <line id="Línea_637" data-name="Línea 637" y1="7.104" x2="19.338" transform="translate(78.124 34.676)" fill="none" stroke="#6879c1" stroke-miterlimit="10" stroke-width="2"/>
            <line id="Línea_638" data-name="Línea 638" y1="7.104" x2="19.338" transform="translate(78.124 43.064)" fill="none" stroke="#6879c1" stroke-miterlimit="10" stroke-width="2"/>
            <line id="Línea_639" data-name="Línea 639" y1="7.104" x2="19.338" transform="translate(78.124 51.453)" fill="none" stroke="#6879c1" stroke-miterlimit="10" stroke-width="2"/>
            <line id="Línea_640" data-name="Línea 640" y1="7.104" x2="19.338" transform="translate(78.124 59.841)" fill="none" stroke="#6879c1" stroke-miterlimit="10" stroke-width="2"/>
            <line id="Línea_641" data-name="Línea 641" y1="7.104" x2="19.338" transform="translate(78.124 68.23)" fill="none" stroke="#6879c1" stroke-miterlimit="10" stroke-width="2"/>
            <line id="Línea_642" data-name="Línea 642" y1="7.104" x2="19.338" transform="translate(78.124 76.618)" fill="none" stroke="#6879c1" stroke-miterlimit="10" stroke-width="2"/>
            <path id="Trazado_898432" data-name="Trazado 898432" d="M12.3,63.45a34.835,34.835,0,0,1,12.313-8.194,79.112,79.112,0,0,1-5.91,12.8c-2,3.473-4.357,6.892-7.739,9.04a2.47,2.47,0,0,1-2.2.487,7.259,7.259,0,0,1,2.8-3.573c4.475-3.475,10.007-5.239,15.023-7.872s9.874-6.665,10.973-12.223a45.4,45.4,0,0,1-9.287,18.727,11.062,11.062,0,0,1-4.8,3.777,21.469,21.469,0,0,1,8.844-7.141,3.556,3.556,0,0,1,2.821-.309c1.134.517,1.479,1.963,1.471,3.209s-.209,2.569.359,3.678c1.486-.1,2.655-1.257,3.659-2.357,1.955-2.142,3.852-4.335,5.75-6.529.1,1.206-.175,3.748.408,4.781.826,1.463,1.333.264,2.623-.274,3.014-1.255,3.064,1.013,3.547,3.3,1.09.133,2-.814,2.726-1.529,3.022-2.962,6.84-5.382,11.063-5.654" transform="translate(-1.542 -9.477)" fill="none" stroke="#4959b7" stroke-linejoin="round" stroke-width="2"/>
            <line id="Línea_643" data-name="Línea 643" x2="32.863" transform="translate(19.446 74.508)" fill="none" stroke="#4959b7" stroke-linejoin="round" stroke-width="2"/>
            <line id="Línea_644" data-name="Línea 644" x2="17.313" transform="translate(7.179 79.403)" fill="none" stroke="#4959b7" stroke-linejoin="round" stroke-width="2"/>
            <line id="Línea_645" data-name="Línea 645" x2="20.993" transform="translate(9.087 89.502)" fill="none" stroke="#4959b7" stroke-linejoin="round" stroke-width="2"/>
            <line id="Línea_646" data-name="Línea 646" x2="5.588" transform="translate(58.702 79.403)" fill="none" stroke="#4959b7" stroke-linejoin="round" stroke-width="2"/>
            <line id="Línea_647" data-name="Línea 647" x2="11.178" transform="translate(36.218 82.561)" fill="none" stroke="#4959b7" stroke-linejoin="round" stroke-width="2"/>
          </g>
        </g>
      </g>
    </g>
    <g id="Grupo_1108347" data-name="Grupo 1108347" transform="translate(-936.554 468.262)">
      <path id="Trazado_873226" data-name="Trazado 873226" d="M115.553,6.318a3.159,3.159,0,1,1,3.139-3.159A3.155,3.155,0,0,1,115.553,6.318ZM93.066,28.9a3.158,3.158,0,1,1,3.147-3.162A3.151,3.151,0,0,1,93.066,28.9Zm0-22.583a3.159,3.159,0,1,1,3.147-3.159A3.151,3.151,0,0,1,93.066,6.318ZM70.589,28.9a3.158,3.158,0,1,1,3.143-3.162A3.155,3.155,0,0,1,70.589,28.9Zm0-22.583a3.159,3.159,0,1,1,3.143-3.159A3.155,3.155,0,0,1,70.589,6.318ZM48.1,28.9a3.158,3.158,0,1,1,3.145-3.162A3.154,3.154,0,0,1,48.1,28.9Zm0-22.583A3.159,3.159,0,1,1,51.25,3.159,3.154,3.154,0,0,1,48.1,6.318ZM25.623,28.9a3.158,3.158,0,1,1,3.148-3.162A3.154,3.154,0,0,1,25.623,28.9Zm0-22.583a3.159,3.159,0,1,1,3.148-3.159A3.153,3.153,0,0,1,25.623,6.318ZM3.147,28.9a3.158,3.158,0,1,1,3.142-3.162A3.155,3.155,0,0,1,3.147,28.9Zm0-22.583A3.159,3.159,0,1,1,6.289,3.159,3.155,3.155,0,0,1,3.147,6.318ZM115.553,22.586a3.158,3.158,0,1,1-3.147,3.153A3.146,3.146,0,0,1,115.553,22.586Z" transform="translate(1185.401 9705.696) rotate(90)" fill="#4d637e" fill-rule="evenodd"/>
      <path id="Trazado_873221" data-name="Trazado 873221" d="M82,99.285,75.4,69.518,44.934,69,38.37,39.259,7.925,38.745.211,3.791,13.4.868l5.418,24.543,30.438.513,6.571,29.743,30.459.516,6.6,29.78,25.153.439-.25,13.509Z" transform="translate(1313.52 9755.456)" fill="#4d637e" fill-rule="evenodd"/>
      <g id="Grupo_1108345" data-name="Grupo 1108345" transform="translate(1147.772 9480.379) rotate(-90)">
        <path id="Trazado_873222" data-name="Trazado 873222" d="M0,0,10.925,10.925,21.847,0" transform="translate(0 21.444)" fill="none" stroke="#eb9f27" stroke-width="4"/>
        <path id="Trazado_873225" data-name="Trazado 873225" d="M0,0,10.925,10.925,21.847,0" transform="translate(0 0)" fill="none" stroke="#eb9f27" stroke-width="4"/>
        <path id="Trazado_873223" data-name="Trazado 873223" d="M0,0,10.925,10.925,21.847,0" transform="translate(0 42.889)" fill="none" stroke="#eb9f27" stroke-width="4"/>
        <path id="Trazado_873224" data-name="Trazado 873224" d="M0,0,10.925,10.925,21.847,0" transform="translate(0 64.333)" fill="none" stroke="#eb9f27" stroke-width="4"/>
      </g>
    </g>
  </g>
</svg>
