<svg xmlns="http://www.w3.org/2000/svg" xmlns:xlink="http://www.w3.org/1999/xlink" width="108.914" height="108.914" viewBox="0 0 108.914 108.914">
  <defs>
    <filter id="Trazado_874925" x="0" y="0" width="108.914" height="108.914" filterUnits="userSpaceOnUse">
      <feOffset dy="3" input="SourceAlpha"/>
      <feGaussianBlur stdDeviation="3" result="blur"/>
      <feFlood flood-opacity="0.161"/>
      <feComposite operator="in" in2="blur"/>
      <feComposite in="SourceGraphic"/>
    </filter>
  </defs>
  <g id="Grupo_1107937" data-name="Grupo 1107937" transform="translate(8.991 6.022)">
    <g id="Grupo_1107763" data-name="Grupo 1107763" transform="translate(0.008 -0.022)">
      <g transform="matrix(1, 0, 0, 1, -9, -6)" filter="url(#Trazado_874925)">
        <g id="Trazado_874925-2" data-name="Trazado 874925" transform="translate(9 6)" fill="#9ec9ff" opacity="0.859">
          <path d="M 45.45676803588867 89.41407012939453 C 39.52198028564453 89.41407012939453 33.76551818847656 88.25206756591797 28.34726715087891 85.96034240722656 C 23.11310577392578 83.74648284912109 18.41203117370605 80.57682800292969 14.37464332580566 76.5394287109375 C 10.33724308013916 72.50202941894531 7.167593002319336 67.80095672607422 4.953730583190918 62.56679534912109 C 2.662005424499512 57.14855575561523 1.500005483627319 51.39208221435547 1.500005483627319 45.45729446411133 C 1.500005483627319 39.52198028564453 2.662005424499512 33.76550674438477 4.953730583190918 28.34726905822754 C 7.167593002319336 23.11310577392578 10.33724308013916 18.41203117370605 14.37464332580566 14.37464332580566 C 18.41203117370605 10.33724403381348 23.11310577392578 7.167593955993652 28.34726715087891 4.953731060028076 C 33.76550674438477 2.662006139755249 39.52198028564453 1.500006198883057 45.45676803588867 1.500006198883057 C 51.39155578613281 1.500006198883057 57.14802932739258 2.662006139755249 62.56626892089844 4.953731060028076 C 67.80043029785156 7.167593955993652 72.50150299072266 10.33724403381348 76.53890228271484 14.37464332580566 C 80.57630920410156 18.41203117370605 83.74595642089844 23.11310577392578 85.95981597900391 28.34726905822754 C 88.25154113769531 33.76551818847656 89.41354370117188 39.52198028564453 89.41354370117188 45.45676803588867 C 89.41354370117188 51.39208221435547 88.25154113769531 57.14855575561523 85.95981597900391 62.56679534912109 C 83.74595642089844 67.80095672607422 80.57630920410156 72.50202941894531 76.53890228271484 76.5394287109375 C 72.50150299072266 80.57682800292969 67.80043029785156 83.74648284912109 62.56626892089844 85.96034240722656 C 57.14802932739258 88.25206756591797 51.39155578613281 89.41407012939453 45.45676803588867 89.41407012939453 Z" stroke="none"/>
          <path d="M 45.45676803588867 3 C 39.72381210327148 3 34.1639404296875 4.12213134765625 28.93159484863281 6.335227966308594 C 23.87622833251953 8.473472595214844 19.33542633056641 11.53517150878906 15.43529510498047 15.435302734375 C 11.53517150878906 19.33543395996094 8.473464965820312 23.87622833251953 6.335227966308594 28.93160247802734 C 4.122123718261719 34.16394424438477 3 39.72381591796875 3 45.4572868347168 C 3 51.19024658203125 4.122123718261719 56.75011825561523 6.335227966308594 61.98246002197266 C 8.473464965820312 67.03782653808594 11.53517150878906 71.57862854003906 15.43529510498047 75.478759765625 C 19.33542633056641 79.37889099121094 23.87622833251953 82.44058990478516 28.93159484863281 84.57883453369141 C 34.1639404296875 86.79193115234375 39.72381210327148 87.9140625 45.45676803588867 87.9140625 C 51.18972396850586 87.9140625 56.74959564208984 86.79193115234375 61.98194122314453 84.57883453369141 C 67.03730773925781 82.44058990478516 71.57810974121094 79.37889099121094 75.47824096679688 75.478759765625 C 79.37837219238281 71.57862854003906 82.44007110595703 67.03782653808594 84.57830810546875 61.98246002197266 C 86.79141235351562 56.75011825561523 87.91353607177734 51.19024658203125 87.91353607177734 45.4567756652832 C 87.91353607177734 39.72381591796875 86.79141235351562 34.16394424438477 84.57830810546875 28.93160247802734 C 82.44007110595703 23.87622833251953 79.37837219238281 19.33543395996094 75.47824096679688 15.435302734375 C 71.57810974121094 11.53517150878906 67.03730773925781 8.473472595214844 61.98194122314453 6.335227966308594 C 56.74959564208984 4.12213134765625 51.18972396850586 3 45.45676803588867 3 M 45.45676803588867 0 C 70.56185150146484 0 90.91353607177734 20.35169219970703 90.91353607177734 45.4567756652832 L 90.91353607177734 45.4572868347168 C 90.91353607177734 70.5623779296875 70.56185150146484 90.9140625 45.45676803588867 90.9140625 C 20.3516845703125 90.9140625 0 70.5623779296875 0 45.4572868347168 L 0 45.4567756652832 C 0 20.35169219970703 20.3516845703125 0 45.45676803588867 0 Z" stroke="none" fill="#fff"/>
        </g>
      </g>
      <g id="Trazado_874923" data-name="Trazado 874923" transform="translate(0)" fill="none">
        <path d="M45.457,0A45.457,45.457,0,0,1,90.914,45.457h0A45.457,45.457,0,0,1,0,45.457H0A45.457,45.457,0,0,1,45.457,0Z" stroke="none"/>
        <path d="M 45.45676803588867 3 C 39.72381210327148 3 34.1639404296875 4.12213134765625 28.93159484863281 6.335227966308594 C 23.87622833251953 8.473472595214844 19.33542633056641 11.53517150878906 15.43529510498047 15.435302734375 C 11.53517150878906 19.33543395996094 8.473464965820312 23.87622833251953 6.335227966308594 28.93160247802734 C 4.122123718261719 34.16394424438477 3 39.72381591796875 3 45.4572868347168 C 3 51.19024658203125 4.122123718261719 56.75011825561523 6.335227966308594 61.98246002197266 C 8.473464965820312 67.03782653808594 11.53517150878906 71.57862854003906 15.43529510498047 75.478759765625 C 19.33542633056641 79.37889099121094 23.87622833251953 82.44058990478516 28.93159484863281 84.57883453369141 C 34.1639404296875 86.79193115234375 39.72381210327148 87.9140625 45.45676803588867 87.9140625 C 51.18972396850586 87.9140625 56.74959564208984 86.79193115234375 61.98194122314453 84.57883453369141 C 67.03730773925781 82.44058990478516 71.57810974121094 79.37889099121094 75.47824096679688 75.478759765625 C 79.37837219238281 71.57862854003906 82.44007110595703 67.03782653808594 84.57830810546875 61.98246002197266 C 86.79141235351562 56.75011825561523 87.91353607177734 51.19024658203125 87.91353607177734 45.4567756652832 C 87.91353607177734 39.72381591796875 86.79141235351562 34.16394424438477 84.57830810546875 28.93160247802734 C 82.44007110595703 23.87622833251953 79.37837219238281 19.33543395996094 75.47824096679688 15.435302734375 C 71.57810974121094 11.53517150878906 67.03730773925781 8.473472595214844 61.98194122314453 6.335227966308594 C 56.74959564208984 4.12213134765625 51.18972396850586 3 45.45676803588867 3 M 45.45676803588867 0 C 70.56185150146484 0 90.91353607177734 20.35169219970703 90.91353607177734 45.4567756652832 L 90.91353607177734 45.4572868347168 C 90.91353607177734 70.5623779296875 70.56185150146484 90.9140625 45.45676803588867 90.9140625 C 20.3516845703125 90.9140625 0 70.5623779296875 0 45.4572868347168 L 0 45.4567756652832 C 0 20.35169219970703 20.3516845703125 0 45.45676803588867 0 Z" stroke="none" fill="#fff"/>
      </g>
    </g>
    <g id="viento_1_" data-name="viento (1)" transform="translate(10.364 -89.565)">
      <path id="Trazado_898143" data-name="Trazado 898143" d="M83.233,143.427a4.274,4.274,0,0,0-3.36-1.651c-2.559.156-3.1,1.565-4.029,3.485a9.341,9.341,0,0,1-5.053,4.545A8.556,8.556,0,0,1,60.82,146.8a4.939,4.939,0,0,0-2.635-1.77,1.323,1.323,0,0,1,.139-2.559,6.967,6.967,0,0,1,5.5,1.3,4.441,4.441,0,0,0,3.014.939c2.72-.266,3.034-2.885,3.444-3.754A10.363,10.363,0,0,1,90.1,144.042a9.286,9.286,0,0,1-6.391,9.742,7.725,7.725,0,0,1-3.784.2,1.327,1.327,0,0,1-.107-2.571C84.164,150.126,85.233,145.872,83.233,143.427Z" transform="translate(-49.515 -16.261)" fill="#b9f0ff"/>
      <path id="Trazado_898144" data-name="Trazado 898144" d="M8.8,284.472c7.134-.495,9.554-2.846,13.155-2.727a9.484,9.484,0,0,1,7.176,3.774,13.888,13.888,0,0,0,16.428,3.037c2.792-1.4,3.628-2.77,4.635-3.442,2.244-1.57,6.211-.049,6.832,3.8a6.51,6.51,0,0,1-.092,2.019,1.581,1.581,0,0,0,.577,1.791c.64.351,1.308.022,1.889-.723a10.079,10.079,0,0,0,.872-1.375c2.979-6.215-2.622-12.658-8.836-12.73-4.146-.047-6.344,2.558-7.532,3.571a9.128,9.128,0,0,1-11.182.249,14.543,14.543,0,0,0-11.483-3.5c-4.095.629-6.2,2.764-11.077,3.628q-.78.138-1.568.212a1.213,1.213,0,0,0,.207,2.418Z" transform="translate(-6.483 -140.079)" fill="#7ce3ff"/>
      <path id="Trazado_898145" data-name="Trazado 898145" d="M329.512,173.654c1.869-2.817,5.63-3.574,9.135-1.081,1.687,1.189,4.369,1.9,6.274,1.053,2.169-1.059,2.279-2.757,1.359-3.713-1.314-1.367-3.392-.336-3.23-.4a1.438,1.438,0,0,1-1.847-.853c-.77-2.089,4.265-5.644,8.633-2.726,4.913,3.2,4.008,11.01-2.483,13.628-5.113,2-10.209-.8-12.067-2.991a3.073,3.073,0,0,0-2.349-1.34,4.29,4.29,0,0,0-1.59.5A1.438,1.438,0,0,1,329.512,173.654Z" transform="translate(-284.738 -42.311)" fill="#55dafe"/>
      <path id="Trazado_898146" data-name="Trazado 898146" d="M308.583,122.795h8.786a3.444,3.444,0,0,0,0-6.888,1.014,1.014,0,0,0,0,2.029,1.415,1.415,0,1,1,0,2.831h-8.786a1.014,1.014,0,1,0,0,2.029Z" transform="translate(-265.975)"/>
      <path id="Trazado_898147" data-name="Trazado 898147" d="M412.139,300.772h-.058a1.014,1.014,0,1,0,0,2.029h.058a1.014,1.014,0,1,0,0-2.029Z" transform="translate(-355.476 -159.865)"/>
      <path id="Trazado_898148" data-name="Trazado 898148" d="M447.588,300.772h-5.076a1.014,1.014,0,0,0,0,2.029h5.076a1.415,1.415,0,0,1,0,2.831,1.014,1.014,0,1,0,0,2.029,3.444,3.444,0,0,0,0-6.888Z" transform="translate(-381.792 -159.865)"/>
      <path id="Trazado_898149" data-name="Trazado 898149" d="M18.9,153.867a1.014,1.014,0,1,0-1.016-1.014A1.016,1.016,0,0,0,18.9,153.867Z" transform="translate(-15.462 -31.072)"/>
      <path id="Trazado_898150" data-name="Trazado 898150" d="M48.9,153.867H59.422a1.014,1.014,0,0,0,0-2.029H48.9a1.014,1.014,0,0,0,0,2.029Z" transform="translate(-41.414 -31.072)"/>
      <path id="Trazado_898151" data-name="Trazado 898151" d="M60.078,137.373a3.554,3.554,0,0,1-2.093-.757,7.978,7.978,0,0,0-6.3-1.478,2.339,2.339,0,0,0-.23,4.525,3.892,3.892,0,0,1,2.127,1.423,9.818,9.818,0,0,0,16.737-1.723c.832-1.735,1.251-2.918,3.309-2.918a3.391,3.391,0,0,1,2.381,1.286c1.57,1.919.67,5.31-2.92,6.375a2.343,2.343,0,0,0,.19,4.537c7.253,1.5,13.97-6.69,10.481-14.448a1.014,1.014,0,1,0-1.85.832c2.773,6.168-2.468,12.823-8.219,11.63a.313.313,0,0,1-.024-.606c5.058-1.5,6.37-6.6,3.915-9.6a5.287,5.287,0,0,0-4.209-2.024c-3.155.193-3.93,2.075-4.877,4.049-2.484,4.9-9.281,6.5-13.3,1.378a5.882,5.882,0,0,0-3.143-2.129.309.309,0,0,1,.033-.6c4.09-.812,4.848,2.583,8.415,2.256,3.309-.323,3.867-3.381,4.282-4.373a9.335,9.335,0,0,1,15.028-2.97,1.014,1.014,0,0,0,1.411-1.457A11.348,11.348,0,0,0,62.66,134.9C62.244,136.142,61.745,137.373,60.078,137.373Z" transform="translate(-43.076 -9.922)"/>
      <path id="Trazado_898152" data-name="Trazado 898152" d="M44.842,270.391c-4.493,0-6.954,2.855-8.08,3.815a7.931,7.931,0,0,1-5.1,1.8c-3.847,0-5.024-2.164-8.063-3.752a1.014,1.014,0,1,0-.94,1.8,21.452,21.452,0,0,1,2.983,2,9.969,9.969,0,0,0,6.02,1.985c7.089,0,7.129-5.652,13.28-5.611,4.531.052,8.657,3.953,8.657,8.186,0,2.8-1.8,4.9-2.083,4.739-.149-.082-.1-.534-.068-.712,1.143-6.021-4.9-9.216-8.308-6.843-1.027.689-4.137,4.724-10.259,4.724a12.9,12.9,0,0,1-9.672-4.381,10.323,10.323,0,0,0-7.7-3.889c-3.88-.129-6.231,2.242-13.258,2.729a.2.2,0,0,1-.04-.4c7.671-.737,10.005-5.035,16.917-3.755a1.014,1.014,0,1,0,.37-1.994c-7.654-1.419-10.281,3.039-17.481,3.731A2.228,2.228,0,0,0,2.388,279a32.3,32.3,0,0,0,8.652-1.807c2.137-.7,6.519-2.485,10.634,2.27a14.919,14.919,0,0,0,17.856,3.516c4.137-2.069,4.1-3.947,6.213-3.947a4.03,4.03,0,0,1,3.826,4.118c0,.867-.185,1.146-.185,1.831,0,2.512,3.172,4.011,5.321-.405,3.262-6.8-2.673-14.144-9.862-14.183Z" transform="translate(0 -133.592)"/>
      <path id="Trazado_898153" data-name="Trazado 898153" d="M347.492,165.318a7.824,7.824,0,0,0-3.58-6.68c-4.645-3.1-10.289.078-10.289,3.119A2.445,2.445,0,0,0,336.94,164a2.6,2.6,0,0,1,1.087-.244c1.313,0,2.1,1.443-.021,2.491-1.492.652-3.785.078-5.258-.96-5.768-4.1-10.982.208-10.982,2.7a2.489,2.489,0,0,0,2.449,2.463c1.56,0,2.148-1.669,3.811.327a12.8,12.8,0,0,0,9.192,4.033,10.994,10.994,0,0,0,4.027-.759A9.567,9.567,0,0,0,347.492,165.318Zm-10.274,7.461a10.8,10.8,0,0,1-7.642-3.313,3.984,3.984,0,0,0-3.162-1.7,5.191,5.191,0,0,0-2.054.626.424.424,0,0,1-.49-.635c1.566-2.359,4.692-2.954,7.7-.811,2.449,1.726,5.54,1.986,7.3,1.136,4.132-2.017,2.558-6.351-.852-6.351a4.8,4.8,0,0,0-1.868.4.413.413,0,0,1-.508-.367c0-1.152,3.645-3.763,7.144-1.425a5.834,5.834,0,0,1,2.668,4.987C345.464,169.314,341.849,172.779,337.218,172.779Z" transform="translate(-278.252 -35.853)"/>
    </g>
  </g>
</svg>
