<svg xmlns="http://www.w3.org/2000/svg" width="85" height="85" viewBox="0 0 85 85">
  <g id="Grupo_1108011" data-name="Grupo 1108011" transform="translate(-180.473 -748)">
    <circle id="Elipse_11654" data-name="Elipse 11654" cx="42.5" cy="42.5" r="42.5" transform="translate(180.473 748)" fill="#ffcd80"/>
    <g id="seguridad-alimenticia" transform="translate(192.473 748.5)">
      <g id="Grupo_1108009" data-name="Grupo 1108009" transform="translate(0.879 14.379)">
        <path id="Trazado_896370" data-name="Trazado 896370" d="M154.66,37.116a16.116,16.116,0,0,0-27.992-10.894s-.226.312-.357.466c-2.394,2.812-3.361,6.445-3.361,10.428,0,8.9,6.694,15.461,15.594,15.461a14.93,14.93,0,0,0,9.919-3.268,2.529,2.529,0,0,1,.882-.232A16.075,16.075,0,0,0,154.66,37.116Z" transform="translate(-109.419 -21)" fill="#91dafa"/>
        <path id="Trazado_896371" data-name="Trazado 896371" d="M144.837,88.728A16.116,16.116,0,0,1,122.762,65.35,16.118,16.118,0,0,0,144.021,88.5,3.3,3.3,0,0,1,144.837,88.728Z" transform="translate(-105.49 -60.152)" fill="#75cff9"/>
        <path id="Trazado_896372" data-name="Trazado 896372" d="M195.3,240.9a16.118,16.118,0,0,1-20.3,1.064,16.408,16.408,0,0,1,1.721-2.7,2.564,2.564,0,0,1,2.015-.972,2.539,2.539,0,0,1,.442.039,15.563,15.563,0,0,1,4.958,1.826,13.7,13.7,0,0,1,2.226,1.611.353.353,0,0,0,.4.05,14.389,14.389,0,0,1,1.387-.631,16.547,16.547,0,0,1,5.157-1.1l.107,0A2.593,2.593,0,0,1,195.3,240.9Z" transform="translate(-155.368 -212.823)" fill="#75cff9"/>
        <g id="Grupo_1108008" data-name="Grupo 1108008" transform="translate(19.288 3.399)">
          <path id="Trazado_896373" data-name="Trazado 896373" d="M220.2,63.56c0-.037.065-.113.065-.113a1.651,1.651,0,0,0-1.647-1.539h-.431a1.573,1.573,0,0,0,1.545-1.661c0-.037.1-.1.1-.1a1.651,1.651,0,0,0-1.647-1.539h-3.691a2.718,2.718,0,0,1-2.667-3.26l.39-2.09a2.926,2.926,0,0,0-1.579-3.163.893.893,0,0,0-1.24.519L207.6,56.3a7.208,7.208,0,0,1-3.222,3.868l.015,8.743c0,1.225,1.152,2.232,3.993,2.232h8.82c.812,0,1.314-.348,1.314-1.16a.819.819,0,0,1,.128-.291,1.471,1.471,0,0,0-1.442-1.183l.864-.123a1.5,1.5,0,0,0,1.616-1.5c0-.037.144-.133.144-.133a1.651,1.651,0,0,0-1.647-1.539l.344-.1C219.439,65.1,220.2,63.56,220.2,63.56Z" transform="translate(-200.59 -50.002)" fill="#e3a76f"/>
          <path id="Trazado_896374" data-name="Trazado 896374" d="M218.793,201.576a1.47,1.47,0,0,1-1.47,1.471H208.5c-2.841,0-3.993-.993-3.993-2.219V199.07c0,1.226,1.152,2.219,3.993,2.219h10.262A1.455,1.455,0,0,1,218.793,201.576Z" transform="translate(-200.708 -181.599)" fill="#d6995c"/>
          <path id="Trazado_896375" data-name="Trazado 896375" d="M173.239,124.63a1.153,1.153,0,0,1,1.153-1.153l.468-.062h.993a1.153,1.153,0,0,1,1.153,1.153V134.5l-.194.362a1.153,1.153,0,0,1-1.153,1.153l-1.187-.01a1.153,1.153,0,0,1-1.153-1.153Z" transform="translate(-173.102 -114.811)" fill="#857e87"/>
          <path id="Trazado_896376" data-name="Trazado 896376" d="M175.974,134.5v.6a1.153,1.153,0,0,1-1.153,1.153h-1.6a1.153,1.153,0,0,1-1.153-1.153V124.569a1.153,1.153,0,0,1,1.153-1.152h.6V133.8a.7.7,0,0,0,.7.7Z" transform="translate(-172.07 -114.812)" fill="#766e7a"/>
          <g id="Grupo_1108007" data-name="Grupo 1108007" transform="translate(14.462 10.144)">
            <path id="Trazado_896377" data-name="Trazado 896377" d="M300.237,192.879c0,.036,0,.074,0,.111a1.65,1.65,0,0,1-1.65,1.65h-2.25a.88.88,0,0,1-.88-.88h0a.88.88,0,0,1,.88-.88Z" transform="translate(-295.46 -186.277)" fill="#d6995c"/>
            <path id="Trazado_896378" data-name="Trazado 896378" d="M295.46,137.431h0a.88.88,0,0,1,.88-.88h3.9c0,.036,0,.074,0,.111a1.65,1.65,0,0,1-1.65,1.65h-2.25A.88.88,0,0,1,295.46,137.431Z" transform="translate(-295.46 -136.549)" fill="#d6995c"/>
            <path id="Trazado_896379" data-name="Trazado 896379" d="M295.718,166.213a.88.88,0,0,1,.622-1.5h4.328c0,.036,0,.074,0,.111a1.649,1.649,0,0,1-1.608,1.649H296.34A.878.878,0,0,1,295.718,166.213Z" transform="translate(-295.46 -161.409)" fill="#d6995c"/>
          </g>
        </g>
        <path id="Trazado_896380" data-name="Trazado 896380" d="M183.1,256.3a.467.467,0,0,0-.446.169,14.272,14.272,0,0,0-1.571,2.5,9.771,9.771,0,0,1-.322,1.6,10.576,10.576,0,0,0-.407,7.347c2.286,6.292,9.375,7.336,9.375,7.336s4.631-5.722,2.474-11.657a9.62,9.62,0,0,0-2.559-3.636,6.714,6.714,0,0,1-.646-.941A13.113,13.113,0,0,0,183.1,256.3Z" transform="translate(-159.657 -228.716)" fill="#86cc72"/>
        <path id="Trazado_896381" data-name="Trazado 896381" d="M188.832,295.413s-7.089-1.044-9.375-7.336a11.281,11.281,0,0,1,.729-8.946,13.381,13.381,0,0,1,5.423,2.09.35.35,0,0,0,.468-.066,12.483,12.483,0,0,1,2.025-1.976,10.609,10.609,0,0,1,3.205,4.577c2.155,5.936-2.475,11.657-2.475,11.657Z" transform="translate(-158.755 -248.877)" fill="#79bf66"/>
        <path id="Trazado_896382" data-name="Trazado 896382" d="M248.657,271.775a.467.467,0,0,0-.42-.225c-1.221.05-6.244.5-9.274,4.5a8.058,8.058,0,0,1-.48,1.559c-3.221,5.824.3,11.517.3,11.517s7.312-.248,10.351-5.742a10.632,10.632,0,0,0,.64-8.32,7.813,7.813,0,0,1-.162-1.3A12.763,12.763,0,0,0,248.657,271.775Z" transform="translate(-210.213 -242.184)" fill="#98db7c"/>
        <path id="Trazado_896383" data-name="Trazado 896383" d="M32.538,286.635a.467.467,0,0,0-.41.244,14.65,14.65,0,0,0-1.423,3.96s.006,1.337-.022,2.066a10.567,10.567,0,0,0,1.671,5.626c3.375,5.856,10.1,5.788,10.1,5.788s3.6-6.5.42-12.029a9.906,9.906,0,0,0-2.657-2.556,9.012,9.012,0,0,1-1.077-1.283A13.171,13.171,0,0,0,32.538,286.635Z" transform="translate(-27.962 -255.501)" fill="#b8eb7c"/>
        <path id="Trazado_896384" data-name="Trazado 896384" d="M41.122,305.978a10.677,10.677,0,0,0-3.734-3.838,13.508,13.508,0,0,0-4.828,7.5.352.352,0,0,1-.584.179,10.421,10.421,0,0,1-3.02-5.288,11.021,11.021,0,0,0,1.137,7.83c3.376,5.856,10.609,5.649,10.609,5.649s2.207-8.927.419-12.029Z" transform="translate(-26.211 -269.189)" fill="#98db7c"/>
        <path id="Trazado_896385" data-name="Trazado 896385" d="M247.238,300.033c-2.428,4.392-7.588,5.431-9.56,5.672-.5.06-.79.07-.79.07a10.931,10.931,0,0,1-.65-1.245c-.935-2.062-2.308-6.378.023-10.594a10.157,10.157,0,0,1,.8-1.236,13.5,13.5,0,0,1,1.488,1.688.467.467,0,0,0,.741.021l.121-.147a11.157,11.157,0,0,1,8.3-3.851A11.231,11.231,0,0,1,247.238,300.033Z" transform="translate(-208.315 -258.834)" fill="#86cc72"/>
        <path id="Trazado_896386" data-name="Trazado 896386" d="M105,307.467a11.362,11.362,0,0,0-10.523-11.34s-.548.037-.826.037c-6.268,0-10.58,5.023-10.58,11.3Z" transform="translate(-74.215 -263.881)" fill="#e27f86"/>
        <path id="Trazado_896387" data-name="Trazado 896387" d="M88.738,295.9a11.362,11.362,0,0,0-10.47,11.336H76.51a11.359,11.359,0,0,1,11.349-11.37C88.154,295.87,88.448,295.883,88.738,295.9Z" transform="translate(-68.422 -263.654)" fill="#df646e"/>
        <path id="Trazado_896388" data-name="Trazado 896388" d="M123.92,336.169a7.556,7.556,0,0,0-1.6-4.666l-.71-.525-.524-.727a7.524,7.524,0,0,0-3.85-1.612l-.879.286-.879-.286A7.52,7.52,0,0,0,111.7,330.2l-.444.9-.8.338a7.556,7.556,0,0,0-1.659,4.737Z" transform="translate(-96.917 -292.583)" fill="#df646e"/>
        <path id="Trazado_896389" data-name="Trazado 896389" d="M282.347,308.714a.466.466,0,0,0-.374-.305,11.212,11.212,0,0,0-5.476.6l-.827.431a8.145,8.145,0,0,0-2.366,2.112c-3.452,4.122-1.248,9.184-1.248,9.184s5.607,1.091,8.863-2.8c3.108-3.711,1.823-8.122,1.428-9.226Z" transform="translate(-240.437 -274.629)" fill="#b8eb7c"/>
        <path id="Trazado_896390" data-name="Trazado 896390" d="M278.059,324.566c-3.283,2.3-7.617,1.606-7.617,1.606s-2.124-5.363,1.328-9.485a8.29,8.29,0,0,1,3.364-2.409,8.194,8.194,0,0,0-1.606,1.471c-3.452,4.122-1.328,9.485-1.328,9.485A12.476,12.476,0,0,0,278.059,324.566Z" transform="translate(-239.053 -279.903)" fill="#98db7c"/>
        <path id="Trazado_896391" data-name="Trazado 896391" d="M403.977,316.89a.465.465,0,0,0-.422-.236,10.715,10.715,0,0,0-4.37,1.126s-.835.69-1.276,1.039a7.224,7.224,0,0,0-2,2.05c-2.52,4.373.314,8.982.314,8.982s5.263-.152,7.64-4.277a9.056,9.056,0,0,0,.776-1.5c.222-.661.568-1.86.568-1.86A9.775,9.775,0,0,0,403.977,316.89Z" transform="translate(-349.467 -282.002)" fill="#b8eb7c"/>
        <path id="Trazado_896392" data-name="Trazado 896392" d="M399.836,332.68a11.612,11.612,0,0,0-.649-6.414,8.026,8.026,0,0,0-3.272,3.089c-2.52,4.373.313,8.981.313,8.981h.046c.111,0,.42-.02.86-.077h0c1.672-.22,5.234-1.047,7.015-4.139a8.005,8.005,0,0,0,1.062-3.415,10.056,10.056,0,0,1-4.963,2.388A.352.352,0,0,1,399.836,332.68Z" transform="translate(-349.469 -290.487)" fill="#98db7c"/>
        <path id="Trazado_896393" data-name="Trazado 896393" d="M285.312,322.586a9.132,9.132,0,0,0,13.112-.127,9.49,9.49,0,0,0,1.071-12.12s-.483-.437-.75-.733a.468.468,0,0,0-.678-.014Z" transform="translate(-252.751 -275.646)" fill="#ffd05b"/>
        <path id="Trazado_896394" data-name="Trazado 896394" d="M297.507,308.9l-13.175,13.189a9.545,9.545,0,0,1-1.272-1.069l7.05-5.745,2.982-4.3,3-3.008a.468.468,0,0,1,.679.014A9.422,9.422,0,0,1,297.507,308.9Z" transform="translate(-250.763 -274.21)" fill="#ffc244"/>
        <path id="Trazado_896395" data-name="Trazado 896395" d="M311.594,341.376a4.733,4.733,0,1,0,6.687-6.7l-3.007,4.043Z" transform="translate(-275.953 -297.912)" fill="#ffe077"/>
        <path id="Trazado_896396" data-name="Trazado 896396" d="M319.239,336.062l-6.267,6.274a4.708,4.708,0,0,1-1.382-.961l6.688-6.7a4.715,4.715,0,0,1,.961,1.387Z" transform="translate(-275.949 -297.911)" fill="#ffd05b"/>
        <path id="Trazado_896397" data-name="Trazado 896397" d="M59.293,402.792l-38.871.252c-5.09,0-9.013-3.591-9.013-8.681v-1.328a1.087,1.087,0,0,1,1.087-1.087l.8-.189H68.115a1.087,1.087,0,0,1,1.087,1.087v1.328a9.206,9.206,0,0,1-.458,2.878L67.99,398l-.037.8a9.257,9.257,0,0,1-1.826,2.236S61.652,402.792,59.293,402.792Z" transform="translate(-10.952 -348.303)" fill="#dfbdf0"/>
        <path id="Trazado_896398" data-name="Trazado 896398" d="M62.676,401.047a9.181,9.181,0,0,1-6.142,2.344H16.717a9.213,9.213,0,0,1-7.967-4.58l.118-.992-.909-.766a9.207,9.207,0,0,1-.459-2.879v-1.327a1.087,1.087,0,0,1,1.088-1.088H9.844v.731a8.555,8.555,0,0,0,8.556,8.556Z" transform="translate(-7.5 -348.304)" fill="#cbb0f2"/>
      </g>
      <g id="Grupo_1108010" data-name="Grupo 1108010" transform="translate(0 13.5)">
        <path id="Trazado_896399" data-name="Trazado 896399" d="M186,56.939a2.525,2.525,0,0,0-.857-1.9,2.528,2.528,0,0,0-2.1-3.934h-3.691a1.8,1.8,0,0,1-1.41-.653,1.9,1.9,0,0,1-.393-1.566l.39-2.09a3.817,3.817,0,0,0-2.055-4.113,1.771,1.771,0,0,0-1.461-.046,1.923,1.923,0,0,0-1.005,1.089l-1.791,5.67a6.782,6.782,0,0,1-1.812,2.682,2.031,2.031,0,0,0-1.73-.972H166.6a2.034,2.034,0,0,0-2.032,2.032v3.923a.879.879,0,0,0,1.758,0V53.141a.274.274,0,0,1,.274-.274h1.48a.274.274,0,0,1,.274.274V63.679a.274.274,0,0,1-.274.274H166.6a.274.274,0,0,1-.274-.274V61.166a.879.879,0,0,0-1.758,0v2.513a2.034,2.034,0,0,0,2.032,2.032h1.48a2.028,2.028,0,0,0,1.613-.8,6.526,6.526,0,0,0,3.548.8h8.82a2.35,2.35,0,0,0,2.174-3.242,2.527,2.527,0,0,0,.907-3.633,2.525,2.525,0,0,0,.857-1.9Zm-2.53.771h-2.693a.879.879,0,0,0,0,1.758h2.262a.771.771,0,1,1,0,1.543h-2.262a.879.879,0,0,0,0,1.758h1.284a.591.591,0,0,1,0,1.183h-8.82c-1.95,0-3.114-.5-3.114-1.339,0,0,0-8.347-.015-8.561a8.28,8.28,0,0,0,3.17-4.074c.03-.039,1.767-5.689,1.821-5.715a2.053,2.053,0,0,1,1.1,2.213l-.39,2.09a3.648,3.648,0,0,0,.769,3.012,3.577,3.577,0,0,0,2.762,1.288h3.691a.771.771,0,1,1,0,1.543h-2.262a.879.879,0,0,0,0,1.758h2.693a.772.772,0,1,1,0,1.543Z" transform="translate(-145.283 -39.105)"/>
        <path id="Trazado_896400" data-name="Trazado 896400" d="M58.042,56.955H57.014a10.129,10.129,0,0,0-1.034-8.41.879.879,0,0,0-.709-.395,11.228,11.228,0,0,0-6.1,1.842,10.311,10.311,0,0,0-1.995-2.819.879.879,0,0,0-1.244,0l-2.008,2.012a9.193,9.193,0,0,0-.425-1.33.879.879,0,0,0-.629-.512,9.627,9.627,0,0,0-1.269-.151,14.455,14.455,0,0,0-1.257-3.209A17.022,17.022,0,0,0,47,30.495a16.828,16.828,0,0,0-3.585-10.441.879.879,0,1,0-1.387,1.081,15.085,15.085,0,0,1,3.213,9.36A15.262,15.262,0,0,1,38.9,42.864a14.622,14.622,0,0,0-7.045,2.151,13.592,13.592,0,0,0-7.7-3.967.879.879,0,0,0-.758.29,13.37,13.37,0,0,0-1.444,2.093A15.237,15.237,0,0,1,30,15.258,15.094,15.094,0,0,1,39.273,18.4a.879.879,0,0,0,1.071-1.395A16.838,16.838,0,0,0,30,13.5a17,17,0,0,0-8.837,31.512q-.148.346-.285.718-.283-.013-.567-.013a12.14,12.14,0,0,0-6.44,1.832,13.621,13.621,0,0,0-8.747-2.907.879.879,0,0,0-.7.417,14.978,14.978,0,0,0-1.667,4.464.879.879,0,1,0,1.723.352A14,14,0,0,1,5.7,46.4a12.1,12.1,0,0,1,6.7,2.231q-.347.3-.674.619a12.174,12.174,0,0,0-3.6,7.709H5.439a9.494,9.494,0,0,1-1.1-3.3A.879.879,0,1,0,2.6,53.9a11.252,11.252,0,0,0,.877,3.054H1.966A1.969,1.969,0,0,0,0,58.921v1.328a10.107,10.107,0,0,0,10.1,10.1H49.913a10.107,10.107,0,0,0,10.1-10.1V58.921a1.968,1.968,0,0,0-1.966-1.966Zm-3.3-7.031a8.145,8.145,0,0,1,.369,7.031H49.9a10.4,10.4,0,0,0-.092-5.256A9.312,9.312,0,0,1,54.746,49.924Zm-8.226-.854a8.639,8.639,0,0,1,1.565,7.885H44.9a5.659,5.659,0,0,0-.5-5.762Zm-3.385,3.391a3.883,3.883,0,0,1-.307,4.494H38.649Zm-.714-1.773-6.256,6.267H32.5a7.9,7.9,0,0,1,1.768-5.229C36.788,48.72,40.7,48.852,42.043,49A9.948,9.948,0,0,1,42.421,50.688ZM38.7,44.639a12.556,12.556,0,0,1,1.084,2.573A9.781,9.781,0,0,0,32.922,50.6a9.072,9.072,0,0,0-1.439,2.373,12.227,12.227,0,0,0-1.917-3.012l.028-.053c2.463-4.453,7.535-5.157,9.1-5.267ZM24.419,42.875a11.94,11.94,0,0,1,6.022,3.205,11.062,11.062,0,0,0-2.161,2.59,12.174,12.174,0,0,0-5.6-2.723,13.915,13.915,0,0,1,1.735-3.072Zm-4.1,4.6a10.421,10.421,0,0,1,10.421,9.48H28.7a8.445,8.445,0,0,0-16.771,0H9.9A10.526,10.526,0,0,1,20.316,47.475Zm-5.272,6.39.93.931a.879.879,0,0,0,1.244-1.242L16.3,52.63a6.654,6.654,0,0,1,3.142-1.3v1.65a.879.879,0,1,0,1.758,0v-1.65a6.659,6.659,0,0,1,3.213,1.36l-.868.869A.879.879,0,0,0,24.785,54.8l.858-.86a6.669,6.669,0,0,1,1.282,3.018H13.708a6.673,6.673,0,0,1,1.337-3.09ZM49.913,68.586H10.1a8.336,8.336,0,0,1-6.926-3.7H39.24a.879.879,0,1,0,0-1.758H2.27a8.3,8.3,0,0,1-.512-2.878V58.921a.209.209,0,0,1,.208-.208H58.042a.209.209,0,0,1,.208.208v1.328a8.3,8.3,0,0,1-.512,2.878h-14.4a.879.879,0,0,0,0,1.758h13.5A8.335,8.335,0,0,1,49.913,68.586Z" transform="translate(0 -13.5)"/>
      </g>
    </g>
  </g>
</svg>
